<svg width="48" height="32" viewBox="0 0 48 32" fill="none" xmlns="http://www.w3.org/2000/svg">
<g clip-path="url(#clip0_89_11560)">
<path d="M0 4C0 1.79086 1.79086 0 4 0H44C46.2091 0 48 1.79086 48 4V28C48 30.2091 46.2091 32 44 32H4C1.79086 32 0 30.2091 0 28V4Z" fill="#EFF2F6"/>
<path d="M28.5803 15.9823C28.5839 15.1226 28.2616 14.2616 27.6129 13.6128C26.9627 12.9627 26.0996 12.6406 25.2381 12.6458C25.234 12.6458 25.23 12.6455 25.2257 12.6455C23.355 12.6455 21.8711 14.129 21.8711 16.0003C21.8711 17.8531 23.3733 19.3549 25.2257 19.3549C27.097 19.3549 28.5807 17.8711 28.5807 16.0003C28.5807 15.9942 28.5803 15.9884 28.5803 15.9823Z" fill="#F26E21"/>
<path d="M21.2473 17.4196C20.7459 17.9215 20.2832 18.1176 19.7847 18.1283C18.5703 18.1174 17.6775 17.218 17.6775 15.9359C17.6775 15.2905 17.9219 14.7615 18.309 14.3096C18.672 13.9649 19.1397 13.7422 19.6775 13.7422C20.2581 13.7422 20.7099 13.9358 21.2257 14.4519V12.9681C20.71 12.7102 20.258 12.5811 19.6775 12.5811C18.8574 12.6397 18.0842 12.971 17.491 13.4914C17.3201 13.6452 17.1563 13.815 17.0174 14.0093C16.5841 14.5708 16.3223 15.2584 16.3223 16.0006C16.3223 17.8713 17.8066 19.2906 19.6774 19.2906C19.6865 19.2906 19.6956 19.2898 19.7044 19.2897C19.717 19.2899 19.7294 19.2906 19.7419 19.2906C20.2579 19.2906 20.7099 19.1619 21.2904 18.9038L21.2473 17.4196C21.2256 17.4414 21.2689 17.4616 21.2473 17.4822V17.4196Z" fill="#2B2B2B"/>
<path d="M32.8159 13.5051L31.3549 17.0972L29.6774 12.8389H28.3228L30.9677 19.355H31.6774L34.4516 12.8389H33.097L32.8159 13.5051Z" fill="#2B2B2B"/>
<path d="M34.9678 15.6776V19.1617H38.4518H38.516V18.1291H37.4193H36.2581V16.9681V16.3877H38.4518V15.2905H36.2581V13.9358H38.516V12.8389H34.9678V15.6776Z" fill="#2B2B2B"/>
<path d="M5.80678 12.8389H4V19.1617H5.80669C6.77427 19.1617 7.48383 18.9035 8.06447 18.4518C8.77403 17.8712 9.22584 16.9682 9.22584 16.0006C9.22593 14.1292 7.87086 12.8389 5.80678 12.8389ZM7.29049 17.6133C6.90337 17.9358 6.38724 18.1291 5.61299 18.1291H5.22587V13.9357H5.5484C6.32264 13.9357 6.83878 14.0647 7.22599 14.4517C7.67753 14.8385 7.93573 15.4195 7.93573 16.0004C8.00023 16.581 7.74221 17.2259 7.29049 17.6133Z" fill="#2B2B2B"/>
<path d="M11.0329 12.8379H9.80713V19.1606H11.0329V12.8379Z" fill="#2B2B2B"/>
<path d="M14.1292 15.2902C13.3551 15.0322 13.1613 14.8385 13.1613 14.5161C13.1613 14.1289 13.5485 13.8064 14.0646 13.8064C14.4517 13.8064 14.7742 13.9355 15.0969 14.3226L15.7422 13.484C15.2259 13.0322 14.581 12.7744 13.8713 12.7744C12.7742 12.7744 11.871 13.5487 11.871 14.5806C11.871 15.484 12.2584 15.871 13.4195 16.3227C13.9357 16.5159 14.1293 16.5807 14.2586 16.7097C14.5161 16.8385 14.6454 17.0968 14.6454 17.3546C14.6454 17.8708 14.2586 18.258 13.6776 18.258C13.0964 18.258 12.5807 17.9355 12.3226 17.4193L11.5483 18.1935C12.1292 19.0322 12.8389 19.4192 13.7422 19.4192C15.0324 19.4192 15.9352 18.5805 15.9352 17.3546C15.9353 16.2581 15.5486 15.8064 14.1292 15.2902Z" fill="#2B2B2B"/>
<path d="M42.0002 16.5162C42.9676 16.323 43.4839 15.6776 43.4839 14.7101C43.4839 13.549 42.6451 12.8389 41.226 12.8389H39.3549V19.1617H40.5806V16.6453H40.7744L42.5159 19.1617H44L42.0002 16.5162ZM40.9676 15.742H40.5807V13.8067H40.9676C41.7418 13.8067 42.1936 14.1292 42.1936 14.7747C42.1936 15.4196 41.7419 15.742 40.9676 15.742Z" fill="#2B2B2B"/>
</g>
<defs>
<clipPath id="clip0_89_11560">
<rect width="48" height="32" fill="white"/>
</clipPath>
</defs>
</svg>
