<svg width="80" height="40" viewBox="0 0 80 40" fill="none" xmlns="http://www.w3.org/2000/svg">
<path d="M19.5452 20C19.5452 8.9543 28.4995 0 39.5452 0C50.5909 0 59.5452 8.9543 59.5452 20C59.5452 31.0457 50.5909 40 39.5452 40C28.4995 40 19.5452 31.0457 19.5452 20Z" fill="#F2B601"/>
<path d="M39.9088 9C33.2926 9 27.9089 13.337 27.9089 18.6679C27.9089 23.447 32.178 27.4495 37.9447 28.2063C38.3356 28.2899 38.8674 28.4621 39.002 28.7937C39.123 29.0949 39.0811 29.5668 39.0406 29.871C39.0406 29.871 38.8999 30.7117 38.8695 30.8907C38.8173 31.192 38.6284 32.0687 39.9088 31.5329C41.1897 30.9971 46.8197 27.4931 49.3373 24.6161C51.076 22.7228 51.9089 20.8015 51.9089 18.6679C51.9089 13.337 46.526 9 39.9088 9Z" fill="#1C1C1C"/>
<path d="M36.5731 16.1353C36.4452 16.1353 36.3413 16.2425 36.3413 16.3744V21.734C36.3413 21.866 36.4452 21.9731 36.5731 21.9731H37.407C37.5349 21.9731 37.6386 21.866 37.6386 21.734V16.3744C37.6386 16.2425 37.5349 16.1353 37.407 16.1353H36.5731Z" fill="#F2B601"/>
<path d="M43.2328 16.1353H42.3549C42.2203 16.1353 42.1111 16.2425 42.1111 16.3744V19.5585L39.612 16.2416C39.6062 16.2331 39.5998 16.2251 39.593 16.2173L39.5914 16.2159C39.5866 16.2105 39.5818 16.2058 39.5767 16.201C39.5753 16.1996 39.5739 16.1984 39.5722 16.197C39.5681 16.1933 39.5638 16.1897 39.5592 16.1864C39.5573 16.1845 39.5551 16.1831 39.553 16.1815C39.5487 16.1786 39.5446 16.1756 39.5403 16.173C39.5379 16.1713 39.5355 16.1699 39.5328 16.1687C39.5285 16.1661 39.5242 16.1635 39.5199 16.1614C39.5172 16.1602 39.5148 16.1588 39.5122 16.1579C39.5076 16.1558 39.5031 16.1536 39.4983 16.152C39.4954 16.1511 39.493 16.1501 39.4904 16.1492C39.4856 16.1475 39.4808 16.1459 39.4757 16.1447C39.4731 16.1437 39.4702 16.1433 39.4673 16.1423C39.4625 16.1414 39.458 16.1402 39.4534 16.1393C39.4501 16.1388 39.4465 16.1383 39.4431 16.1381C39.4388 16.1371 39.4345 16.1369 39.4301 16.1364C39.4261 16.136 39.422 16.136 39.4177 16.1357C39.4145 16.1357 39.4121 16.1353 39.409 16.1353H38.5314C38.3968 16.1353 38.2874 16.2425 38.2874 16.3744V21.734C38.2874 21.866 38.3968 21.9731 38.5314 21.9731H39.409C39.5439 21.9731 39.653 21.866 39.653 21.734V18.5507L42.1553 21.8719C42.1725 21.896 42.1939 21.9156 42.2172 21.9311C42.2179 21.9316 42.2188 21.9323 42.2196 21.933C42.2246 21.9361 42.2296 21.9391 42.2347 21.942C42.2371 21.9434 42.2392 21.9443 42.2416 21.9455C42.2452 21.9476 42.2493 21.9495 42.2531 21.9512C42.2572 21.9528 42.2608 21.9545 42.2651 21.9561C42.2675 21.9571 42.2699 21.958 42.2723 21.9587C42.2781 21.9608 42.2834 21.9625 42.2889 21.9641C42.2901 21.9641 42.2913 21.9646 42.2925 21.9648C42.3124 21.97 42.3333 21.9731 42.3549 21.9731H43.2328C43.3676 21.9731 43.4765 21.866 43.4765 21.734V16.3744C43.4765 16.2425 43.3676 16.1353 43.2328 16.1353" fill="#F2B601"/>
<path d="M35.4556 20.631H33.1313V16.3748C33.1313 16.2425 33.0249 16.1353 32.894 16.1353H32.0383C31.9072 16.1353 31.8008 16.2425 31.8008 16.3748V21.7333V21.7338C31.8008 21.7981 31.8263 21.8564 31.8672 21.8993C31.8681 21.9005 31.869 21.9016 31.8705 21.9028C31.8716 21.904 31.8728 21.9049 31.874 21.9061C31.9167 21.9476 31.9743 21.9731 32.0381 21.9731H35.4556C35.5868 21.9731 35.6927 21.8656 35.6927 21.7333V20.8706C35.6927 20.7383 35.5868 20.631 35.4556 20.631" fill="#F2B601"/>
<path d="M47.7801 17.4774C47.9112 17.4774 48.0171 17.3703 48.0171 17.2378V16.375C48.0171 16.2428 47.9112 16.1353 47.7801 16.1353H44.3628H44.3623C44.2982 16.1353 44.2405 16.1612 44.1977 16.2029C44.1968 16.2039 44.1956 16.2046 44.1949 16.2055C44.1935 16.2069 44.1923 16.2083 44.1912 16.2098C44.1505 16.2527 44.1252 16.3107 44.1252 16.3748V16.375V21.7335V21.7338C44.1252 21.7981 44.1507 21.8564 44.1916 21.8993C44.1926 21.9005 44.1937 21.9019 44.1949 21.9028C44.1958 21.904 44.1973 21.9052 44.1984 21.9061C44.241 21.9474 44.2987 21.9731 44.3623 21.9731H47.7801C47.9112 21.9731 48.0171 21.8656 48.0171 21.7335V20.8706C48.0171 20.7385 47.9112 20.631 47.7801 20.631H45.456V19.7251H47.7801C47.9112 19.7251 48.0171 19.6178 48.0171 19.4855V18.6228C48.0171 18.4905 47.9112 18.383 47.7801 18.383H45.456V17.4774H47.7801Z" fill="#F2B601"/>
</svg>
