<svg width="80" height="40" viewBox="0 0 80 40" fill="none" xmlns="http://www.w3.org/2000/svg">
<path d="M39.6365 40C50.6822 40 59.6365 31.0457 59.6365 20C59.6365 8.9543 50.6822 0 39.6365 0C28.5908 0 19.6365 8.9543 19.6365 20C19.6365 31.0457 28.5908 40 39.6365 40Z" fill="#F2B601"/>
<path d="M48.9001 14.0734C45.6092 8.99983 38.8902 7.49149 33.6796 10.6453C28.606 13.7991 26.9606 20.6552 30.2515 25.7287L30.5257 26.1401L29.4288 30.2538L33.5424 29.1568L33.9538 29.431C35.7364 30.3909 37.6561 30.9394 39.5758 30.9394C41.6326 30.9394 43.6895 30.3909 45.4721 29.2939C50.5456 26.003 52.0539 19.284 48.9001 14.0734ZM46.0205 24.6318C45.4721 25.4545 44.7864 26.003 43.8266 26.1401C43.2781 26.1401 42.5925 26.4143 39.8501 25.3174C37.519 24.2204 35.5993 22.4378 34.228 20.381C33.4053 19.4211 32.9939 18.187 32.8568 16.9529C32.8568 15.8559 33.2682 14.8961 33.9538 14.2105C34.228 13.9362 34.5023 13.7991 34.7765 13.7991H35.4621C35.7364 13.7991 36.0106 13.7991 36.1478 14.3476C36.422 15.0332 37.1076 16.6787 37.1076 16.8158C37.2447 16.9529 37.2447 17.2272 37.1076 17.3643C37.2447 17.6385 37.1076 17.9128 36.9705 18.0499C36.8334 18.187 36.6962 18.4613 36.5591 18.5984C36.2849 18.7355 36.1478 19.0097 36.2849 19.284C36.8334 20.1067 37.519 20.9295 38.2046 21.6151C39.0273 22.3007 39.8501 22.8492 40.8099 23.2605C41.0842 23.3977 41.3584 23.3977 41.4955 23.1234C41.6326 22.8492 42.3183 22.1636 42.5925 21.8893C42.8667 21.6151 43.0039 21.6151 43.2781 21.7522L45.4721 22.8492C45.7463 22.9863 46.0205 23.1234 46.1577 23.2605C46.2948 23.6719 46.2948 24.2204 46.0205 24.6318Z" fill="#1C1C1C"/>
</svg>
