<svg width="53" height="39" viewBox="0 0 53 39" fill="none" xmlns="http://www.w3.org/2000/svg">
<path fill-rule="evenodd" clip-rule="evenodd" d="M0 32.4957C7.88219 29.2373 11.8218 25.4092 11.8218 21.0091C8.46172 20.684 5.68418 19.5298 3.48918 17.549C1.29418 15.5632 0.195178 13.2699 0.195178 10.6667C0.195178 7.89454 1.26115 5.56093 3.39309 3.66078C5.52504 1.76062 8.20348 0.810547 11.4344 0.810547C15.0527 0.810547 18.1846 2.04539 20.833 4.51509C23.4814 6.98479 24.8056 9.98622 24.8056 13.5169C24.8056 24.1063 17.7642 32.3874 3.68436 38.36L0 32.4957ZM27.8114 32.4957C35.7566 29.2373 39.7322 25.4092 39.7322 21.0091C36.3091 20.684 33.4955 19.5298 31.3005 17.549C29.1055 15.5632 28.0065 13.2699 28.0065 10.6667C28.0065 7.89454 29.0875 5.56093 31.2495 3.66078C33.4205 1.76062 36.1169 0.810547 39.3449 0.810547C42.9632 0.810547 46.08 2.04539 48.6954 4.51509C51.3138 6.98479 52.62 9.98622 52.62 13.5169C52.62 24.1063 45.6116 32.3874 31.5948 38.36L27.8144 32.4957H27.8114Z" fill="#232323"/>
</svg>
