<svg width="80" height="40" viewBox="0 0 80 40" fill="none" xmlns="http://www.w3.org/2000/svg">
<path d="M19.7273 20C19.7273 8.9543 28.6816 0 39.7273 0C50.773 0 59.7273 8.9543 59.7273 20C59.7273 31.0457 50.773 40 39.7273 40C28.6816 40 19.7273 31.0457 19.7273 20Z" fill="#F2B601"/>
<path d="M53.0608 21.2391C53.0608 22.093 52.3687 22.7852 51.5148 22.7852C50.6611 22.7852 49.9688 22.093 49.9688 21.2391C49.9688 20.3853 50.6611 19.6931 51.5148 19.6931C52.3687 19.6931 53.0608 20.3853 53.0608 21.2391V21.2391Z" fill="#1C1C1C"/>
<path d="M31.9084 21.0723L33.6782 19.3812C34.2176 18.8658 34.2371 18.0111 33.7217 17.4718C33.2064 16.9326 32.3517 16.9131 31.8124 17.4284L29.0951 20.0249V14.737C29.0951 13.9911 28.4904 13.3865 27.7446 13.3865C26.9987 13.3865 26.394 13.9911 26.394 14.737V25.3374C26.394 26.0833 26.9987 26.6877 27.7446 26.6877C28.4904 26.6879 29.0951 26.0833 29.0951 25.3374V23.7607L29.9398 22.9534L32.2878 26.1386V26.1388C32.7305 26.739 33.5759 26.867 34.1763 26.4245C34.7766 25.9818 34.9046 25.1364 34.4619 24.536L31.9084 21.0723Z" fill="#1C1C1C"/>
<path d="M37.7516 17.0095C37.0058 17.0095 36.4011 17.6142 36.4011 18.36V25.336C36.4011 26.0818 37.0058 26.6863 37.7516 26.6863C38.4975 26.6865 39.1021 26.0818 39.1021 25.336V18.36C39.1019 17.6142 38.4975 17.0095 37.7516 17.0095Z" fill="#1C1C1C"/>
<path d="M46.4655 21.0713L48.2353 19.3802C48.7747 18.8649 48.794 18.0102 48.2789 17.4708C47.7635 16.9317 46.9086 16.9121 46.3695 17.4275L43.652 20.0239V14.736C43.652 13.9902 43.0473 13.3855 42.3015 13.3855C41.5558 13.3855 40.9512 13.9902 40.9512 14.736V25.3364C40.9512 26.0823 41.5558 26.6868 42.3015 26.6868C43.0473 26.6868 43.652 26.0821 43.652 25.3364V23.7597L44.4969 22.9524L46.845 26.1376V26.1378C47.2875 26.738 48.133 26.866 48.7334 26.4235C49.3338 25.9808 49.4616 25.1354 49.019 24.535L46.4655 21.0713Z" fill="#1C1C1C"/>
</svg>
