<svg width="48" height="32" viewBox="0 0 48 32" fill="none" xmlns="http://www.w3.org/2000/svg">
<g clip-path="url(#clip0_1489_1166)">
<path d="M0 4C0 1.79086 1.79086 0 4 0H44C46.2091 0 48 1.79086 48 4V28C48 30.2091 46.2091 32 44 32H4C1.79086 32 0 30.2091 0 28V4Z" fill="#EFF2F6"/>
<path d="M40 23.3493C40 26.0979 37.7722 28.3268 35.0227 28.3268H8V8.65203C8 5.90266 10.2278 3.67383 12.9777 3.67383H39.9998L39.9997 23.3492L40 23.3493Z" fill="white"/>
<path d="M31.1906 16.4323C31.9624 16.4491 32.7386 16.3982 33.5074 16.4587C34.2859 16.604 34.4735 17.7825 33.7819 18.1685C33.3099 18.4228 32.7493 18.2632 32.2377 18.3081H31.1906V16.4323ZM33.9536 14.3091C34.1251 14.9144 33.5416 15.4579 32.9587 15.3745H31.1906C31.203 14.8037 31.1663 14.1842 31.2085 13.6434C31.9168 13.6634 32.6317 13.6027 33.3359 13.6751C33.6385 13.7512 33.8917 13.9999 33.9536 14.3091ZM38.2089 5.33305C38.2417 6.48898 38.2136 7.706 38.2231 8.88538C38.2209 13.6803 38.2277 18.4751 38.2193 23.2702C38.1882 25.0672 36.5957 26.6287 34.8111 26.6646C33.0248 26.6718 31.2382 26.6657 29.4517 26.6677V19.4188C31.3982 19.4087 33.3457 19.4392 35.2915 19.4036C36.1941 19.3469 37.1828 18.7513 37.2248 17.758C37.3311 16.7604 36.3905 16.0704 35.4975 15.9614C35.1543 15.9525 35.1643 15.8614 35.4975 15.8216C36.3492 15.6375 37.0181 14.756 36.7675 13.8732C36.5539 12.9447 35.5277 12.5853 34.674 12.5871C32.9335 12.5753 31.1927 12.5855 29.4521 12.582C29.4633 11.2287 29.4286 9.874 29.4708 8.52171C29.6087 6.75714 31.2413 5.30194 33.0008 5.33351C34.7371 5.33325 36.473 5.33325 38.2089 5.33318V5.33305Z" fill="url(#paint0_linear_1489_1166)"/>
<path d="M9.78262 8.70382C9.82708 6.90966 11.4265 5.361 13.2087 5.33478C14.9884 5.3293 16.7684 5.33399 18.5481 5.3324C18.5432 11.3353 18.5577 17.3388 18.5408 23.3414C18.4722 25.1138 16.8902 26.6329 15.1274 26.6643C13.3443 26.6707 11.5611 26.6652 9.77794 26.667V19.1737C11.5099 19.5829 13.3262 19.757 15.0932 19.4856C16.1494 19.3157 17.305 18.797 17.6626 17.7012C17.9257 16.7639 17.7776 15.7775 17.8167 14.8155V12.5814H14.7588C14.7451 14.059 14.787 15.5391 14.7367 17.0149C14.6543 17.922 13.7559 18.4984 12.9004 18.4676C11.8394 18.4788 9.73685 17.6987 9.73685 17.6987C9.73157 14.9303 9.76763 11.4633 9.78262 8.70408V8.70382Z" fill="url(#paint1_linear_1489_1166)"/>
<path d="M19.6881 13.4828C19.5271 13.517 19.6557 12.9346 19.6146 12.7136C19.6256 11.3167 19.5917 9.91823 19.6333 8.52228C19.7708 6.75024 21.416 5.29142 23.1826 5.33289H28.3851C28.3803 11.3358 28.3947 17.3393 28.3778 23.3419C28.3092 25.1142 26.7271 26.6333 24.9642 26.6648C23.1811 26.6715 21.3978 26.6658 19.6145 26.6675V18.4576C20.8324 19.4569 22.4877 19.6124 24.0049 19.6151C25.1488 19.6147 26.2859 19.4384 27.3967 19.1746V17.6705C26.1449 18.2944 24.6733 18.6907 23.2857 18.3322C22.3176 18.0913 21.615 17.1558 21.6306 16.1568C21.5185 15.1179 22.1274 14.0211 23.1483 13.7122C24.4159 13.3154 25.7974 13.6189 26.9855 14.1348C27.2401 14.2681 27.4984 14.4334 27.3967 14.0079V12.8257C25.4095 12.3529 23.2948 12.179 21.2984 12.6933C20.7205 12.8563 20.1575 13.1035 19.6881 13.483V13.4828Z" fill="url(#paint2_linear_1489_1166)"/>
</g>
<defs>
<linearGradient id="paint0_linear_1489_1166" x1="29.3918" y1="15.5442" x2="38.1677" y2="15.5442" gradientUnits="userSpaceOnUse">
<stop stop-color="#007B40"/>
<stop offset="1" stop-color="#55B330"/>
</linearGradient>
<linearGradient id="paint1_linear_1489_1166" x1="9.59134" y1="16.204" x2="18.4043" y2="16.204" gradientUnits="userSpaceOnUse">
<stop stop-color="#1D2970"/>
<stop offset="1" stop-color="#006DBA"/>
</linearGradient>
<linearGradient id="paint2_linear_1489_1166" x1="19.6017" y1="15.7507" x2="28.3835" y2="15.7507" gradientUnits="userSpaceOnUse">
<stop stop-color="#6E2B2F"/>
<stop offset="1" stop-color="#E30138"/>
</linearGradient>
<clipPath id="clip0_1489_1166">
<rect width="48" height="32" fill="white"/>
</clipPath>
</defs>
</svg>
