<svg width="70" height="70" viewBox="0 0 70 70" fill="none" xmlns="http://www.w3.org/2000/svg">
<path d="M12.0306 33.705C12.0306 33.705 14.3796 36.324 18.6456 36.324C22.6416 36.324 24.9636 33.759 24.9636 30.708C24.9636 24.579 15.9456 25.416 15.9456 22.014C15.9456 20.664 17.2146 19.719 18.8346 19.719C21.2376 19.719 23.0736 21.393 23.0736 21.393L24.5856 18.558C24.5856 18.558 22.6416 16.506 18.8616 16.506C15.1896 16.506 12.4356 18.882 12.4356 22.068C12.4356 27.954 21.4806 27.36 21.4806 30.789C21.4806 32.355 20.1576 33.111 18.6996 33.111C15.9996 33.111 13.9206 31.086 13.9206 31.086L12.0306 33.705ZM28.4388 36H31.9218V29.385H35.8368C39.4278 29.385 41.9388 26.793 41.9388 23.067C41.9388 19.341 39.4278 16.83 35.8368 16.83H28.4388V36ZM31.9218 26.361V19.827H35.2428C37.2138 19.827 38.4018 21.096 38.4018 23.067C38.4018 25.065 37.2138 26.361 35.1888 26.361H31.9218ZM49.0198 36H52.5028V27.981L58.8748 16.83H54.9328L51.9628 22.473C51.3418 23.661 50.8018 25.038 50.8018 25.038H50.7478C50.7208 25.065 50.2078 23.661 49.5868 22.473L46.5898 16.83H42.6478L49.0198 27.981V36Z" fill="white"/>
<path d="M11.8436 55H14.1656V47.638C14.1656 46.882 14.0396 45.658 14.0396 45.658H14.0756C14.0756 45.658 14.6516 46.9 15.1376 47.638L19.9796 55H22.2836V42.22H19.9796V49.6C19.9796 50.356 20.1056 51.58 20.1056 51.58H20.0696C20.0696 51.58 19.4936 50.338 19.0076 49.6L14.1656 42.22H11.8436V55ZM24.6554 48.592C24.6554 52.606 27.5534 55.216 30.9194 55.216C33.2954 55.216 34.6274 53.848 34.6274 53.848H34.6634C34.6634 53.848 34.6454 54.118 34.6454 54.388V55H36.6254V48.268H32.5754V50.266H34.5374V51.76C34.5374 51.76 33.2594 53.092 31.3334 53.092C28.9394 53.092 27.0494 51.292 27.0494 48.52C27.0494 46.108 28.5794 44.128 31.4414 44.128C33.4754 44.128 34.8434 45.352 34.8434 45.352L35.9954 43.624C35.9954 43.624 34.3754 42.004 31.2434 42.004C27.4454 42.004 24.6554 44.884 24.6554 48.592ZM39.1952 55H47.1332V53.002H41.5172V49.564H45.8192V47.566H41.5172V44.218H46.8452V42.22H39.1952V55ZM49.5487 55H51.8707V50.23H54.1027L56.6407 55H59.2327L56.6047 50.23C56.3527 49.78 56.1727 49.6 56.1727 49.6V49.564C57.5227 49.024 58.3327 47.602 58.3327 46.072C58.3327 44.38 57.5227 43.156 56.2447 42.58C55.6867 42.328 55.0567 42.22 53.6707 42.22H49.5487V55ZM51.8707 48.214V44.218H53.6347C55.4527 44.218 55.9747 44.974 55.9747 46.198C55.9747 47.476 55.2007 48.214 53.9587 48.214H51.8707Z" fill="white"/>
<rect x="2.5" y="2.5" width="65" height="65" stroke="white" stroke-width="5"/>
</svg>
