<svg width="80" height="80" viewBox="0 0 80 80" fill="none" xmlns="http://www.w3.org/2000/svg">
<path d="M19.9997 40C19.9997 28.9543 28.954 20 39.9997 20C51.0454 20 59.9997 28.9543 59.9997 40C59.9997 51.0457 51.0454 60 39.9997 60C28.954 60 19.9997 51.0457 19.9997 40Z" fill="#F2B601"/>
<path d="M48.3169 32.5163C46.7873 31.8144 45.1469 31.2973 43.4318 31.0011C43.4006 30.9954 43.3694 31.0097 43.3533 31.0382C43.1423 31.4134 42.9087 31.9029 42.745 32.2877C40.9003 32.0115 39.0651 32.0115 37.2582 32.2877C37.0946 31.8944 36.8524 31.4134 36.6405 31.0382C36.6244 31.0106 36.5932 30.9963 36.562 31.0011C34.8478 31.2963 33.2075 31.8134 31.6768 32.5163C31.6636 32.522 31.6522 32.5315 31.6447 32.5439C28.5333 37.1922 27.6809 41.7264 28.0991 46.2042C28.1009 46.2261 28.1133 46.2471 28.1303 46.2604C30.1831 47.7679 32.1716 48.6831 34.1232 49.2898C34.1544 49.2993 34.1875 49.2879 34.2073 49.2622C34.669 48.6317 35.0805 47.967 35.4333 47.268C35.4541 47.227 35.4342 47.1785 35.3917 47.1623C34.7389 46.9147 34.1174 46.6127 33.5195 46.27C33.4722 46.2423 33.4685 46.1747 33.512 46.1423C33.6378 46.048 33.7637 45.9499 33.8838 45.8509C33.9056 45.8328 33.9358 45.829 33.9614 45.8404C37.8891 47.6337 42.1414 47.6337 46.0228 45.8404C46.0483 45.828 46.0786 45.8319 46.1013 45.8499C46.2215 45.949 46.3473 46.048 46.4741 46.1423C46.5176 46.1747 46.5147 46.2423 46.4675 46.2699C45.8696 46.6194 45.248 46.9146 44.5944 47.1613C44.5518 47.1775 44.5329 47.227 44.5537 47.2679C44.9142 47.966 45.3257 48.6307 45.7788 49.2612C45.7977 49.2879 45.8317 49.2993 45.863 49.2897C47.824 48.6831 49.8125 47.7679 51.8653 46.2603C51.8833 46.247 51.8946 46.227 51.8965 46.2051C52.397 41.0282 51.0583 36.5312 48.3481 32.5448C48.3415 32.5315 48.3302 32.522 48.3169 32.5163ZM36.0199 43.4777C34.8374 43.4777 33.863 42.392 33.863 41.0587C33.863 39.7254 34.8185 38.6398 36.0199 38.6398C37.2308 38.6398 38.1957 39.735 38.1768 41.0587C38.1768 42.392 37.2213 43.4777 36.0199 43.4777ZM43.9947 43.4777C42.8122 43.4777 41.8378 42.392 41.8378 41.0587C41.8378 39.7254 42.7932 38.6398 43.9947 38.6398C45.2055 38.6398 46.1705 39.735 46.1516 41.0587C46.1516 42.392 45.2056 43.4777 43.9947 43.4777Z" fill="#1C1C1C"/>
</svg>
