<svg width="289" height="34" viewBox="0 0 289 34" fill="none" xmlns="http://www.w3.org/2000/svg">
<g clip-path="url(#clip0_2561_11077)">
<path d="M9.71875 23.75V24.25H10.2188H13.5C14.4654 24.25 15.25 23.4654 15.25 22.5C15.25 22.431 15.306 22.375 15.375 22.375C15.444 22.375 15.5 22.431 15.5 22.5C15.5 23.6024 14.6024 24.5 13.5 24.5H2.5C1.39764 24.5 0.5 23.6024 0.5 22.5V11.5C0.5 10.3976 1.39764 9.5 2.5 9.5H13.5C14.6024 9.5 15.5 10.3976 15.5 11.5V19.375C15.5 19.444 15.444 19.5 15.375 19.5C15.306 19.5 15.25 19.444 15.25 19.375V11.5C15.25 10.5346 14.4654 9.75 13.5 9.75H2.5C1.53461 9.75 0.75 10.5346 0.75 11.5V22.5C0.75 23.4654 1.53461 24.25 2.5 24.25H8.96875H9.46875V23.75V18.3125V17.8125H8.96875H7.5625C7.49345 17.8125 7.4375 17.7565 7.4375 17.6875C7.4375 17.6185 7.49345 17.5625 7.5625 17.5625H8.96875H9.46875V17.0625V15.3438C9.46875 14.2414 10.3664 13.3438 11.4688 13.3438H11.7812C11.8503 13.3438 11.9062 13.3997 11.9062 13.4688C11.9062 13.5378 11.8503 13.5938 11.7812 13.5938H11.4688C10.5034 13.5938 9.71875 14.3784 9.71875 15.3438V17.0625V17.5625H10.2188H11.625C11.694 17.5625 11.75 17.6185 11.75 17.6875C11.75 17.7565 11.694 17.8125 11.625 17.8125H10.2188H9.71875V18.3125V23.75Z" fill="white" stroke="white"/>
</g>
<g clip-path="url(#clip1_2561_11077)">
<path fill-rule="evenodd" clip-rule="evenodd" d="M34.4436 9.75C32.6647 9.75 31.2227 11.1921 31.2227 12.9709V20.4128C31.2227 22.1917 32.6647 23.6337 34.4436 23.6337H41.8854C43.6643 23.6337 45.1064 22.1917 45.1064 20.4128V12.9709C45.1064 11.1921 43.6643 9.75 41.8854 9.75H34.4436ZM30.2227 12.9709C30.2227 10.6398 32.1124 8.75 34.4436 8.75H41.8854C44.2166 8.75 46.1064 10.6398 46.1064 12.9709V20.4128C46.1064 22.7439 44.2166 24.6337 41.8854 24.6337H34.4436C32.1124 24.6337 30.2227 22.7439 30.2227 20.4128V12.9709ZM38.56 14.2096C38.0447 14.1332 37.5184 14.2212 37.056 14.4612C36.5936 14.7011 36.2186 15.0807 35.9844 15.546C35.7502 16.0114 35.6687 16.5387 35.7514 17.053C35.8342 17.5674 36.077 18.0425 36.4454 18.4109C36.8138 18.7793 37.2889 19.0221 37.8032 19.1049C38.3176 19.1876 38.8449 19.1061 39.3102 18.8719C39.7756 18.6377 40.1552 18.2627 40.3951 17.8003C40.6351 17.3379 40.7231 16.8116 40.6467 16.2963C40.5687 15.7706 40.3238 15.284 39.948 14.9082C39.5723 14.5325 39.0857 14.2876 38.56 14.2096ZM36.5954 13.5735C37.2445 13.2367 37.9833 13.1132 38.7067 13.2204C39.4446 13.3298 40.1277 13.6737 40.6551 14.2011C41.1826 14.7286 41.5264 15.4117 41.6359 16.1496C41.7431 16.873 41.6196 17.6117 41.2828 18.2609C40.9459 18.91 40.413 19.4363 39.7598 19.7651C39.1066 20.0939 38.3664 20.2083 37.6444 20.0922C36.9224 19.976 36.2554 19.6351 35.7383 19.118C35.2212 18.6009 34.8803 17.9339 34.7641 17.2119C34.6479 16.4899 34.7624 15.7497 35.0912 15.0965C35.4199 14.4432 35.9463 13.9103 36.5954 13.5735ZM42.2575 12.0988C41.9814 12.0988 41.7575 12.3227 41.7575 12.5988C41.7575 12.875 41.9814 13.0988 42.2575 13.0988H42.2642C42.5403 13.0988 42.7642 12.875 42.7642 12.5988C42.7642 12.3227 42.5403 12.0988 42.2642 12.0988H42.2575Z" fill="white"/>
</g>
<path fill-rule="evenodd" clip-rule="evenodd" d="M65.3407 15.7232C65.3327 15.7261 65.324 15.7264 65.3158 15.7242C65.3076 15.7219 65.3003 15.7171 65.295 15.7105C64.7897 15.039 64.6627 13.8845 64.6318 13.4411C64.6255 13.3557 64.5299 13.3077 64.4533 13.3506C62.893 14.2303 61.4453 16.3111 61.4453 18.3201C61.4453 21.7715 63.8337 24.667 67.9453 24.667C71.7975 24.667 74.4453 21.6828 74.4453 18.3205C74.4453 13.921 71.313 10.998 68.5229 9.6766C68.5066 9.66888 68.4885 9.66572 68.4706 9.66745C68.4526 9.66918 68.4355 9.67573 68.4209 9.68643C68.4064 9.69713 68.3949 9.71156 68.3879 9.72822C68.3808 9.74488 68.3783 9.76316 68.3808 9.7811C68.74 12.152 68.2437 14.7306 65.3407 15.7232V15.7232Z" stroke="white"/>
<g clip-path="url(#clip2_2561_11077)">
<mask id="path-4-inside-1_2561_11077" fill="white">
<path d="M104.318 11.3496C102.803 9.83447 100.797 9 98.668 9C94.2627 9 90.668 12.5952 90.668 17C90.668 18.3035 90.988 19.5902 91.5953 20.7341L90.6818 24.4185C90.6422 24.5779 90.6891 24.7465 90.8053 24.8627C90.9208 24.9783 91.0891 25.026 91.2495 24.9862L94.9338 24.0725C96.0778 24.6798 97.3645 25 98.668 25C100.797 25 102.803 24.1655 104.318 22.6504C105.833 21.1351 106.668 19.1285 106.668 17C106.668 14.8715 105.833 12.8647 104.318 11.3496ZM98.668 24.0625C97.4619 24.0625 96.2725 23.7521 95.2279 23.165C95.1239 23.1066 95.0015 23.09 94.8854 23.1187L91.7789 23.889L92.5492 20.7825C92.578 20.6666 92.5614 20.5441 92.5029 20.4399C91.9158 19.3955 91.6055 18.2061 91.6055 17C91.6055 13.1057 94.7737 9.9375 98.668 9.9375C102.562 9.9375 105.73 13.1057 105.73 17C105.73 20.8943 102.562 24.0625 98.668 24.0625Z"/>
</mask>
<path d="M104.318 11.3496C102.803 9.83447 100.797 9 98.668 9C94.2627 9 90.668 12.5952 90.668 17C90.668 18.3035 90.988 19.5902 91.5953 20.7341L90.6818 24.4185C90.6422 24.5779 90.6891 24.7465 90.8053 24.8627C90.9208 24.9783 91.0891 25.026 91.2495 24.9862L94.9338 24.0725C96.0778 24.6798 97.3645 25 98.668 25C100.797 25 102.803 24.1655 104.318 22.6504C105.833 21.1351 106.668 19.1285 106.668 17C106.668 14.8715 105.833 12.8647 104.318 11.3496ZM98.668 24.0625C97.4619 24.0625 96.2725 23.7521 95.2279 23.165C95.1239 23.1066 95.0015 23.09 94.8854 23.1187L91.7789 23.889L92.5492 20.7825C92.578 20.6666 92.5614 20.5441 92.5029 20.4399C91.9158 19.3955 91.6055 18.2061 91.6055 17C91.6055 13.1057 94.7737 9.9375 98.668 9.9375C102.562 9.9375 105.73 13.1057 105.73 17C105.73 20.8943 102.562 24.0625 98.668 24.0625Z" fill="white"/>
<path d="M91.5953 20.7341L92.5659 20.9748L92.6581 20.6033L92.4786 20.2652L91.5953 20.7341ZM90.6818 24.4185L91.6523 24.6592L91.6524 24.6591L90.6818 24.4185ZM90.8053 24.8627L91.5128 24.1559L91.5124 24.1556L90.8053 24.8627ZM91.2495 24.9862L91.0088 24.0156L91.0087 24.0156L91.2495 24.9862ZM94.9338 24.0725L95.4027 23.1893L95.0647 23.0098L94.6931 23.1019L94.9338 24.0725ZM104.318 22.6504L105.025 23.3575L105.025 23.3575L104.318 22.6504ZM95.2279 23.165L94.7378 24.0367L94.738 24.0368L95.2279 23.165ZM94.8854 23.1187L94.6455 22.1479L94.6447 22.1481L94.8854 23.1187ZM91.7789 23.889L90.8083 23.6484L90.409 25.2591L92.0196 24.8596L91.7789 23.889ZM92.5492 20.7825L91.5788 20.5411L91.5786 20.5418L92.5492 20.7825ZM92.5029 20.4399L93.3749 19.9503L93.3746 19.9499L92.5029 20.4399ZM105.025 10.6425C103.324 8.94124 101.064 8 98.668 8V10C100.529 10 102.282 10.7277 103.611 12.0567L105.025 10.6425ZM98.668 8C93.7104 8 89.668 12.043 89.668 17H91.668C91.668 13.1475 94.815 10 98.668 10V8ZM89.668 17C89.668 18.4663 90.0278 19.9141 90.7121 21.203L92.4786 20.2652C91.9483 19.2663 91.668 18.1407 91.668 17H89.668ZM90.6247 20.4935L89.7112 24.1778L91.6524 24.6591L92.5659 20.9748L90.6247 20.4935ZM89.7112 24.1777C89.5872 24.6776 89.7342 25.2058 90.0982 25.5698L91.5124 24.1556C91.644 24.2871 91.6973 24.4782 91.6523 24.6592L89.7112 24.1777ZM90.0978 25.5694C90.4599 25.9318 90.9875 26.0815 91.4903 25.9568L91.0087 24.0156C91.1907 23.9705 91.3817 24.0247 91.5128 24.1559L90.0978 25.5694ZM91.4902 25.9568L95.1745 25.0431L94.6931 23.1019L91.0088 24.0156L91.4902 25.9568ZM94.4649 24.9558C95.7538 25.64 97.2016 26 98.668 26V24C97.5274 24 96.4017 23.7196 95.4027 23.1893L94.4649 24.9558ZM98.668 26C101.064 26 103.324 25.0588 105.025 23.3575L103.611 21.9433C102.282 23.2723 100.529 24 98.668 24V26ZM105.025 23.3575C106.727 21.6561 107.668 19.3958 107.668 17H105.668C105.668 18.8613 104.94 20.6141 103.611 21.9433L105.025 23.3575ZM107.668 17C107.668 14.6043 106.727 12.3438 105.025 10.6425L103.611 12.0567C104.94 13.3857 105.668 15.1387 105.668 17H107.668ZM98.668 23.0625C97.6324 23.0625 96.6118 22.7957 95.7178 22.2933L94.738 24.0368C95.9331 24.7084 97.2914 25.0625 98.668 25.0625V23.0625ZM95.718 22.2934C95.3917 22.1099 95.0082 22.0582 94.6455 22.1479L95.1253 24.0895C94.9947 24.1217 94.8561 24.1032 94.7378 24.0367L95.718 22.2934ZM94.6447 22.1481L91.5382 22.9184L92.0196 24.8596L95.1261 24.0893L94.6447 22.1481ZM92.7495 24.1297L93.5198 21.0231L91.5786 20.5418L90.8083 23.6484L92.7495 24.1297ZM93.5196 21.0238C93.6101 20.6601 93.5578 20.2761 93.3749 19.9503L91.631 20.9296C91.565 20.812 91.5459 20.6731 91.5788 20.5411L93.5196 21.0238ZM93.3746 19.9499C92.8722 19.0561 92.6055 18.0356 92.6055 17H90.6055C90.6055 18.3765 90.9594 19.7349 91.6312 20.93L93.3746 19.9499ZM92.6055 17C92.6055 13.658 95.326 10.9375 98.668 10.9375V8.9375C94.2214 8.9375 90.6055 12.5534 90.6055 17H92.6055ZM98.668 10.9375C102.01 10.9375 104.73 13.658 104.73 17H106.73C106.73 12.5534 103.115 8.9375 98.668 8.9375V10.9375ZM104.73 17C104.73 20.342 102.01 23.0625 98.668 23.0625V25.0625C103.115 25.0625 106.73 21.4466 106.73 17H104.73Z" fill="white" mask="url(#path-4-inside-1_2561_11077)"/>
<mask id="path-6-inside-2_2561_11077" fill="white">
<path d="M102.898 18.4239C102.587 18.1131 102.245 17.7994 101.85 17.6088C101.26 17.3243 100.696 17.4058 100.264 17.8384C100.067 18.0353 99.796 18.4235 99.6402 18.6144C99.2381 18.5472 98.4347 17.8698 98.1157 17.5519C97.798 17.233 97.1211 16.4295 97.0539 16.0282C97.2437 15.8732 97.6332 15.6012 97.83 15.4046C98.2626 14.972 98.3441 14.4085 98.0596 13.8182C97.869 13.4229 97.5553 13.081 97.2448 12.7704C96.6122 12.1246 95.6365 12.077 94.7943 12.9192C94.1649 13.5485 93.6043 14.7151 94.5066 16.6994C95.0405 17.8732 95.901 18.9114 96.3252 19.3399L96.3285 19.3432C96.757 19.7675 97.7952 20.628 98.969 21.1618C100.295 21.7647 101.716 21.9078 102.749 20.8742C103.604 20.0192 103.532 19.0447 102.898 18.4239ZM102.086 20.2112C101.476 20.8217 100.558 20.8544 99.3571 20.3084C98.3031 19.829 97.3488 19.0337 96.9898 18.6786C96.6347 18.3195 95.8394 17.3653 95.36 16.3113C94.814 15.1108 94.8467 14.1926 95.4572 13.5821C95.8135 13.2258 96.2237 13.0677 96.575 13.4264L96.5817 13.4333C97.4138 14.2654 97.3548 14.5539 97.167 14.7416C97.0004 14.9083 96.5078 15.2427 96.3487 15.4019C95.975 15.7754 96.0446 16.3541 96.5553 17.1215C96.8601 17.5796 97.2627 18.0242 97.4527 18.2147L97.4536 18.2157C97.6442 18.4057 98.0886 18.8083 98.5468 19.1131C99.3144 19.6238 99.8928 19.6933 100.266 19.3198C100.426 19.1605 100.76 18.668 100.927 18.5014C101.054 18.3744 101.179 18.326 101.443 18.4534C101.749 18.6011 102.077 18.9291 102.235 19.0867L102.242 19.0934C102.604 19.4476 102.443 19.8548 102.086 20.2112Z"/>
</mask>
<path d="M102.898 18.4239C102.587 18.1131 102.245 17.7994 101.85 17.6088C101.26 17.3243 100.696 17.4058 100.264 17.8384C100.067 18.0353 99.796 18.4235 99.6402 18.6144C99.2381 18.5472 98.4347 17.8698 98.1157 17.5519C97.798 17.233 97.1211 16.4295 97.0539 16.0282C97.2437 15.8732 97.6332 15.6012 97.83 15.4046C98.2626 14.972 98.3441 14.4085 98.0596 13.8182C97.869 13.4229 97.5553 13.081 97.2448 12.7704C96.6122 12.1246 95.6365 12.077 94.7943 12.9192C94.1649 13.5485 93.6043 14.7151 94.5066 16.6994C95.0405 17.8732 95.901 18.9114 96.3252 19.3399L96.3285 19.3432C96.757 19.7675 97.7952 20.628 98.969 21.1618C100.295 21.7647 101.716 21.9078 102.749 20.8742C103.604 20.0192 103.532 19.0447 102.898 18.4239ZM102.086 20.2112C101.476 20.8217 100.558 20.8544 99.3571 20.3084C98.3031 19.829 97.3488 19.0337 96.9898 18.6786C96.6347 18.3195 95.8394 17.3653 95.36 16.3113C94.814 15.1108 94.8467 14.1926 95.4572 13.5821C95.8135 13.2258 96.2237 13.0677 96.575 13.4264L96.5817 13.4333C97.4138 14.2654 97.3548 14.5539 97.167 14.7416C97.0004 14.9083 96.5078 15.2427 96.3487 15.4019C95.975 15.7754 96.0446 16.3541 96.5553 17.1215C96.8601 17.5796 97.2627 18.0242 97.4527 18.2147L97.4536 18.2157C97.6442 18.4057 98.0886 18.8083 98.5468 19.1131C99.3144 19.6238 99.8928 19.6933 100.266 19.3198C100.426 19.1605 100.76 18.668 100.927 18.5014C101.054 18.3744 101.179 18.326 101.443 18.4534C101.749 18.6011 102.077 18.9291 102.235 19.0867L102.242 19.0934C102.604 19.4476 102.443 19.8548 102.086 20.2112Z" fill="white"/>
<path d="M101.85 17.6088L102.285 16.7081L102.284 16.708L101.85 17.6088ZM99.6402 18.6144L99.4752 19.6007L100.048 19.6965L100.415 19.2469L99.6402 18.6144ZM98.1157 17.5519L97.4073 18.2577L97.4099 18.2603L98.1157 17.5519ZM97.0539 16.0282L96.4213 15.2537L95.9716 15.621L96.0676 16.1936L97.0539 16.0282ZM97.83 15.4046L98.5369 16.1119L98.5371 16.1117L97.83 15.4046ZM98.0596 13.8182L98.9604 13.384L98.9604 13.3839L98.0596 13.8182ZM97.2448 12.7704L96.5303 13.4702L96.5377 13.4775L97.2448 12.7704ZM94.7943 12.9192L95.5014 13.6264L95.5015 13.6263L94.7943 12.9192ZM94.5066 16.6994L93.5963 17.1134L93.5964 17.1134L94.5066 16.6994ZM96.3252 19.3399L95.6146 20.0435L95.6181 20.047L96.3252 19.3399ZM96.3285 19.3432L95.6214 20.0503L95.6249 20.0537L96.3285 19.3432ZM98.969 21.1618L99.383 20.2515L99.383 20.2515L98.969 21.1618ZM102.749 20.8742L103.456 21.5813L103.456 21.5813L102.749 20.8742ZM99.3571 20.3084L98.9431 21.2187L98.9431 21.2187L99.3571 20.3084ZM96.9898 18.6786L96.2786 19.3818L96.2865 19.3896L96.9898 18.6786ZM95.36 16.3113L94.4497 16.7253L94.4497 16.7253L95.36 16.3113ZM96.575 13.4264L95.8605 14.1261L95.8615 14.1272L96.575 13.4264ZM96.5817 13.4333L95.8682 14.134L95.8746 14.1404L96.5817 13.4333ZM96.3487 15.4019L97.0556 16.1091L97.0558 16.109L96.3487 15.4019ZM96.5553 17.1215L97.3879 16.5676L97.3878 16.5675L96.5553 17.1215ZM97.4527 18.2147L98.2001 17.5503L98.181 17.5288L98.1607 17.5085L97.4527 18.2147ZM97.4536 18.2157L96.7062 18.8801L96.7263 18.9027L96.7477 18.924L97.4536 18.2157ZM98.5468 19.1131L99.1007 18.2806L99.1007 18.2805L98.5468 19.1131ZM101.443 18.4534L101.009 19.3542L101.009 19.3542L101.443 18.4534ZM102.235 19.0867L101.528 19.7941L101.534 19.8002L102.235 19.0867ZM102.242 19.0934L101.541 19.8069L101.542 19.8079L102.242 19.0934ZM103.605 17.7169C103.289 17.4002 102.845 16.9781 102.285 16.7081L101.416 18.5096C101.646 18.6206 101.886 18.826 102.191 19.1308L103.605 17.7169ZM102.284 16.708C101.843 16.495 101.353 16.3928 100.855 16.465C100.351 16.5379 99.9095 16.7786 99.5567 17.1313L100.971 18.5455C101.051 18.4657 101.107 18.4493 101.141 18.4444C101.18 18.4388 101.267 18.438 101.416 18.5097L102.284 16.708ZM99.5567 17.1313C99.4064 17.2817 99.2533 17.4767 99.1437 17.6194C99.0103 17.7929 98.9319 17.9008 98.8656 17.982L100.415 19.2469C100.504 19.1372 100.639 18.9555 100.73 18.838C100.844 18.6896 100.924 18.5921 100.971 18.5455L99.5567 17.1313ZM99.8051 17.6281C99.8826 17.6411 99.8813 17.658 99.772 17.5958C99.6834 17.5453 99.5714 17.4703 99.4455 17.3762C99.1922 17.1868 98.9474 16.969 98.8216 16.8436L97.4099 18.2603C97.603 18.4528 97.9195 18.7325 98.2481 18.9781C98.4132 19.1015 98.5973 19.2283 98.7823 19.3337C98.9468 19.4274 99.1966 19.5541 99.4752 19.6007L99.8051 17.6281ZM98.8242 16.8462C98.699 16.7205 98.4812 16.4757 98.292 16.2224C98.1979 16.0965 98.1229 15.9844 98.0724 15.8958C98.0101 15.7865 98.0271 15.7853 98.0401 15.8629L96.0676 16.1936C96.1143 16.4718 96.241 16.7215 96.3345 16.8857C96.4398 17.0705 96.5665 17.2545 96.6898 17.4195C96.9352 17.748 97.2148 18.0644 97.4073 18.2577L98.8242 16.8462ZM97.6864 16.8028C97.767 16.737 97.8749 16.6585 98.0486 16.525C98.1914 16.4153 98.3866 16.2621 98.5369 16.1119L97.1231 14.6973C97.0765 14.7438 96.9786 14.8249 96.83 14.9391C96.7123 15.0295 96.5306 15.1645 96.4213 15.2537L97.6864 16.8028ZM98.5371 16.1117C98.8899 15.7589 99.1305 15.3175 99.2034 14.8138C99.2756 14.3149 99.1734 13.8258 98.9604 13.384L97.1588 14.2524C97.2303 14.4009 97.2296 14.4886 97.224 14.5273C97.2191 14.561 97.2027 14.6176 97.1229 14.6975L98.5371 16.1117ZM98.9604 13.3839C98.6903 12.8237 98.2681 12.3796 97.9519 12.0633L96.5377 13.4775C96.8425 13.7824 97.0478 14.0221 97.1588 14.2524L98.9604 13.3839ZM97.9592 12.0707C97.4664 11.5676 96.8016 11.2656 96.0686 11.2872C95.3387 11.3088 94.6525 11.6467 94.0872 12.2122L95.5015 13.6263C95.7783 13.3495 96.0011 13.2901 96.1277 13.2863C96.2512 13.2827 96.3905 13.3274 96.5303 13.4701L97.9592 12.0707ZM94.0873 12.2121C93.6561 12.6431 93.238 13.272 93.0905 14.1322C92.9434 14.9898 93.0817 15.9817 93.5963 17.1134L95.4169 16.2854C95.0292 15.4328 94.9967 14.8493 95.0617 14.4702C95.1263 14.0937 95.3031 13.8246 95.5014 13.6264L94.0873 12.2121ZM93.5964 17.1134C94.1926 18.4243 95.1336 19.5577 95.6146 20.0434L97.0359 18.6363C96.6684 18.2652 95.8885 17.3221 95.4169 16.2853L93.5964 17.1134ZM95.6181 20.047L95.6214 20.0503L97.0356 18.6361L97.0323 18.6328L95.6181 20.047ZM95.6249 20.0537C96.1107 20.5349 97.2441 21.4759 98.555 22.0721L99.383 20.2515C98.3463 19.78 97.4032 19.0001 97.0322 18.6327L95.6249 20.0537ZM98.555 22.0721C100.013 22.7351 101.974 23.0638 103.456 21.5813L102.042 20.167C101.457 20.7517 100.576 20.7943 99.383 20.2515L98.555 22.0721ZM103.456 21.5813C104.03 21.0075 104.365 20.3156 104.382 19.5837C104.398 18.8516 104.092 18.1933 103.598 17.7094L102.198 19.1384C102.338 19.2753 102.385 19.4147 102.382 19.5388C102.379 19.663 102.323 19.8859 102.042 20.1671L103.456 21.5813ZM101.379 19.5041C101.211 19.6726 100.826 19.8777 99.7711 19.3981L98.9431 21.2187C100.29 21.8311 101.741 21.9708 102.793 20.9183L101.379 19.5041ZM99.7711 19.3981C98.8555 18.9817 97.9963 18.2677 97.693 17.9677L96.2865 19.3896C96.7012 19.7998 97.7507 20.6763 98.9431 21.2187L99.7711 19.3981ZM97.7009 17.9755C97.4007 17.6719 96.6867 16.8128 96.2703 15.8973L94.4497 16.7253C94.9921 17.9178 95.8687 18.9671 96.2787 19.3817L97.7009 17.9755ZM96.2703 15.8973C95.7907 14.8429 95.9958 14.4576 96.1643 14.2892L94.7501 12.875C93.6976 13.9275 93.8373 15.3787 94.4497 16.7253L96.2703 15.8973ZM96.1643 14.2892C96.2136 14.2398 96.2487 14.2139 96.2662 14.2028C96.2845 14.1913 96.2683 14.2056 96.2191 14.2157C96.1631 14.2272 96.0824 14.2291 95.9959 14.2012C95.9116 14.1741 95.8679 14.1336 95.8605 14.1261L97.2895 12.7268C96.8918 12.3207 96.3622 12.1446 95.8168 12.2565C95.3512 12.3521 94.9912 12.6338 94.7501 12.875L96.1643 14.2892ZM95.8615 14.1272L95.8682 14.134L97.2951 12.7326L97.2884 12.7257L95.8615 14.1272ZM95.8746 14.1404C96.0607 14.3265 96.1766 14.4622 96.2462 14.5564C96.3188 14.6547 96.3192 14.6788 96.3071 14.6421C96.2904 14.5916 96.2637 14.4637 96.3101 14.3009C96.354 14.1468 96.4368 14.0577 96.4599 14.0345L97.8741 15.4487C97.9911 15.3317 98.1517 15.1361 98.2335 14.8491C98.3177 14.5535 98.289 14.2662 98.2066 14.0161C98.0621 13.5779 97.7195 13.1569 97.2888 12.7262L95.8746 14.1404ZM96.4599 14.0345C96.4615 14.033 96.4378 14.0552 96.3692 14.1097C96.3074 14.1588 96.2343 14.2144 96.1506 14.2779C96.0711 14.3382 95.9804 14.4069 95.8995 14.471C95.8261 14.5291 95.7257 14.6107 95.6415 14.6948L97.0558 16.109C97.0512 16.1136 97.0721 16.0936 97.141 16.039C97.2024 15.9904 97.2751 15.9352 97.3595 15.8712C97.4396 15.8104 97.5309 15.7411 97.6133 15.6757C97.6888 15.6157 97.7893 15.5336 97.8741 15.4487L96.4599 14.0345ZM95.6417 14.6947C95.2142 15.122 95.0605 15.6759 95.1275 16.2333C95.1885 16.7412 95.4264 17.2301 95.7228 17.6755L97.3878 16.5675C97.1735 16.2455 97.1212 16.0613 97.1132 15.9946C97.1103 15.9709 97.1162 15.9868 97.1038 16.0253C97.0905 16.0668 97.0683 16.0964 97.0556 16.1091L95.6417 14.6947ZM95.7228 17.6754C96.075 18.2049 96.5249 18.7005 96.7446 18.9208L98.1607 17.5085C98.0006 17.3479 97.6452 16.9544 97.3879 16.5676L95.7228 17.6754ZM96.7052 18.879L96.7062 18.8801L98.201 17.5514L98.2001 17.5503L96.7052 18.879ZM96.7477 18.924C96.9678 19.1435 97.4633 19.5933 97.9928 19.9457L99.1007 18.2805C98.714 18.0232 98.3205 17.6679 98.1596 17.5075L96.7477 18.924ZM97.9928 19.9456C98.4383 20.2421 98.9272 20.4799 99.435 20.5409C99.9925 20.6079 100.546 20.4541 100.973 20.0269L99.5593 18.6126C99.5719 18.6 99.6016 18.5778 99.643 18.5645C99.6815 18.5522 99.6974 18.558 99.6736 18.5552C99.607 18.5472 99.4228 18.4948 99.1007 18.2806L97.9928 19.9456ZM100.973 20.0269C101.058 19.9427 101.139 19.8423 101.197 19.7689C101.261 19.6879 101.33 19.5972 101.39 19.5178C101.454 19.434 101.509 19.361 101.559 19.2992C101.613 19.2306 101.635 19.2069 101.634 19.2085L100.22 17.7943C100.135 17.8792 100.053 17.9796 99.9926 18.0551C99.9272 18.1375 99.8579 18.2288 99.7971 18.3088C99.7331 18.3932 99.6779 18.4659 99.6293 18.5274C99.5747 18.5963 99.5548 18.6172 99.5593 18.6126L100.973 20.0269ZM101.634 19.2085C101.631 19.211 101.508 19.337 101.282 19.3709C101.078 19.4016 100.959 19.3304 101.009 19.3542L101.877 17.5527C101.662 17.449 101.349 17.3383 100.985 17.3931C100.599 17.4511 100.349 17.6648 100.22 17.7943L101.634 19.2085ZM101.009 19.3542C101.046 19.372 101.127 19.4251 101.244 19.5252C101.352 19.6179 101.449 19.7147 101.528 19.7941L102.942 18.3793C102.817 18.2543 102.366 17.7884 101.877 17.5526L101.009 19.3542ZM101.534 19.8002L101.541 19.8069L102.943 18.38L102.936 18.3733L101.534 19.8002ZM101.542 19.8079C101.536 19.8021 101.496 19.7592 101.469 19.6746C101.441 19.5874 101.442 19.5056 101.454 19.4483C101.465 19.3982 101.479 19.3816 101.468 19.4002C101.456 19.4181 101.43 19.4537 101.379 19.5041L102.793 20.9183C103.032 20.6797 103.316 20.3208 103.413 19.8546C103.526 19.306 103.347 18.7764 102.942 18.379L101.542 19.8079Z" fill="white" mask="url(#path-6-inside-2_2561_11077)"/>
</g>
<g clip-path="url(#clip3_2561_11077)">
<mask id="path-8-inside-3_2561_11077" fill="white">
<path d="M136.644 10.5894C136.448 10.3503 136.155 10.2188 135.819 10.2188C135.636 10.2188 135.443 10.2572 135.244 10.3333L121.7 15.5033C120.981 15.7776 120.885 16.1892 120.891 16.4102C120.897 16.6311 121.017 17.0366 121.75 17.2699C121.755 17.2712 121.759 17.2726 121.763 17.2738L124.573 18.0778L126.092 22.4222C126.299 23.0145 126.764 23.3824 127.306 23.3824C127.647 23.3824 127.983 23.2394 128.277 22.9689L130.015 21.3689L132.535 23.3983C132.535 23.3986 132.536 23.3987 132.536 23.3989L132.56 23.4182C132.562 23.4199 132.564 23.4218 132.566 23.4235C132.847 23.6407 133.152 23.7555 133.451 23.7556H133.451C134.035 23.7556 134.5 23.3236 134.635 22.6552L136.854 11.6976C136.943 11.2578 136.868 10.8643 136.644 10.5894ZM125.513 17.925L130.933 15.1561L127.558 18.7422C127.502 18.8009 127.463 18.8728 127.444 18.951L126.793 21.587L125.513 17.925ZM127.642 22.2792C127.619 22.2998 127.597 22.3182 127.574 22.3352L128.178 19.8899L129.276 20.7743L127.642 22.2792ZM135.935 11.5115L133.716 22.4691C133.695 22.574 133.626 22.818 133.451 22.818C133.364 22.818 133.256 22.7708 133.144 22.6849L130.288 20.3854C130.288 20.385 130.287 20.3846 130.287 20.3844L128.587 19.016L133.468 13.8301C133.624 13.6641 133.638 13.4098 133.501 13.2274C133.365 13.045 133.116 12.9877 132.913 13.0914L124.886 17.1923L122.039 16.3776L135.578 11.2091C135.693 11.1654 135.772 11.1562 135.819 11.1562C135.848 11.1562 135.899 11.1597 135.918 11.183C135.943 11.2134 135.975 11.317 135.935 11.5115Z"/>
</mask>
<path d="M136.644 10.5894C136.448 10.3503 136.155 10.2188 135.819 10.2188C135.636 10.2188 135.443 10.2572 135.244 10.3333L121.7 15.5033C120.981 15.7776 120.885 16.1892 120.891 16.4102C120.897 16.6311 121.017 17.0366 121.75 17.2699C121.755 17.2712 121.759 17.2726 121.763 17.2738L124.573 18.0778L126.092 22.4222C126.299 23.0145 126.764 23.3824 127.306 23.3824C127.647 23.3824 127.983 23.2394 128.277 22.9689L130.015 21.3689L132.535 23.3983C132.535 23.3986 132.536 23.3987 132.536 23.3989L132.56 23.4182C132.562 23.4199 132.564 23.4218 132.566 23.4235C132.847 23.6407 133.152 23.7555 133.451 23.7556H133.451C134.035 23.7556 134.5 23.3236 134.635 22.6552L136.854 11.6976C136.943 11.2578 136.868 10.8643 136.644 10.5894ZM125.513 17.925L130.933 15.1561L127.558 18.7422C127.502 18.8009 127.463 18.8728 127.444 18.951L126.793 21.587L125.513 17.925ZM127.642 22.2792C127.619 22.2998 127.597 22.3182 127.574 22.3352L128.178 19.8899L129.276 20.7743L127.642 22.2792ZM135.935 11.5115L133.716 22.4691C133.695 22.574 133.626 22.818 133.451 22.818C133.364 22.818 133.256 22.7708 133.144 22.6849L130.288 20.3854C130.288 20.385 130.287 20.3846 130.287 20.3844L128.587 19.016L133.468 13.8301C133.624 13.6641 133.638 13.4098 133.501 13.2274C133.365 13.045 133.116 12.9877 132.913 13.0914L124.886 17.1923L122.039 16.3776L135.578 11.2091C135.693 11.1654 135.772 11.1562 135.819 11.1562C135.848 11.1562 135.899 11.1597 135.918 11.183C135.943 11.2134 135.975 11.317 135.935 11.5115Z" fill="white"/>
<path d="M135.244 10.3333L135.601 11.2675L135.601 11.2673L135.244 10.3333ZM121.7 15.5033L122.057 16.4376L122.057 16.4375L121.7 15.5033ZM121.75 17.2699L121.447 18.2229L121.458 18.2262L121.75 17.2699ZM121.763 17.2738L122.039 16.3124L122.031 16.3103L121.763 17.2738ZM124.573 18.0778L125.517 17.7477L125.346 17.2588L124.848 17.1164L124.573 18.0778ZM126.092 22.4222L125.148 22.7523L125.148 22.7524L126.092 22.4222ZM128.277 22.9689L128.954 23.7047L128.954 23.7045L128.277 22.9689ZM130.015 21.3689L130.642 20.59L129.971 20.0498L129.337 20.6332L130.015 21.3689ZM132.535 23.3983L133.242 22.6912L133.204 22.6532L133.162 22.6194L132.535 23.3983ZM132.536 23.3989L131.829 24.106L131.867 24.1439L131.908 24.1775L132.536 23.3989ZM132.56 23.4182L131.932 24.1968L131.939 24.2022L131.946 24.2076L132.56 23.4182ZM132.566 23.4235L131.952 24.2128L131.954 24.2136L132.566 23.4235ZM133.451 23.7556L133.451 24.7556H133.451V23.7556ZM134.635 22.6552L135.615 22.8536L134.635 22.6552ZM136.854 11.6976L135.874 11.4991L135.874 11.4991L136.854 11.6976ZM125.513 17.925L125.058 17.0345L124.281 17.4315L124.569 18.2552L125.513 17.925ZM130.933 15.1561L131.661 15.8415L130.478 14.2656L130.933 15.1561ZM127.558 18.7422L128.286 19.4278L128.286 19.4275L127.558 18.7422ZM127.444 18.951L128.415 19.1907L128.415 19.1904L127.444 18.951ZM126.793 21.587L125.849 21.9171L126.959 25.0893L127.764 21.8267L126.793 21.587ZM127.642 22.2792L128.318 23.0157L128.319 23.0148L127.642 22.2792ZM127.574 22.3352L126.603 22.0955L125.93 24.8211L128.175 23.1347L127.574 22.3352ZM128.178 19.8899L128.805 19.111L127.583 18.127L127.207 19.6502L128.178 19.8899ZM129.276 20.7743L129.954 21.5099L130.808 20.7236L129.903 19.9954L129.276 20.7743ZM133.716 22.4691L134.696 22.6687L134.696 22.6676L133.716 22.4691ZM133.144 22.6849L132.517 23.4638L132.525 23.4706L132.534 23.4773L133.144 22.6849ZM130.288 20.3854L129.581 21.0925L129.619 21.1305L129.661 21.1643L130.288 20.3854ZM130.287 20.3844L129.66 21.1633L129.743 21.2307L129.84 21.2788L130.287 20.3844ZM128.587 19.016L127.859 18.3307L127.119 19.1173L127.96 19.7949L128.587 19.016ZM133.468 13.8301L132.74 13.1447L132.74 13.1447L133.468 13.8301ZM133.501 13.2274L134.301 12.6272L134.301 12.6269L133.501 13.2274ZM132.913 13.0914L133.368 13.982L133.368 13.9819L132.913 13.0914ZM124.886 17.1923L124.611 18.1537L124.99 18.2621L125.341 18.0828L124.886 17.1923ZM122.039 16.3776L121.682 15.4433L118.879 16.5135L121.764 17.339L122.039 16.3776ZM135.578 11.2091L135.935 12.1434L135.935 12.1432L135.578 11.2091ZM135.918 11.183L135.141 11.8131L135.144 11.8167L135.918 11.183ZM137.418 9.95635C137.014 9.46249 136.425 9.21875 135.819 9.21875V11.2187C135.856 11.2187 135.873 11.2258 135.874 11.2265C135.875 11.227 135.875 11.2268 135.873 11.2254C135.871 11.2241 135.87 11.2228 135.869 11.2224L137.418 9.95635ZM135.819 9.21875C135.496 9.21875 135.182 9.28648 134.887 9.39916L135.601 11.2673C135.704 11.2279 135.777 11.2187 135.819 11.2187V9.21875ZM134.887 9.39901L121.344 14.5691L122.057 16.4375L135.601 11.2675L134.887 9.39901ZM121.344 14.569C120.842 14.7604 120.453 15.0409 120.2 15.4103C119.944 15.7828 119.883 16.1601 119.891 16.4383L121.89 16.382C121.891 16.4082 121.889 16.4374 121.881 16.468C121.872 16.5002 121.86 16.526 121.848 16.5431C121.82 16.5829 121.84 16.5204 122.057 16.4376L121.344 14.569ZM119.891 16.4383C119.899 16.7168 119.981 17.0901 120.257 17.4475C120.532 17.802 120.935 18.06 121.447 18.2228L122.053 16.317C121.832 16.2465 121.809 16.1851 121.839 16.2233C121.851 16.2397 121.866 16.2648 121.876 16.2965C121.886 16.3266 121.89 16.3557 121.89 16.382L119.891 16.4383ZM121.458 18.2262C121.46 18.2269 121.477 18.2321 121.496 18.2373L122.031 16.3103C122.037 16.3119 122.041 16.3132 122.043 16.3137C122.044 16.3141 122.045 16.3144 122.042 16.3135L121.458 18.2262ZM121.488 18.2352L124.298 19.0392L124.848 17.1164L122.039 16.3124L121.488 18.2352ZM123.629 18.4079L125.148 22.7523L127.036 22.0921L125.517 17.7477L123.629 18.4079ZM125.148 22.7524C125.466 23.6624 126.257 24.3824 127.306 24.3824V22.3824C127.27 22.3824 127.235 22.3728 127.194 22.3402C127.149 22.3048 127.084 22.2301 127.036 22.0921L125.148 22.7524ZM127.306 24.3824C127.94 24.3824 128.509 24.1142 128.954 23.7047L127.6 22.233C127.457 22.3646 127.354 22.3824 127.306 22.3824V24.3824ZM128.954 23.7045L130.692 22.1045L129.337 20.6332L127.6 22.2332L128.954 23.7045ZM129.387 22.1478L131.908 24.1772L133.162 22.6194L130.642 20.59L129.387 22.1478ZM131.828 24.1054C131.857 24.1348 131.885 24.159 131.909 24.1782C131.933 24.1974 131.954 24.2126 131.97 24.2238C131.987 24.2349 132 24.2434 132.008 24.2484C132.012 24.2509 132.016 24.253 132.018 24.2542C132.019 24.2548 132.02 24.2553 132.02 24.2556C132.02 24.2558 132.021 24.2559 132.021 24.256C132.021 24.256 132.021 24.2561 132.021 24.2561C132.021 24.2561 132.021 24.2561 132.021 24.2561C132.021 24.2561 132.021 24.2561 132.021 24.2561C132.021 24.2563 132.02 24.2554 132.018 24.2543C132.016 24.253 132.012 24.251 132.008 24.2485C132 24.2436 131.987 24.2351 131.971 24.2241C131.955 24.2129 131.933 24.1977 131.91 24.1786C131.886 24.1594 131.858 24.1353 131.829 24.106L133.243 22.6919C133.214 22.6625 133.186 22.6383 133.162 22.6191C133.138 22.5999 133.117 22.5847 133.1 22.5735C133.084 22.5623 133.071 22.5539 133.063 22.5489C133.058 22.5463 133.055 22.5443 133.053 22.5431C133.052 22.5424 133.051 22.5419 133.051 22.5416C133.05 22.5415 133.05 22.5413 133.05 22.5412C133.05 22.5412 133.05 22.5412 133.05 22.5412C133.05 22.5411 133.05 22.5411 133.05 22.5411C133.05 22.5411 133.05 22.5411 133.05 22.5411C133.05 22.541 133.051 22.5419 133.053 22.543C133.055 22.5442 133.058 22.5462 133.062 22.5487C133.07 22.5537 133.084 22.5621 133.1 22.5732C133.116 22.5843 133.137 22.5995 133.161 22.6186C133.185 22.6378 133.213 22.6619 133.242 22.6912L131.828 24.1054ZM131.908 24.1775L131.932 24.1968L133.187 22.6397L133.163 22.6204L131.908 24.1775ZM131.946 24.2076C131.945 24.2071 131.945 24.2068 131.946 24.2079C131.947 24.2086 131.95 24.2106 131.952 24.2128L133.18 22.6341C133.181 22.6346 133.181 22.6349 133.18 22.6338C133.179 22.6331 133.176 22.6311 133.174 22.6289L131.946 24.2076ZM131.954 24.2136C132.375 24.5407 132.891 24.7554 133.451 24.7556L133.451 22.7556C133.414 22.7556 133.318 22.7408 133.179 22.6333L131.954 24.2136ZM133.451 24.7556H133.451V22.7556H133.451V24.7556ZM133.451 24.7556C134.616 24.7556 135.408 23.8772 135.615 22.8536L133.655 22.4567C133.623 22.6157 133.562 22.6937 133.53 22.7237C133.504 22.7481 133.483 22.7556 133.451 22.7556V24.7556ZM135.615 22.8536L137.834 11.8961L135.874 11.4991L133.655 22.4567L135.615 22.8536ZM137.834 11.8962C137.966 11.2467 137.881 10.5228 137.418 9.95623L135.87 11.2225C135.856 11.2058 135.921 11.2689 135.874 11.4991L137.834 11.8962ZM125.968 18.8156L131.388 16.0467L130.478 14.2656L125.058 17.0345L125.968 18.8156ZM130.204 14.4708L126.83 18.0568L128.286 19.4275L131.661 15.8415L130.204 14.4708ZM126.83 18.0566C126.657 18.2404 126.534 18.4659 126.473 18.7117L128.415 19.1904C128.393 19.2797 128.348 19.3614 128.286 19.4278L126.83 18.0566ZM126.473 18.7114L125.822 21.3474L127.764 21.8267L128.415 19.1907L126.473 18.7114ZM127.737 21.2569L126.457 17.5949L124.569 18.2552L125.849 21.9171L127.737 21.2569ZM126.965 21.5427C126.97 21.538 126.974 21.5355 126.973 21.5357L128.175 23.1347C128.22 23.101 128.268 23.0616 128.318 23.0157L126.965 21.5427ZM128.545 22.5749L129.149 20.1296L127.207 19.6502L126.603 22.0955L128.545 22.5749ZM127.551 20.6688L128.649 21.5532L129.903 19.9954L128.805 19.111L127.551 20.6688ZM128.599 20.0386L126.964 21.5435L128.319 23.0148L129.954 21.5099L128.599 20.0386ZM134.955 11.313L132.736 22.2706L134.696 22.6676L136.915 11.71L134.955 11.313ZM132.736 22.2695C132.736 22.2689 132.736 22.2683 132.737 22.2675C132.737 22.2668 132.737 22.2645 132.739 22.2607C132.74 22.2567 132.748 22.231 132.77 22.1929C132.789 22.1586 132.842 22.0732 132.948 21.99C133.068 21.8961 133.243 21.818 133.451 21.818V23.818C134.082 23.818 134.407 23.3622 134.513 23.1729C134.631 22.9634 134.678 22.7561 134.696 22.6687L132.736 22.2695ZM133.451 21.818C133.583 21.818 133.671 21.8517 133.705 21.8662C133.742 21.8825 133.758 21.8955 133.754 21.8926L132.534 23.4773C132.719 23.62 133.043 23.818 133.451 23.818V21.818ZM133.771 21.906L130.915 19.6065L129.661 21.1643L132.517 23.4638L133.771 21.906ZM130.995 19.6783C130.927 19.6099 130.84 19.5431 130.734 19.49L129.84 21.2788C129.782 21.2502 129.735 21.2194 129.696 21.1913C129.657 21.1629 129.619 21.1301 129.581 21.0925L130.995 19.6783ZM130.914 19.6055L129.215 18.2371L127.96 19.7949L129.66 21.1633L130.914 19.6055ZM129.316 19.7013L134.196 14.5154L132.74 13.1447L127.859 18.3307L129.316 19.7013ZM134.196 14.5154C134.686 13.9953 134.73 13.1985 134.301 12.6272L132.702 13.8276C132.547 13.6211 132.563 13.3329 132.74 13.1447L134.196 14.5154ZM134.301 12.6269C133.872 12.0558 133.095 11.8758 132.458 12.201L133.368 13.9819C133.138 14.0996 132.857 14.0343 132.702 13.8279L134.301 12.6269ZM132.458 12.2009L124.431 16.3017L125.341 18.0828L133.368 13.982L132.458 12.2009ZM125.161 16.2308L122.314 15.4161L121.764 17.339L124.611 18.1537L125.161 16.2308ZM122.395 17.3118L135.935 12.1434L135.222 10.2749L121.682 15.4433L122.395 17.3118ZM135.935 12.1432C135.947 12.1389 135.906 12.1562 135.819 12.1562V10.1563C135.639 10.1563 135.439 10.1919 135.221 10.275L135.935 12.1432ZM135.819 12.1562C135.804 12.1562 135.749 12.1562 135.675 12.1412C135.636 12.1334 135.567 12.1167 135.484 12.0788C135.404 12.0425 135.265 11.9655 135.141 11.8131L136.694 10.5529C136.452 10.2539 136.129 10.1926 136.07 10.1806C135.958 10.158 135.863 10.1563 135.819 10.1563V12.1562ZM135.144 11.8167C135.051 11.7032 135.009 11.5978 134.991 11.5453C134.97 11.4832 134.961 11.4324 134.957 11.3985C134.949 11.3304 134.958 11.2986 134.955 11.3133L136.915 11.7096C136.952 11.5299 136.964 11.349 136.944 11.1729C136.928 11.0326 136.879 10.778 136.691 10.5492L135.144 11.8167Z" fill="white" mask="url(#path-8-inside-3_2561_11077)"/>
</g>
<path d="M166.51 16.464C166.51 13.1887 163.227 10.524 159.191 10.524C155.155 10.524 151.871 13.1887 151.871 16.464C151.871 19.4003 154.475 21.8594 157.993 22.3245C158.231 22.3758 158.555 22.4816 158.638 22.6854C158.711 22.8704 158.686 23.1603 158.661 23.3472C158.661 23.3472 158.575 23.8638 158.557 23.9738C158.525 24.1589 158.41 24.6975 159.191 24.3683C159.972 24.0392 163.406 21.8862 164.942 20.1186C166.003 18.9554 166.51 17.7749 166.51 16.464Z" stroke="white" stroke-width="0.5"/>
<path d="M192.664 12.9997L191.331 10.333H187.331L185.997 12.9997M193.331 12.9997H185.331C183.864 12.9997 182.664 14.1997 182.664 15.6663V20.9997C182.664 22.4663 183.864 23.6663 185.331 23.6663H193.331C194.797 23.6663 195.997 22.4663 195.997 20.9997V15.6663C195.997 14.1997 194.797 12.9997 193.331 12.9997ZM189.331 20.9997C187.864 20.9997 186.664 19.7997 186.664 18.333C186.664 16.8663 187.864 15.6663 189.331 15.6663C190.797 15.6663 191.997 16.8663 191.997 18.333C191.997 19.7997 190.797 20.9997 189.331 20.9997Z" stroke="white" stroke-linecap="round"/>
<path d="M219.889 23.6663H214.556C213.823 23.6663 213.223 23.0663 213.223 22.333V16.9997C213.223 13.333 216.223 10.333 219.889 10.333C223.556 10.333 226.556 13.333 226.556 16.9997C226.556 20.733 223.623 23.6663 219.889 23.6663Z" stroke="white" stroke-miterlimit="10" stroke-linecap="round" stroke-linejoin="round"/>
<path d="M216.724 16.9997C216.724 17.0917 216.649 17.1663 216.557 17.1663C216.465 17.1663 216.391 17.0917 216.391 16.9997C216.391 16.9076 216.465 16.833 216.557 16.833C216.649 16.833 216.724 16.9076 216.724 16.9997Z" fill="white" stroke="white"/>
<path d="M223.388 16.9997C223.388 17.0917 223.313 17.1663 223.221 17.1663C223.129 17.1663 223.055 17.0917 223.055 16.9997C223.055 16.9076 223.129 16.833 223.221 16.833C223.313 16.833 223.388 16.9076 223.388 16.9997Z" fill="white" stroke="white"/>
<path d="M220.056 16.9997C220.056 17.0917 219.981 17.1663 219.889 17.1663C219.797 17.1663 219.723 17.0917 219.723 16.9997C219.723 16.9076 219.797 16.833 219.889 16.833C219.981 16.833 220.056 16.9076 220.056 16.9997Z" fill="white" stroke="white"/>
<path d="M251.952 21.1731L253.573 19.5525C254.03 19.0956 254.749 19.032 255.279 19.4017L257.04 20.6302C257.721 21.105 257.807 22.0797 257.22 22.6666L257.044 22.8432C256.728 23.1589 256.277 23.2955 255.848 23.1725C254.449 22.7715 251.186 21.6117 248.533 18.9585C245.88 16.3053 244.72 13.0421 244.319 11.6431C244.196 11.2139 244.332 10.7633 244.648 10.4477L244.825 10.2711C245.411 9.68418 246.386 9.77037 246.861 10.4511L248.09 12.2126C248.459 12.7426 248.396 13.4613 247.939 13.9181L246.318 15.5388" stroke="white"/>
<path fill-rule="evenodd" clip-rule="evenodd" d="M280.894 23.4585C280.894 23.4585 285.788 19.5433 285.788 14.894C285.788 12.1911 283.597 10 280.894 10C278.191 10 276 12.1911 276 14.894C276 19.5433 280.894 23.4585 280.894 23.4585Z" stroke="white"/>
<path fill-rule="evenodd" clip-rule="evenodd" d="M280.894 17.3412C282.245 17.3412 283.341 16.2456 283.341 14.8942C283.341 13.5428 282.245 12.4472 280.894 12.4472C279.543 12.4472 278.447 13.5428 278.447 14.8942C278.447 16.2456 279.543 17.3412 280.894 17.3412Z" stroke="white"/>
<defs>
<clipPath id="clip0_2561_11077">
<rect width="16" height="16" fill="white" transform="translate(0 9)"/>
</clipPath>
<clipPath id="clip1_2561_11077">
<rect width="16" height="16" fill="white" transform="translate(30.2227 9)"/>
</clipPath>
<clipPath id="clip2_2561_11077">
<rect width="16" height="16" fill="white" transform="translate(90.668 9)"/>
</clipPath>
<clipPath id="clip3_2561_11077">
<rect width="16" height="16" fill="white" transform="translate(120.891 9)"/>
</clipPath>
</defs>
</svg>
