<svg width="90" height="40" viewBox="0 0 90 40" fill="none" xmlns="http://www.w3.org/2000/svg">
<path d="M10.5064 23.9857C10.8921 24.3714 12.219 25.328 14.1321 25.328C15.2275 25.328 16.107 25.0194 16.755 24.4023C17.4184 23.7851 17.7424 23.0291 17.7424 22.1189C17.7578 20.0977 15.8601 19.28 14.4098 18.74C13.407 18.3543 12.5893 17.8451 12.5893 17.1509C12.5893 16.3949 13.299 15.8394 14.2401 15.8394C14.6567 15.8394 15.0733 15.932 15.4898 16.1017C15.9064 16.2714 16.1841 16.4257 16.323 16.5337C16.4618 16.6417 16.5853 16.7189 16.6624 16.796L17.5264 15.176L17.187 14.8829C16.9555 14.6823 16.5698 14.4972 16.0298 14.2966C15.4898 14.096 14.8881 14.0034 14.2555 14.0034C13.2064 14.0034 12.327 14.312 11.6327 14.9137C10.9384 15.5154 10.5836 16.2714 10.5836 17.1817C10.5527 19.1257 12.4813 19.9589 13.9315 20.5143C14.9344 20.9309 15.7521 21.4709 15.7521 22.1651C15.7521 23.0137 15.0424 23.492 14.163 23.492C13.2218 23.492 12.4504 23.0909 11.9413 22.736C11.571 22.4737 11.4938 22.3966 11.4321 22.3349L10.3521 23.8314L10.5064 23.9857ZM21.7185 25.1429V21.3629H23.9557C24.9894 21.3629 25.8225 21.0234 26.4705 20.36C27.1185 19.6811 27.4425 18.8171 27.4425 17.7526C27.4425 16.688 27.1185 15.8394 26.4705 15.176C25.8225 14.5126 24.9894 14.1886 23.9557 14.1886H19.7282V25.1429H21.7185ZM21.7185 15.9012H23.6162C24.7271 15.9012 25.4214 16.6263 25.4214 17.7526C25.4214 18.9097 24.7425 19.6349 23.5854 19.6349H21.7185V15.9012ZM33.479 25.1429V20.5606L37.1202 14.1886H34.8676L33.1705 17.4131C32.939 17.8606 32.7076 18.3543 32.5071 18.8789H32.4762L32.4453 18.848C32.3836 18.6783 32.1213 17.9686 31.8128 17.4131L30.1002 14.1886H27.8476L31.4888 20.5606V25.1429H33.479ZM40.5371 25.1429V18.8326C40.5371 18.4006 40.5063 17.8297 40.4291 17.1354H40.46L40.5988 17.4286C40.784 17.7989 41.1234 18.4623 41.3703 18.8326L45.5206 25.1429H47.4954V14.1886H45.5206V20.5143C45.5206 20.9463 45.5514 21.5171 45.6286 22.2114H45.5977L45.4588 21.9337C45.2737 21.548 44.9343 20.8846 44.6874 20.5143L40.5371 14.1886H38.5468V25.1429H40.5371ZM49.5284 19.6503C49.5284 21.332 50.0529 22.6897 51.0867 23.7543C52.1358 24.8034 53.4009 25.328 54.8975 25.328C56.1164 25.328 57.0266 24.9269 57.5358 24.572C57.9524 24.2789 58.0141 24.2171 58.0758 24.1554H58.1066L58.0912 24.6183V25.1429H59.7884V19.3726H56.3169V21.0851H57.9986V22.3657L57.6746 22.6434C57.4741 22.844 57.1346 23.0291 56.6718 23.2297C56.2244 23.4149 55.7461 23.5074 55.2524 23.5074C54.2032 23.5074 53.3238 23.1526 52.6295 22.4274C51.9352 21.7023 51.5804 20.7457 51.5804 19.5886C51.5804 18.5086 51.9044 17.6137 52.5678 16.904C53.2312 16.1789 54.1569 15.824 55.3449 15.824C55.8541 15.824 56.3632 15.9166 56.8724 16.1171C57.3815 16.3177 57.7209 16.472 57.8752 16.58C58.0449 16.688 58.1684 16.796 58.2609 16.8731L59.2484 15.392L59.0941 15.2377C58.8626 15.0526 58.3844 14.7594 57.7672 14.4972C57.1655 14.2349 56.1781 14.0034 55.1752 14.0034C53.5552 14.0034 52.2129 14.5434 51.1329 15.6389C50.0684 16.7189 49.5284 18.0611 49.5284 19.6503ZM68.795 25.1429V23.4303H63.9813V20.4834H67.6687V18.7709H63.9813V15.9012H68.5482V14.1886H61.991V25.1429H68.795ZM72.8557 25.1429V21.0543H74.7689L76.9443 25.1429H79.166L76.9135 21.0543C76.7746 20.792 76.6512 20.6223 76.5432 20.5143V20.4834C77.6695 20.036 78.3946 18.8326 78.3946 17.4903C78.3946 16.0709 77.7157 15.0063 76.6049 14.4972C76.1575 14.2966 75.4169 14.1886 74.3986 14.1886H70.8655V25.1429H72.8557ZM72.8557 15.9012H74.3677C75.8489 15.9012 76.3735 16.472 76.3735 17.5983C76.3735 18.6937 75.71 19.3263 74.6455 19.3263H72.8557V15.9012Z" fill="#F2B601"/>
<rect x="1.42857" y="1.42857" width="86.857" height="37.1429" stroke="#F2B601" stroke-width="2.85714"/>
</svg>
