<svg width="80" height="40" viewBox="0 0 80 40" fill="none" xmlns="http://www.w3.org/2000/svg">
<path d="M19.6362 20C19.6362 8.95433 28.5906 0 39.6362 0C50.6819 0 59.6362 8.95433 59.6362 20C59.6362 31.0457 50.6819 40 39.6362 40C28.5906 40 19.6362 31.0457 19.6362 20Z" fill="#F2B601"/>
<path d="M50.3621 25.729C46.4906 23.8549 45.8736 20.9614 45.8461 20.7468C45.813 20.4868 45.7753 20.2824 46.0621 20.018C46.3386 19.7625 47.5656 19.003 47.9061 18.7654C48.4688 18.372 48.7166 17.9791 48.534 17.4962C48.4062 17.1621 48.0951 17.0363 47.7675 17.0363C47.6641 17.0366 47.5611 17.0482 47.4603 17.0708C46.842 17.205 46.2416 17.5147 45.8941 17.5985C45.8523 17.6092 45.8095 17.615 45.7663 17.6156C45.5811 17.6156 45.5108 17.5333 45.5287 17.3104C45.5721 16.6345 45.6641 15.3155 45.5575 14.0835C45.4112 12.3882 44.8644 11.5483 44.2161 10.8054C43.9025 10.4451 42.4461 8.89746 39.6357 8.89746C36.8252 8.89746 35.3708 10.4451 35.0591 10.801C34.4089 11.5438 33.8627 12.3837 33.7177 14.079C33.6111 15.3111 33.7069 16.6295 33.7465 17.3059C33.7592 17.518 33.6941 17.6112 33.5089 17.6112C33.4657 17.6105 33.4229 17.6046 33.3811 17.594C33.0343 17.5103 32.4339 17.2005 31.8156 17.0664C31.7147 17.0437 31.6117 17.0322 31.5083 17.0319C31.1794 17.0319 30.8696 17.1596 30.7418 17.4917C30.5591 17.9746 30.8057 18.3675 31.3704 18.761C31.7108 18.9985 32.9378 19.7574 33.2144 20.0135C33.5006 20.278 33.4636 20.4824 33.4303 20.7423C33.4028 20.9601 32.7851 23.8536 28.9144 25.7245C28.6876 25.8344 28.3019 26.0669 28.9821 26.4425C30.0501 27.0326 30.761 26.9694 31.3136 27.3252C31.7824 27.6273 31.5051 28.2788 31.8462 28.5139C32.2652 28.8032 33.5037 28.4935 35.1038 29.0217C36.4451 29.4637 37.2602 30.7125 39.6389 30.7125C42.0176 30.7125 42.8562 29.458 44.174 29.0217C45.7708 28.4935 47.0119 28.8032 47.4316 28.5139C47.772 28.2788 47.4954 27.6273 47.9642 27.3252C48.5167 26.9694 49.2271 27.0326 50.2956 26.4425C50.9746 26.0713 50.5888 25.8388 50.3621 25.729Z" fill="#1C1C1C"/>
<path fill-rule="evenodd" clip-rule="evenodd" d="M51.1654 24.5736C51.5422 24.7831 51.8731 25.036 52.0468 25.5087C52.2416 26.0376 52.1222 26.6367 51.647 27.1452L51.6406 27.1528C51.4488 27.365 51.222 27.5427 50.9699 27.6778C50.4698 27.9524 49.9378 28.1644 49.3859 28.3089C49.2802 28.3372 49.18 28.3829 49.0895 28.4443C48.995 28.5279 48.9557 28.632 48.9068 28.7617C48.8698 28.8598 48.8272 28.9726 48.751 29.1022C48.6201 29.3303 48.4403 29.5267 48.2246 29.6771C47.7085 30.0335 47.1286 30.0559 46.5141 30.0795L46.5122 30.0796C45.9576 30.1006 45.329 30.1245 44.6112 30.3618C44.3219 30.4577 44.0146 30.6461 43.6589 30.8645L43.6567 30.8659C42.7901 31.3966 41.6043 32.1228 39.6348 32.1228C37.6636 32.1228 36.4858 31.3992 35.6255 30.8702C35.2671 30.648 34.958 30.4577 34.6603 30.3592C33.9417 30.1223 33.3126 30.098 32.7575 30.077H32.7574C32.143 30.0533 31.563 30.031 31.047 29.6746C30.8648 29.5481 30.708 29.3887 30.5845 29.2044C30.4646 29.0307 30.4094 28.8839 30.3629 28.7603C30.314 28.6302 30.2748 28.5259 30.1801 28.4431C30.0836 28.3786 29.977 28.3309 29.8646 28.3019C29.3201 28.1578 28.7952 27.9478 28.3016 27.6766C28.0644 27.5503 27.8488 27.3871 27.6629 27.1931C27.1564 26.6731 27.0261 26.0561 27.2254 25.5137C27.4511 24.9004 27.9401 24.6552 28.453 24.3979C28.5411 24.3538 28.6298 24.3093 28.7181 24.2625C29.8551 23.6448 30.7455 22.8732 31.3676 21.963C31.545 21.7062 31.6991 21.4341 31.8281 21.1499C31.8888 20.9838 31.8876 20.8937 31.8466 20.8101C31.8028 20.7417 31.7449 20.6836 31.6767 20.6396C31.4819 20.5105 31.2833 20.3815 31.1472 20.2933C31.0969 20.2604 31.0487 20.2289 31.0026 20.1988C30.8185 20.0785 30.6701 19.9816 30.5679 19.9101C30.0856 19.5728 29.7484 19.2145 29.537 18.814C29.3901 18.5368 29.3048 18.2313 29.2866 17.9182C29.2684 17.6051 29.3179 17.2917 29.4316 16.9993C29.7496 16.1587 30.5449 15.6369 31.5075 15.6369C31.7104 15.6367 31.9127 15.6582 32.1111 15.7008C32.1641 15.7123 32.2165 15.7244 32.2682 15.7378C32.2599 15.1662 32.2727 14.5562 32.3238 13.9589C32.5052 11.8613 33.2404 10.7588 34.0069 9.88125C34.4981 9.32975 35.0775 8.8635 35.7212 8.50158C36.8856 7.83726 38.1983 7.5 39.6361 7.5C41.0739 7.5 42.3929 7.83726 43.5561 8.50158C44.1982 8.86342 44.7764 9.32875 45.2672 9.87867C46.0337 10.7563 46.7689 11.8568 46.9503 13.9564C47.0014 14.5536 47.0142 15.1604 47.0052 15.7353C47.057 15.7219 47.11 15.7097 47.1631 15.6982C47.3614 15.6556 47.5637 15.6342 47.7666 15.6343C48.7286 15.6343 49.5226 16.1562 49.8419 16.9968C49.9551 17.289 50.0041 17.6022 49.9854 17.9149C49.9668 18.2277 49.8811 18.5328 49.734 18.8096C49.5231 19.2101 49.1859 19.5684 48.7036 19.9057C48.5759 19.9966 48.3778 20.1248 48.1278 20.2866L48.1243 20.2889C47.9831 20.3802 47.775 20.5157 47.5731 20.6492C47.5127 20.6903 47.4616 20.7436 47.423 20.8057C47.3841 20.8861 47.3815 20.9742 47.4358 21.1295C47.5666 21.4197 47.7233 21.6977 47.904 21.9598C48.5401 22.8911 49.4574 23.6767 50.6321 24.2996C50.6917 24.3305 50.7516 24.3607 50.8111 24.3907C50.8657 24.4181 50.92 24.4455 50.9737 24.4732C51.0293 24.4988 51.0945 24.5321 51.1654 24.5736ZM48.829 27.0078C49.2322 26.9004 49.7099 26.7731 50.2951 26.4499C50.9753 26.0711 50.5895 25.8386 50.3608 25.7243C46.4894 23.8534 45.8724 20.9599 45.8449 20.7421C45.8438 20.7333 45.8427 20.7245 45.8415 20.7158C45.8096 20.4682 45.7838 20.2687 46.0608 20.0133C46.2489 19.8391 46.8763 19.4326 47.3658 19.1155C47.5961 18.9662 47.7959 18.8368 47.9049 18.7607C48.4689 18.3673 48.7154 17.9745 48.5327 17.4916C48.405 17.1594 48.0952 17.0316 47.7662 17.0316C47.6629 17.032 47.5599 17.0436 47.4591 17.0661C47.0946 17.1452 46.7364 17.2853 46.4325 17.4041C46.2208 17.4869 46.0355 17.5594 45.8928 17.5937C45.8511 17.6046 45.8082 17.6103 45.7651 17.611C45.5798 17.611 45.5128 17.5286 45.5275 17.3057C45.529 17.282 45.5306 17.2574 45.5322 17.2321C45.5771 16.5373 45.6592 15.2676 45.5562 14.0787C45.4112 12.3836 44.8645 11.5436 44.2148 10.8007C43.9032 10.445 42.4347 8.90365 39.6338 8.90365C36.8329 8.90365 35.3683 10.4514 35.0566 10.8084C34.4077 11.5512 33.8615 12.3912 33.7152 14.0864C33.6172 15.2189 33.6902 16.4242 33.7334 17.137C33.7372 17.1998 33.7408 17.2587 33.744 17.3134C33.7567 17.5254 33.6916 17.6186 33.5063 17.6186C33.4632 17.6179 33.4204 17.6121 33.3786 17.6014C33.2364 17.5671 33.0515 17.4948 32.8403 17.4121C32.5364 17.2932 32.1778 17.153 31.8131 17.0738C31.7122 17.0512 31.6092 17.0396 31.5058 17.0393C31.1788 17.0393 30.8671 17.1651 30.7393 17.4992C30.5567 17.9821 30.8045 18.375 31.3678 18.7684C31.4769 18.8446 31.6771 18.9743 31.9078 19.1239C32.3971 19.441 33.024 19.8474 33.2119 20.021C33.4888 20.2768 33.4631 20.4765 33.4311 20.7247C33.43 20.733 33.4289 20.7414 33.4278 20.7498C33.4003 20.9644 32.7827 23.8579 28.9119 25.732C28.6852 25.8418 28.2993 26.0743 28.9796 26.4499C29.5632 26.7707 30.04 26.8973 30.4428 27.0042C30.777 27.0929 31.0601 27.1681 31.311 27.3295C31.5645 27.4928 31.6001 27.7583 31.6331 28.0049C31.6611 28.2144 31.6874 28.4102 31.8437 28.5181C32.0256 28.6435 32.3618 28.6564 32.8143 28.6737C33.4059 28.6964 34.1965 28.7267 35.1013 29.026C35.5555 29.1756 35.9502 29.4182 36.3657 29.6735C37.1773 30.1722 38.0684 30.7199 39.6382 30.7199C41.2139 30.7199 42.1146 30.1671 42.9281 29.6678C43.3401 29.4149 43.7297 29.1758 44.1733 29.0291C45.0798 28.7299 45.8703 28.6996 46.4614 28.6769C46.9137 28.6596 47.2493 28.6468 47.4309 28.5213C47.5876 28.4134 47.6137 28.2176 47.6416 28.0081C47.6744 27.7615 47.7098 27.496 47.9637 27.3326C48.2136 27.1717 48.4959 27.0965 48.829 27.0078Z" fill="#F2B601"/>
</svg>
