<svg width="80" height="40" viewBox="0 0 80 40" fill="none" xmlns="http://www.w3.org/2000/svg">
<path d="M19.7275 20C19.7275 8.9543 28.6818 0 39.7275 0C50.7732 0 59.7275 8.9543 59.7275 20C59.7275 31.0457 50.7732 40 39.7275 40C28.6818 40 19.7275 31.0457 19.7275 20Z" fill="#F2B601"/>
<path d="M50.2241 21.8056C50.3369 21.1868 50.3974 20.5542 50.3974 19.9216C50.3974 18.5189 50.1224 17.1575 49.5806 15.8786C49.058 14.6409 48.3072 13.5298 47.3528 12.5754C46.4064 11.6266 45.2845 10.8709 44.0496 10.3504C42.768 9.8086 41.4093 9.53357 40.0066 9.53357C39.3465 9.53357 38.6837 9.59682 38.0401 9.72059C37.1496 9.24869 36.1574 9.00134 35.1495 9C33.5076 9 31.9619 9.64083 30.8012 10.8015C30.2285 11.3713 29.7744 12.0489 29.4652 12.7953C29.156 13.5416 28.9978 14.3419 28.9998 15.1498C28.9998 16.1949 29.2693 17.2235 29.7726 18.1311C29.6709 18.7197 29.6158 19.322 29.6158 19.9216C29.6158 21.3243 29.8909 22.6857 30.4327 23.9646C30.9553 25.2022 31.7034 26.3134 32.6577 27.2678C33.6121 28.2221 34.7232 28.9702 35.9609 29.4928C37.2425 30.0346 38.6012 30.3096 40.0039 30.3096C40.6145 30.3096 41.225 30.2546 41.8246 30.1474C42.746 30.6672 43.7856 30.945 44.85 30.945C46.4919 30.945 48.0376 30.3069 49.1983 29.1435C50.3617 27.9828 50.9997 26.4371 50.9997 24.7952C51.0025 23.7501 50.733 22.7187 50.2241 21.8056ZM40.0479 26.2859C36.3569 26.2859 34.7067 24.4707 34.7067 23.112C34.7067 22.4134 35.221 21.9266 35.9306 21.9266C37.5093 21.9266 37.1023 24.1956 40.0479 24.1956C41.5578 24.1956 42.3912 23.376 42.3912 22.5372C42.3912 22.0339 42.1436 21.4728 41.148 21.228L37.8641 20.4084C35.221 19.7456 34.7397 18.3154 34.7397 16.9732C34.7397 14.1844 37.3663 13.1365 39.8334 13.1365C42.1051 13.1365 44.784 14.3934 44.784 16.0656C44.784 16.7835 44.1624 17.1988 43.4528 17.1988C42.1051 17.1988 42.3527 15.334 39.6381 15.334C38.2904 15.334 37.5451 15.9446 37.5451 16.8165C37.5451 17.6883 38.6095 17.9661 39.5336 18.1779L41.9649 18.7169C44.6272 19.311 45.301 20.865 45.301 22.3281C45.301 24.5917 43.5601 26.2859 40.0479 26.2859Z" fill="#1C1C1C"/>
</svg>
