<svg width="80" height="40" viewBox="0 0 80 40" fill="none" xmlns="http://www.w3.org/2000/svg">
<path d="M19.5454 20C19.5454 8.9543 28.4997 0 39.5454 0C50.5911 0 59.5454 8.9543 59.5454 20C59.5454 31.0457 50.5911 40 39.5454 40C28.4997 40 19.5454 31.0457 19.5454 20Z" fill="#F2B601"/>
<path d="M39.5454 10C38.2448 9.95278 36.9481 10.1691 35.7332 10.6361C34.5184 11.103 33.4105 11.8108 32.4764 12.717C31.5422 13.6231 30.8009 14.7089 30.2972 15.909C29.7935 17.109 29.5378 18.3986 29.5454 19.7C29.5286 21.0512 29.8 22.3904 30.3415 23.6285C30.8829 24.8665 31.682 25.975 32.6854 26.88C32.7651 26.951 32.8299 27.037 32.8763 27.1331C32.9226 27.2292 32.9495 27.3335 32.9554 27.44V29.22C32.9609 29.3512 32.9982 29.4791 33.0641 29.5927C33.13 29.7063 33.2226 29.8022 33.3338 29.8721C33.445 29.9419 33.5715 29.9837 33.7024 29.9938C33.8334 30.0039 33.9648 29.982 34.0854 29.93L36.0854 29.06C36.2562 28.9955 36.4446 28.9955 36.6154 29.06C37.5609 29.3152 38.5361 29.443 39.5154 29.44C42.0933 29.444 44.5672 28.4237 46.3929 26.6037C48.2185 24.7837 49.2464 22.3129 49.2504 19.735C49.2544 17.1571 48.2341 14.6832 46.4141 12.8575C44.5941 11.0319 42.1233 10.004 39.5454 10ZM45.5454 17.46L42.6154 22.12C42.5049 22.2955 42.3592 22.4461 42.1876 22.5624C42.0159 22.6787 41.822 22.7581 41.6181 22.7957C41.4142 22.8333 41.2047 22.8282 41.0029 22.7808C40.801 22.7333 40.6112 22.6445 40.4454 22.52L38.1054 20.77C38.0016 20.6921 37.8752 20.65 37.7454 20.65C37.6156 20.65 37.4893 20.6921 37.3854 20.77L34.2254 23.17C34.1374 23.2379 34.0282 23.2724 33.9172 23.2674C33.8061 23.2623 33.7005 23.2181 33.619 23.1426C33.5374 23.0671 33.4853 22.9651 33.4718 22.8548C33.4584 22.7445 33.4844 22.6329 33.5454 22.54L36.4754 17.88C36.5859 17.7046 36.7316 17.5539 36.9032 17.4376C37.0749 17.3213 37.2688 17.2419 37.4727 17.2043C37.6766 17.1667 37.8861 17.1718 38.088 17.2192C38.2898 17.2667 38.4796 17.3555 38.6454 17.48L40.9854 19.23C41.0893 19.3079 41.2156 19.35 41.3454 19.35C41.4752 19.35 41.6016 19.3079 41.7054 19.23L44.8654 16.83C44.9534 16.7621 45.0626 16.7276 45.1737 16.7327C45.2847 16.7377 45.3903 16.7819 45.4719 16.8574C45.5534 16.9329 45.6055 17.0349 45.619 17.1452C45.6324 17.2556 45.6064 17.3671 45.5454 17.46Z" fill="#1C1C1C"/>
</svg>
