<svg width="48" height="32" viewBox="0 0 48 32" fill="none" xmlns="http://www.w3.org/2000/svg">
<g clip-path="url(#clip0_89_11572)">
<path d="M0 4C0 1.79086 1.79086 0 4 0H44C46.2091 0 48 1.79086 48 4V28C48 30.2091 46.2091 32 44 32H4C1.79086 32 0 30.2091 0 28V4Z" fill="#EFF2F6"/>
<path d="M40 23.3493C40 26.0979 37.7722 28.3268 35.0227 28.3268H8V8.65203C8 5.90266 10.2278 3.67383 12.9777 3.67383H39.9998L39.9997 23.3492L40 23.3493Z" fill="white"/>
<path d="M31.1904 16.4323C31.9623 16.4491 32.7385 16.3982 33.5072 16.4587C34.2858 16.604 34.4734 17.7825 33.7817 18.1685C33.3098 18.4228 32.7492 18.2632 32.2376 18.3081H31.1904V16.4323ZM33.9535 14.3091C34.125 14.9144 33.5415 15.4579 32.9586 15.3745H31.1904C31.2028 14.8037 31.1662 14.1842 31.2084 13.6434C31.9167 13.6634 32.6316 13.6027 33.3358 13.6751C33.6383 13.7512 33.8916 13.9999 33.9535 14.3091ZM38.2087 5.33305C38.2416 6.48898 38.2135 7.706 38.2229 8.88538C38.2208 13.6803 38.2276 18.4751 38.2192 23.2702C38.1881 25.0672 36.5956 26.6287 34.811 26.6646C33.0247 26.6718 31.2381 26.6657 29.4516 26.6677V19.4188C31.3981 19.4087 33.3456 19.4392 35.2913 19.4036C36.194 19.3469 37.1827 18.7513 37.2247 17.758C37.3309 16.7604 36.3904 16.0704 35.4974 15.9614C35.1542 15.9525 35.1642 15.8614 35.4974 15.8216C36.3491 15.6375 37.0179 14.756 36.7673 13.8732C36.5538 12.9447 35.5275 12.5853 34.6739 12.5871C32.9334 12.5753 31.1925 12.5855 29.452 12.582C29.4632 11.2287 29.4285 9.874 29.4706 8.52171C29.6086 6.75714 31.2412 5.30194 33.0007 5.33351C34.7369 5.33325 36.4729 5.33325 38.2087 5.33318V5.33305Z" fill="url(#paint0_linear_89_11572)"/>
<path d="M9.78238 8.70382C9.82683 6.90966 11.4262 5.361 13.2085 5.33478C14.9882 5.3293 16.7681 5.33399 18.5478 5.3324C18.543 11.3353 18.5575 17.3388 18.5405 23.3414C18.4719 25.1138 16.89 26.6329 15.1272 26.6643C13.3441 26.6707 11.5608 26.6652 9.77769 26.667V19.1737C11.5097 19.5829 13.326 19.757 15.0929 19.4856C16.1491 19.3157 17.3047 18.797 17.6623 17.7012C17.9255 16.7639 17.7773 15.7775 17.8165 14.8155V12.5814H14.7586C14.7449 14.059 14.7867 15.5391 14.7365 17.0149C14.654 17.922 13.7557 18.4984 12.9002 18.4676C11.8392 18.4788 9.73661 17.6987 9.73661 17.6987C9.73132 14.9303 9.76739 11.4633 9.78238 8.70408V8.70382Z" fill="url(#paint1_linear_89_11572)"/>
<path d="M19.6884 13.4828C19.5274 13.517 19.656 12.9346 19.6148 12.7136C19.6258 11.3167 19.5919 9.91823 19.6335 8.52228C19.771 6.75024 21.4163 5.29142 23.1829 5.33289H28.3854C28.3805 11.3358 28.395 17.3393 28.3781 23.3419C28.3094 25.1142 26.7274 26.6333 24.9645 26.6648C23.1813 26.6715 21.398 26.6658 19.6148 26.6675V18.4576C20.8326 19.4569 22.4879 19.6124 24.0052 19.6151C25.149 19.6147 26.2862 19.4384 27.397 19.1746V17.6705C26.1452 18.2944 24.6736 18.6907 23.2859 18.3322C22.3179 18.0913 21.6152 17.1558 21.6308 16.1568C21.5187 15.1179 22.1277 14.0211 23.1486 13.7122C24.4161 13.3154 25.7976 13.6189 26.9858 14.1348C27.2403 14.2681 27.4987 14.4334 27.3969 14.0079V12.8257C25.4098 12.3529 23.295 12.179 21.2986 12.6933C20.7208 12.8563 20.1578 13.1035 19.6884 13.483V13.4828Z" fill="url(#paint2_linear_89_11572)"/>
</g>
<defs>
<linearGradient id="paint0_linear_89_11572" x1="29.3917" y1="15.5442" x2="38.1676" y2="15.5442" gradientUnits="userSpaceOnUse">
<stop stop-color="#007B40"/>
<stop offset="1" stop-color="#55B330"/>
</linearGradient>
<linearGradient id="paint1_linear_89_11572" x1="9.59109" y1="16.204" x2="18.404" y2="16.204" gradientUnits="userSpaceOnUse">
<stop stop-color="#1D2970"/>
<stop offset="1" stop-color="#006DBA"/>
</linearGradient>
<linearGradient id="paint2_linear_89_11572" x1="19.6019" y1="15.7507" x2="28.3838" y2="15.7507" gradientUnits="userSpaceOnUse">
<stop stop-color="#6E2B2F"/>
<stop offset="1" stop-color="#E30138"/>
</linearGradient>
<clipPath id="clip0_89_11572">
<rect width="48" height="32" fill="white"/>
</clipPath>
</defs>
</svg>
