<svg width="48" height="32" viewBox="0 0 48 32" fill="none" xmlns="http://www.w3.org/2000/svg">
<g clip-path="url(#clip0_89_11537)">
<path d="M0 4C0 1.79086 1.79086 0 4 0H44C46.2091 0 48 1.79086 48 4V28C48 30.2091 46.2091 32 44 32H4C1.79086 32 0 30.2091 0 28V4Z" fill="#EFF2F7"/>
<path d="M41.31 10.0352H38.7954C38.0352 10.0352 37.4504 10.2691 37.0995 11.0293L32.3042 21.965H35.696C35.696 21.965 36.2808 20.503 36.3978 20.1521C36.7486 20.1521 40.082 20.1521 40.5498 20.1521C40.6668 20.5615 40.9592 21.9065 40.9592 21.9065H44.0001L41.31 10.0352ZM37.3334 17.696C37.6258 16.9942 38.62 14.3626 38.62 14.3626C38.62 14.4211 38.9124 13.6609 39.0293 13.2515L39.2633 14.3042C39.2633 14.3042 39.9065 17.1697 40.0235 17.7545H37.3334V17.696Z" fill="#3362AB"/>
<path d="M32.538 18.0465C32.538 20.5026 30.3158 22.1401 26.8655 22.1401C25.4035 22.1401 24 21.8477 23.2397 21.4968L23.7076 18.8067L24.1169 18.9822C25.1696 19.45 25.8713 19.6255 27.1579 19.6255C28.0935 19.6255 29.0877 19.2746 29.0877 18.4559C29.0877 17.9296 28.6783 17.5787 27.3918 16.9939C26.1637 16.4091 24.5263 15.4734 24.5263 13.7775C24.5263 11.4383 26.807 9.85938 30.0234 9.85938C31.2514 9.85938 32.3041 10.0933 32.9473 10.3857L32.4795 12.9588L32.2456 12.7249C31.6608 12.491 30.9006 12.257 29.7895 12.257C28.5614 12.3155 27.9766 12.8418 27.9766 13.3097C27.9766 13.836 28.6783 14.2453 29.7895 14.7717C31.6608 15.6488 32.538 16.643 32.538 18.0465Z" fill="#3362AB"/>
<path d="M4 10.1519L4.05848 9.91797H9.08772C9.78947 9.91797 10.3158 10.1519 10.4912 10.9121L11.6023 16.1753C10.4912 13.3683 7.91813 11.0876 4 10.1519Z" fill="#F9B50B"/>
<path d="M18.6783 10.035L13.5906 21.9064H10.1403L7.21631 11.9649C9.32157 13.3099 11.076 15.4152 11.7192 16.8771L12.0701 18.1052L15.228 9.97656H18.6783V10.035Z" fill="#3362AB"/>
<path d="M20.0233 9.97656H23.2397L21.1929 21.9064H17.9766L20.0233 9.97656Z" fill="#3362AB"/>
</g>
<defs>
<clipPath id="clip0_89_11537">
<rect width="48" height="32" fill="white"/>
</clipPath>
</defs>
</svg>
