<svg width="86" height="179" viewBox="0 0 86 179" fill="none" xmlns="http://www.w3.org/2000/svg">
<path d="M85 1H86V0H85V1ZM85 171V172H86V171H85ZM0.292893 170.293C-0.0976311 170.683 -0.0976311 171.317 0.292893 171.707L6.65685 178.071C7.04738 178.462 7.68054 178.462 8.07107 178.071C8.46159 177.681 8.46159 177.047 8.07107 176.657L2.41421 171L8.07107 165.343C8.46159 164.953 8.46159 164.319 8.07107 163.929C7.68054 163.538 7.04738 163.538 6.65685 163.929L0.292893 170.293ZM1 172H4V170H1V172ZM10 172H16V170H10V172ZM22 172H28V170H22V172ZM34 172H40V170H34V172ZM46 172H52V170H46V172ZM58 172H64V170H58V172ZM70 172H76V170H70V172ZM82 172H85V170H82V172ZM86 171V167.964H84V171H86ZM86 161.893V155.821H84V161.893H86ZM86 149.75V143.679H84V149.75H86ZM86 137.607V131.536H84V137.607H86ZM86 125.464V119.393H84V125.464H86ZM86 113.321V107.25H84V113.321H86ZM86 101.179V95.1071H84V101.179H86ZM86 89.0357V82.9643H84V89.0357H86ZM86 76.8929V70.8214H84V76.8929H86ZM86 64.75V58.6786H84V64.75H86ZM86 52.6072V46.5357H84V52.6072H86ZM86 40.4643V34.3929H84V40.4643H86ZM86 28.3214V22.25H84V28.3214H86ZM86 16.1786V10.1072H84V16.1786H86ZM86 4.03573V1H84V4.03573H86ZM85 0H82.375V2H85V0ZM77.125 0H71.875V2H77.125V0ZM66.625 0H61.375V2H66.625V0ZM56.125 0H50.875V2H56.125V0ZM45.625 0H43V2H45.625V0Z" fill="#676767"/>
</svg>
