<svg width="80" height="40" viewBox="0 0 80 40" fill="none" xmlns="http://www.w3.org/2000/svg">
<path d="M19.5454 20C19.5454 8.9543 28.4997 0 39.5454 0C50.5911 0 59.5454 8.9543 59.5454 20C59.5454 31.0457 50.5911 40 39.5454 40C28.4997 40 19.5454 31.0457 19.5454 20Z" fill="#F2B601"/>
<path d="M42.927 20C42.927 20.6329 42.7394 21.2516 42.3878 21.7778C42.0361 22.3041 41.5364 22.7142 40.9516 22.9564C40.3669 23.1986 39.7235 23.262 39.1028 23.1385C38.482 23.015 37.9118 22.7103 37.4643 22.2627C37.0168 21.8152 36.712 21.245 36.5885 20.6243C36.4651 20.0035 36.5284 19.3601 36.7706 18.7754C37.0128 18.1907 37.423 17.6909 37.9492 17.3393C38.4755 16.9877 39.0942 16.8 39.7271 16.8C40.5749 16.8026 41.3873 17.1406 41.9869 17.7402C42.5864 18.3397 42.9244 19.1521 42.927 20ZM49.7271 15.6V24.4C49.7271 25.8852 49.1371 27.3096 48.0868 28.3598C47.0366 29.41 45.6123 30 44.127 30H35.3271C33.8418 30 32.4175 29.41 31.3673 28.3598C30.317 27.3096 29.7271 25.8852 29.7271 24.4V15.6C29.7271 14.1148 30.317 12.6904 31.3673 11.6402C32.4175 10.59 33.8418 10 35.3271 10H44.127C45.6123 10 47.0366 10.59 48.0868 11.6402C49.1371 12.6904 49.7271 14.1148 49.7271 15.6ZM44.5271 20C44.5271 19.0506 44.2455 18.1226 43.7181 17.3333C43.1907 16.5439 42.441 15.9287 41.5639 15.5654C40.6868 15.2021 39.7217 15.107 38.7906 15.2922C37.8595 15.4774 37.0042 15.9346 36.3329 16.6059C35.6616 17.2772 35.2045 18.1325 35.0193 19.0636C34.8341 19.9947 34.9291 20.9598 35.2924 21.8369C35.6557 22.714 36.271 23.4636 37.0603 23.9911C37.8497 24.5185 38.7777 24.8 39.7271 24.8C41.0001 24.8 42.221 24.2943 43.1212 23.3941C44.0213 22.4939 44.5271 21.273 44.5271 20ZM46.1271 14.8C46.1271 14.5627 46.0567 14.3307 45.9248 14.1333C45.793 13.936 45.6055 13.7822 45.3863 13.6913C45.167 13.6005 44.9257 13.5768 44.6929 13.6231C44.4602 13.6694 44.2463 13.7836 44.0785 13.9515C43.9107 14.1193 43.7964 14.3331 43.7501 14.5659C43.7038 14.7987 43.7276 15.0399 43.8184 15.2592C43.9092 15.4785 44.063 15.6659 44.2604 15.7978C44.4577 15.9296 44.6897 16 44.9271 16C45.2453 16 45.5505 15.8736 45.7756 15.6485C46.0006 15.4235 46.1271 15.1183 46.1271 14.8Z" fill="#1C1C1C"/>
</svg>
