<svg width="80" height="40" viewBox="0 0 80 40" fill="none" xmlns="http://www.w3.org/2000/svg">
<path d="M39.5452 40C50.5908 40 59.5452 31.0457 59.5452 20C59.5452 8.95433 50.5908 0 39.5452 0C28.4995 0 19.5452 8.95433 19.5452 20C19.5452 31.0457 28.4995 40 39.5452 40Z" fill="#F2B601"/>
<path d="M26.9941 20.9787C29.3321 19.6909 31.9419 18.616 34.3804 17.5357C38.5756 15.7662 42.7874 14.0274 47.0417 12.4085C47.8695 12.1327 49.3567 11.863 49.5026 13.0896C49.4227 14.826 49.0942 16.5521 48.8689 18.2783C48.297 22.0743 47.636 25.8573 46.9914 29.6408C46.7693 30.901 45.1906 31.5535 44.1804 30.747C41.7527 29.1071 39.3064 27.4833 36.9097 25.8055C36.1247 25.0077 36.8527 23.8621 37.5538 23.2925C39.5533 21.322 41.6738 19.6478 43.5688 17.5755C44.08 16.341 42.5697 17.3814 42.0715 17.7001C39.3342 19.5865 36.6638 21.588 33.7778 23.2458C32.3037 24.0573 30.5855 23.3638 29.112 22.911C27.7908 22.364 25.8548 21.8129 26.994 20.9788L26.9941 20.9787Z" fill="#1C1C1C"/>
</svg>
