<svg width="90" height="40" viewBox="0 0 90 40" fill="none" xmlns="http://www.w3.org/2000/svg">
  <path
    d="M10.5059 23.9859L10.3516 23.8316L11.4316 22.3351C11.4933 22.3968 11.5705 22.4739 11.9408 22.7362C12.4499 23.0911 13.2213 23.4922 14.1625 23.4922C15.0419 23.4922 15.7516 23.0139 15.7516 22.1654C15.7516 21.4711 14.9339 20.9311 13.9311 20.5145C12.4808 19.9591 10.5522 19.1259 10.5831 17.1819C10.5831 16.2716 10.9379 15.5156 11.6322 14.9139C12.3265 14.3122 13.2059 14.0036 14.2551 14.0036C14.8876 14.0036 15.4893 14.0962 16.0293 14.2968C16.5693 14.4974 16.9551 14.6825 17.1865 14.8831L17.5259 15.1762L16.6619 16.7962C16.5848 16.7191 16.4613 16.6419 16.3225 16.5339C16.1836 16.4259 15.9059 16.2716 15.4893 16.1019C15.0728 15.9322 14.6562 15.8396 14.2396 15.8396C13.2985 15.8396 12.5888 16.3951 12.5888 17.1511C12.5888 17.8454 13.4065 18.3545 14.4093 18.7402C15.8596 19.2802 17.7573 20.0979 17.7419 22.1191C17.7419 23.0294 17.4179 23.7854 16.7545 24.4025C16.1065 25.0196 15.2271 25.3282 14.1316 25.3282C12.2185 25.3282 10.8916 24.3716 10.5059 23.9859ZM21.718 25.1431H19.7277V14.1888H23.9552C24.9889 14.1888 25.822 14.5128 26.47 15.1762C27.118 15.8396 27.442 16.6882 27.442 17.7528C27.442 18.8174 27.118 19.6814 26.47 20.3602C25.822 21.0236 24.9889 21.3631 23.9552 21.3631H21.718V25.1431ZM21.718 15.9014V19.6351H23.5849C24.742 19.6351 25.4209 18.9099 25.4209 17.7528C25.4209 16.6265 24.7266 15.9014 23.6157 15.9014H21.718ZM33.4786 25.1431H31.4883V20.5608L27.8471 14.1888H30.0997L31.8123 17.4134C32.1208 17.9688 32.3831 18.6785 32.4448 18.8482L32.4757 18.8791H32.5066C32.7071 18.3545 32.9386 17.8608 33.17 17.4134L34.8671 14.1888H37.1197L33.4786 20.5608V25.1431ZM40.5366 25.1431H38.5464V14.1888H40.5366L44.6869 20.5145C44.9338 20.8848 45.2732 21.5482 45.4584 21.9339L45.5972 22.2116H45.6281C45.5509 21.5174 45.5201 20.9465 45.5201 20.5145V14.1888H47.4949V25.1431H45.5201L41.3698 18.8328C41.1229 18.4625 40.7835 17.7991 40.5984 17.4288L40.4595 17.1356H40.4286C40.5058 17.8299 40.5366 18.4008 40.5366 18.8328V25.1431ZM49.5279 19.6505C49.5279 18.0614 50.0679 16.7191 51.1324 15.6391C52.2124 14.5436 53.5547 14.0036 55.1747 14.0036C56.1776 14.0036 57.165 14.2351 57.7667 14.4974C58.3839 14.7596 58.8622 15.0528 59.0936 15.2379L59.2479 15.3922L58.2604 16.8734C58.1679 16.7962 58.0444 16.6882 57.8747 16.5802C57.7204 16.4722 57.381 16.3179 56.8719 16.1174C56.3627 15.9168 55.8536 15.8242 55.3444 15.8242C54.1564 15.8242 53.2307 16.1791 52.5673 16.9042C51.9039 17.6139 51.5799 18.5088 51.5799 19.5888C51.5799 20.7459 51.9347 21.7025 52.629 22.4276C53.3233 23.1528 54.2027 23.5076 55.2519 23.5076C55.7456 23.5076 56.2239 23.4151 56.6713 23.2299C57.1342 23.0294 57.4736 22.8442 57.6742 22.6436L57.9982 22.3659V21.0854H56.3164V19.3728H59.7879V25.1431H58.0907V24.6185L58.1062 24.1556H58.0753C58.0136 24.2174 57.9519 24.2791 57.5353 24.5722C57.0262 24.9271 56.1159 25.3282 54.897 25.3282C53.4004 25.3282 52.1353 24.8036 51.0862 23.7545C50.0524 22.6899 49.5279 21.3322 49.5279 19.6505ZM68.7945 25.1431H61.9905V14.1888H68.5477V15.9014H63.9808V18.7711H67.6682V20.4836H63.9808V23.4305H68.7945V25.1431ZM72.8553 25.1431H70.865V14.1888H74.3981C75.4164 14.1888 76.157 14.2968 76.6044 14.4974C77.7152 15.0065 78.3941 16.0711 78.3941 17.4905C78.3941 18.8328 77.669 20.0362 76.5427 20.4836V20.5145C76.6507 20.6225 76.7741 20.7922 76.913 21.0545L79.1655 25.1431H76.9438L74.7684 21.0545H72.8553V25.1431ZM72.8553 15.9014V19.3265H74.645C75.7095 19.3265 76.373 18.6939 76.373 17.5985C76.373 16.4722 75.8484 15.9014 74.3673 15.9014H72.8553Z"
    fill="#F2B601" />
  <rect x="1.42857" y="1.42857" width="86.857" height="37.1429" stroke="#F2B601" stroke-width="2.85714" />
</svg>