<svg width="157" height="70" viewBox="0 0 157 70" fill="none" xmlns="http://www.w3.org/2000/svg">
<path d="M18.366 43.705C18.366 43.705 20.715 46.324 24.981 46.324C28.977 46.324 31.299 43.759 31.299 40.708C31.299 34.579 22.281 35.416 22.281 32.014C22.281 30.664 23.55 29.719 25.17 29.719C27.573 29.719 29.409 31.393 29.409 31.393L30.921 28.558C30.921 28.558 28.977 26.506 25.197 26.506C21.525 26.506 18.771 28.882 18.771 32.068C18.771 37.954 27.816 37.36 27.816 40.789C27.816 42.355 26.493 43.111 25.035 43.111C22.335 43.111 20.256 41.086 20.256 41.086L18.366 43.705ZM34.7742 46H38.2572V39.385H42.1722C45.7632 39.385 48.2742 36.793 48.2742 33.067C48.2742 29.341 45.7632 26.83 42.1722 26.83H34.7742V46ZM38.2572 36.361V29.827H41.5782C43.5492 29.827 44.7372 31.096 44.7372 33.067C44.7372 35.065 43.5492 36.361 41.5242 36.361H38.2572ZM55.3552 46H58.8382V37.981L65.2102 26.83H61.2682L58.2982 32.473C57.6772 33.661 57.1372 35.038 57.1372 35.038H57.0832C57.0562 35.065 56.5432 33.661 55.9222 32.473L52.9252 26.83H48.9832L55.3552 37.981V46ZM67.7069 46H71.1899V34.957C71.1899 33.823 71.0009 31.987 71.0009 31.987H71.0549C71.0549 31.987 71.9189 33.85 72.6479 34.957L79.9109 46H83.3669V26.83H79.9109V37.9C79.9109 39.034 80.0999 40.87 80.0999 40.87H80.0459C80.0459 40.87 79.1819 39.007 78.4529 37.9L71.1899 26.83H67.7069V46ZM86.9245 36.388C86.9245 42.409 91.2715 46.324 96.3205 46.324C99.8845 46.324 101.883 44.272 101.883 44.272H101.937C101.937 44.272 101.91 44.677 101.91 45.082V46H104.88V35.902H98.8045V38.899H101.748V41.14C101.748 41.14 99.8305 43.138 96.9415 43.138C93.3505 43.138 90.5155 40.438 90.5155 36.28C90.5155 32.662 92.8105 29.692 97.1035 29.692C100.155 29.692 102.207 31.528 102.207 31.528L103.935 28.936C103.935 28.936 101.505 26.506 96.8065 26.506C91.1095 26.506 86.9245 30.826 86.9245 36.388ZM108.734 46H120.641V43.003H112.217V37.846H118.67V34.849H112.217V29.827H120.209V26.83H108.734V46ZM124.264 46H127.747V38.845H131.095L134.902 46H138.79L134.848 38.845C134.47 38.17 134.2 37.9 134.2 37.9V37.846C136.225 37.036 137.44 34.903 137.44 32.608C137.44 30.07 136.225 28.234 134.308 27.37C133.471 26.992 132.526 26.83 130.447 26.83H124.264V46ZM127.747 35.821V29.827H130.393C133.12 29.827 133.903 30.961 133.903 32.797C133.903 34.714 132.742 35.821 130.879 35.821H127.747Z" fill="white"/>
<rect x="2.5" y="2.5" width="152" height="65" stroke="white" stroke-width="5"/>
</svg>
