<?xml version="1.0" encoding="iso-8859-1"?>
<svg xmlns="http://www.w3.org/2000/svg" xmlns:xlink="http://www.w3.org/1999/xlink">

    <symbol id="icon-tag" viewBox="0 0 18 18" fill="none" xmlns="http://www.w3.org/2000/svg"><path d="M15.4425 10.0575L10.065 15.435C9.92569 15.5745 9.76026 15.6851 9.57816 15.7606C9.39606 15.8361 9.20087 15.8749 9.00375 15.8749C8.80663 15.8749 8.61144 15.8361 8.42934 15.7606C8.24724 15.6851 8.08181 15.5745 7.9425 15.435L1.5 9V1.5H9L15.4425 7.9425C15.7219 8.22354 15.8787 8.60372 15.8787 9C15.8787 9.39628 15.7219 9.77646 15.4425 10.0575V10.0575Z" stroke="#999999" stroke-width="2" stroke-linecap="round" stroke-linejoin="round"/><path d="M5.25 5.25H5.25833" stroke="#999999" stroke-width="2" stroke-linecap="round" stroke-linejoin="round"/></symbol>
    <symbol id="search" viewBox="0 0 18 18" fill="" xmlns="http://www.w3.org/2000/svg"><path fill-rule="evenodd" clip-rule="evenodd" d="M2 8.11111C2 4.73604 4.73604 2 8.11111 2C11.4862 2 14.2222 4.73604 14.2222 8.11111C14.2222 9.75358 13.5743 11.2447 12.52 12.3428C12.4875 12.3682 12.4561 12.3958 12.4262 12.4257C12.3962 12.4557 12.3686 12.487 12.3432 12.5196C11.2451 13.5741 9.75379 14.2222 8.11111 14.2222C4.73604 14.2222 2 11.4862 2 8.11111ZM13.0962 14.5099C11.7209 15.5829 9.99065 16.2222 8.11111 16.2222C3.63147 16.2222 0 12.5908 0 8.11111C0 3.63147 3.63147 0 8.11111 0C12.5908 0 16.2222 3.63147 16.2222 8.11111C16.2222 9.9904 15.5831 11.7204 14.5104 13.0957L17.7071 16.2924C18.0976 16.6829 18.0976 17.3161 17.7071 17.7066C17.3166 18.0971 16.6834 18.0971 16.2929 17.7066L13.0962 14.5099Z" fill="" fill-opacity=""/></symbol>
    <symbol id="calendar" viewBox="0 0 16 16" fill="none" xmlns="http://www.w3.org/2000/svg"><path d="M12.6667 2.66669H3.33333C2.59695 2.66669 2 3.26364 2 4.00002V13.3334C2 14.0697 2.59695 14.6667 3.33333 14.6667H12.6667C13.403 14.6667 14 14.0697 14 13.3334V4.00002C14 3.26364 13.403 2.66669 12.6667 2.66669Z" stroke="#999999" stroke-width="2" stroke-linecap="round" stroke-linejoin="round"/><path d="M10.6667 1.33331V3.99998" stroke="#999999" stroke-width="2" stroke-linecap="round" stroke-linejoin="round"/><path d="M5.33331 1.33331V3.99998" stroke="#999999" stroke-width="2" stroke-linecap="round" stroke-linejoin="round"/><path d="M2 6.66669H14" stroke="#999999" stroke-width="2" stroke-linecap="round" stroke-linejoin="round"/></symbol>
    <symbol id="cookie" viewBox="0 0 40 40" fill="" xmlns="http://www.w3.org/2000/svg"><path d="M39.196 18.1282C38.9553 17.9465 38.6768 17.8213 38.3812 17.7618C38.0856 17.7022 37.7803 17.7099 37.488 17.7842C37.0033 17.9197 36.5032 17.9922 36 18.0002C32.692 18.0002 30 15.3082 29.994 12.1242C30.004 12.0562 30.026 11.8562 30.028 11.7882C30.0411 11.4756 29.9804 11.1642 29.851 10.8793C29.7215 10.5944 29.5269 10.3439 29.2828 10.1481C29.0387 9.95224 28.7519 9.81655 28.4457 9.75196C28.1395 9.68737 27.8224 9.69568 27.52 9.77623C27.025 9.91568 26.5142 9.99096 26 10.0002C22.692 10.0002 20 7.30823 20 4.00023C20 3.56623 20.062 3.11223 20.198 2.56823C20.275 2.25771 20.2764 1.93326 20.202 1.6221C20.1277 1.31094 19.9798 1.02216 19.7707 0.779994C19.5617 0.537828 19.2976 0.349346 19.0006 0.230369C18.7036 0.111391 18.3825 0.0653904 18.064 0.0962272C13.111 0.557868 8.51007 2.85676 5.16693 6.54043C1.82379 10.2241 -0.0194374 15.0257 3.05836e-05 20.0002C3.05836e-05 31.0282 8.97203 40.0002 20 40.0002C31.028 40.0002 40 31.0282 40 20.0002C40 19.9022 39.994 19.8062 39.986 19.6802C39.9793 19.3788 39.9048 19.0828 39.768 18.8141C39.6313 18.5455 39.4358 18.311 39.196 18.1282ZM13 8.00023C13.7957 8.00023 14.5587 8.3163 15.1213 8.87891C15.684 9.44151 16 10.2046 16 11.0002C16 11.7959 15.684 12.5589 15.1213 13.1215C14.5587 13.6842 13.7957 14.0002 13 14.0002C12.2044 14.0002 11.4413 13.6842 10.8787 13.1215C10.3161 12.5589 10 11.7959 10 11.0002C10 10.2046 10.3161 9.44151 10.8787 8.87891C11.4413 8.3163 12.2044 8.00023 13 8.00023ZM9.00003 24.0002C8.60606 24.0002 8.21596 23.9226 7.85198 23.7719C7.488 23.6211 7.15728 23.4001 6.87871 23.1215C6.60013 22.843 6.37916 22.5123 6.22839 22.1483C6.07763 21.7843 6.00003 21.3942 6.00003 21.0002C6.00003 20.6063 6.07763 20.2162 6.22839 19.8522C6.37916 19.4882 6.60013 19.1575 6.87871 18.8789C7.15728 18.6003 7.488 18.3794 7.85198 18.2286C8.21596 18.0778 8.60606 18.0002 9.00003 18.0002C9.79568 18.0002 10.5587 18.3163 11.1214 18.8789C11.684 19.4415 12 20.2046 12 21.0002C12 21.7959 11.684 22.5589 11.1214 23.1215C10.5587 23.6842 9.79568 24.0002 9.00003 24.0002ZM15 32.0002C14.2044 32.0002 13.4413 31.6842 12.8787 31.1215C12.3161 30.5589 12 29.7959 12 29.0002C12 28.2046 12.3161 27.4415 12.8787 26.8789C13.4413 26.3163 14.2044 26.0002 15 26.0002C15.7957 26.0002 16.5587 26.3163 17.1213 26.8789C17.684 27.4415 18 28.2046 18 29.0002C18 29.7959 17.684 30.5589 17.1213 31.1215C16.5587 31.6842 15.7957 32.0002 15 32.0002ZM20 19.0002C20 18.2046 20.3161 17.4415 20.8787 16.8789C21.4413 16.3163 22.2044 16.0002 23 16.0002C23.7957 16.0002 24.5587 16.3163 25.1213 16.8789C25.684 17.4415 26 18.2046 26 19.0002C26 19.7959 25.684 20.5589 25.1213 21.1215C24.5587 21.6842 23.7957 22.0002 23 22.0002C22.2044 22.0002 21.4413 21.6842 20.8787 21.1215C20.3161 20.5589 20 19.7959 20 19.0002ZM27 32.0002C26.2044 32.0002 25.4413 31.6842 24.8787 31.1215C24.3161 30.5589 24 29.7959 24 29.0002C24 28.2046 24.3161 27.4415 24.8787 26.8789C25.4413 26.3163 26.2044 26.0002 27 26.0002C27.7957 26.0002 28.5587 26.3163 29.1213 26.8789C29.684 27.4415 30 28.2046 30 29.0002C30 29.7959 29.684 30.5589 29.1213 31.1215C28.5587 31.6842 27.7957 32.0002 27 32.0002Z" fill=""/></symbol>
    <symbol id="close" viewBox="0 0 16 16" xmlns="http://www.w3.org/2000/svg"><path d="M12 4L4 12" stroke="" stroke-width="2" stroke-linecap="round" stroke-linejoin="round"/><path d="M4 4L12 12" stroke="" stroke-width="2" stroke-linecap="round" stroke-linejoin="round"/></symbol>
    <symbol id="arrow" viewBox="0 0 24 24" fill="none" xmlns="http://www.w3.org/2000/svg"><path d="M18 14L12 8L6 14" stroke="" stroke-width="2" stroke-linecap="round" stroke-linejoin="round"/></symbol>
    <symbol id="arrow-top" viewBox="0 0 16 21" fill="none" xmlns="http://www.w3.org/2000/svg"><path d="M7 19.239C7 19.7913 7.44772 20.239 8 20.239C8.55228 20.239 9 19.7913 9 19.239L7 19.239ZM8.70711 0.531906C8.31658 0.141382 7.68342 0.141382 7.29289 0.531906L0.928933 6.89587C0.538408 7.28639 0.538408 7.91956 0.928933 8.31008C1.31946 8.70061 1.95262 8.70061 2.34315 8.31008L8 2.65323L13.6569 8.31008C14.0474 8.70061 14.6805 8.70061 15.0711 8.31008C15.4616 7.91956 15.4616 7.28639 15.0711 6.89587L8.70711 0.531906ZM9 19.239L9 1.23901L7 1.23901L7 19.239L9 19.239Z" fill="black"/></symbol>
    <symbol id="arrow-lang" viewBox="0 0 12 8" xmlns="http://www.w3.org/2000/svg"><path d="M1.40625 0.578125L0 1.98438L6 7.98438L12 1.98438L10.5938 0.578125L6 5.17188L1.40625 0.578125Z"/></symbol>
    <symbol id="menu" viewBox="0 0 24 25" xmlns="http://www.w3.org/2000/svg"><path d="M3 12.602H21" stroke="" stroke-width="2" stroke-linecap="round" stroke-linejoin="round"/><path d="M3 6.60197H21" stroke="" stroke-width="2" stroke-linecap="round" stroke-linejoin="round"/><path d="M3 18.602H21" stroke="" stroke-width="2" stroke-linecap="round" stroke-linejoin="round"/></symbol>
    <symbol id="sep" viewBox="0 0 6 6" fill="none" xmlns="http://www.w3.org/2000/svg"><path d="M0.576 5.216V0.464L5.328 2.848L0.576 5.216Z" fill="#222222"/></symbol>
    <symbol id="icon-comment" viewBox="0 0 18 18" xml:space="preserve" xmlns="http://www.w3.org/2000/svg"><path class="bst0" d="M4.5 16.4l4.6-2.9H15c.8 0 1.5-.7 1.5-1.5V3c0-.8-.7-1.5-1.5-1.5H3c-.8 0-1.5.7-1.5 1.5v9c0 .8.7 1.5 1.5 1.5h1.5v2.9zM8.6 12L6 13.6V12H3V3h12v9H8.6zM5.2 9.8V8.2h5.2v1.5H5.2zm0-4.6v1.5H12V5.2H5.2z"/></symbol>
    <symbol id="icon-eye" viewBox="0 0 18 18" xml:space="preserve" xmlns="http://www.w3.org/2000/svg"><path class="cst0" d="M9 3c2 0 4 1.1 5.8 2.8.6.6 1.2 1.2 1.7 1.9.3.4.5.7.6.9l.3.4-.3.4c-.1.2-.3.5-.6.9-.5.6-1.1 1.3-1.7 1.9C13 13.9 11 15 9 15s-4-1.1-5.8-2.8c-.6-.6-1.2-1.2-1.7-1.9-.3-.4-.5-.7-.6-.9L.6 9l.3-.4c.1-.2.3-.5.6-.9.5-.6 1.1-1.3 1.7-1.9C5 4.1 7 3 9 3zm6.3 5.6c-.5-.6-1-1.2-1.5-1.7-1.6-1.5-3.2-2.4-4.8-2.4-1.6 0-3.2.9-4.8 2.4-.5.6-1.1 1.1-1.5 1.7-.1.2-.2.3-.3.4.1.1.2.2.3.4.5.6 1 1.2 1.5 1.7 1.6 1.5 3.2 2.4 4.8 2.4 1.6 0 3.2-.9 4.8-2.4.6-.5 1.1-1.1 1.5-1.7.1-.1.2-.2.3-.4-.1-.1-.2-.2-.3-.4zM6 9c0 1.7 1.3 3 3 3s3-1.3 3-3-1.3-3-3-3-3 1.3-3 3zm4.5 0c0 .8-.7 1.5-1.5 1.5S7.5 9.8 7.5 9 8.2 7.5 9 7.5s1.5.7 1.5 1.5z"/></symbol>
    <symbol id="social-facebook" viewBox="0 0 10 18" xmlns="http://www.w3.org/2000/svg"><path d="M9.22833 0.295339L6.99404 0.291748C4.48389 0.291748 2.86172 1.9589 2.86172 4.53926V6.49765H0.615237C0.421114 6.49765 0.263916 6.6553 0.263916 6.84975V9.68723C0.263916 9.88169 0.421293 10.0392 0.615237 10.0392H2.86172V17.199C2.86172 17.3935 3.01892 17.5509 3.21304 17.5509H6.14406C6.33818 17.5509 6.49538 17.3933 6.49538 17.199V10.0392H9.12204C9.31616 10.0392 9.47336 9.88169 9.47336 9.68723L9.47444 6.84975C9.47444 6.75638 9.43733 6.66697 9.37155 6.60089C9.30577 6.53482 9.21614 6.49765 9.12294 6.49765H6.49538V4.8375C6.49538 4.03956 6.6852 3.63449 7.72285 3.63449L9.22797 3.63395C9.42192 3.63395 9.57911 3.4763 9.57911 3.28203V0.647264C9.57911 0.453166 9.4221 0.295698 9.22833 0.295339Z"/></symbol>
    <symbol id="social-twitter" viewBox="0 0 18 16" xmlns="http://www.w3.org/2000/svg"><path d="M17.7084 2.56198C17.0678 2.84797 16.3787 3.04141 15.656 3.1278C16.3939 2.68271 16.9601 1.97846 17.2274 1.13792C16.537 1.55028 15.7719 1.84941 14.9583 2.01065C14.3065 1.31177 13.3778 0.875 12.3495 0.875C10.3765 0.875 8.77624 2.48606 8.77624 4.47244C8.77624 4.75441 8.80795 5.02887 8.86924 5.29233C5.89957 5.14235 3.26648 3.71024 1.50397 1.53311C1.19645 2.06431 1.02004 2.68271 1.02004 3.34189C1.02004 4.58969 1.65133 5.69127 2.6096 6.33623C2.02414 6.31771 1.47279 6.15594 0.991261 5.88577C0.990994 5.90107 0.990994 5.91636 0.990994 5.93138C0.990994 7.67444 2.2232 9.12828 3.85753 9.45854C3.55801 9.54117 3.24169 9.5849 2.91632 9.5849C2.68555 9.5849 2.46197 9.56263 2.24399 9.52078C2.6986 10.9497 4.01795 11.9898 5.58193 12.0191C4.35878 12.9841 2.81825 13.559 1.14369 13.559C0.855888 13.559 0.570754 13.5421 0.291748 13.5086C1.87225 14.5297 3.75094 15.125 5.76873 15.125C12.3412 15.125 15.9355 9.64338 15.9355 4.88909C15.9355 4.73322 15.9321 4.57788 15.9251 4.42388C16.6238 3.91682 17.2295 3.2834 17.7084 2.56198Z"/></symbol>
    <symbol id="share" viewBox="0 0 15 18" xmlns="http://www.w3.org/2000/svg"><path opacity="0.8" d="M12.5 12.2642C13.1771 12.2642 13.75 12.5159 14.2188 13.0192C14.6875 13.496 14.9219 14.0655 14.9219 14.7278C14.9219 15.4165 14.6745 16.0125 14.1797 16.5158C13.7109 16.9926 13.151 17.231 12.5 17.231C11.849 17.231 11.276 16.9926 10.7812 16.5158C10.3125 16.0125 10.0781 15.4165 10.0781 14.7278C10.0781 14.4629 10.0911 14.2775 10.1172 14.1715L4.21875 10.6749C3.72396 11.1252 3.15104 11.3504 2.5 11.3504C1.82292 11.3504 1.23698 11.0987 0.742188 10.5954C0.247396 10.0921 0 9.49608 0 8.80735C0 8.11862 0.247396 7.52261 0.742188 7.01931C1.23698 6.51601 1.82292 6.26435 2.5 6.26435C3.15104 6.26435 3.72396 6.48952 4.21875 6.93984L10.0781 3.48295C10.026 3.21805 10 3.01938 10 2.88693C10 2.19821 10.2474 1.60219 10.7422 1.09889C11.237 0.595586 11.8229 0.343935 12.5 0.343935C13.1771 0.343935 13.763 0.595586 14.2578 1.09889C14.7526 1.60219 15 2.19821 15 2.88693C15 3.57566 14.7526 4.17168 14.2578 4.67498C13.763 5.17828 13.1771 5.42993 12.5 5.42993C11.875 5.42993 11.3021 5.19153 10.7812 4.71471L4.92188 8.21134C4.97396 8.47623 5 8.67491 5 8.80735C5 8.9398 4.97396 9.13847 4.92188 9.40337L10.8594 12.9C11.3281 12.4762 11.875 12.2642 12.5 12.2642Z"/></symbol>
    <symbol id="link" viewBox="0 0 20 20" xmlns="http://www.w3.org/2000/svg"><path fill-rule="evenodd" clip-rule="evenodd" d="M15.9932 4.00838C14.6353 2.65049 12.4337 2.65049 11.0758 4.00838L9.22123 5.86297C8.78668 6.29752 8.08213 6.29752 7.64757 5.86297C7.21302 5.42841 7.21302 4.72386 7.64757 4.2893L9.50215 2.43472C11.7292 0.207712 15.3398 0.207716 17.5668 2.43472C19.7939 4.66173 19.7939 8.27241 17.5668 10.4994L15.7123 12.354C13.4853 14.581 9.87457 14.581 7.64757 12.354C7.29584 12.0023 6.99872 11.6147 6.75715 11.2024C6.44647 10.6722 6.62446 9.99047 7.1547 9.67979C7.68494 9.36911 8.36664 9.5471 8.67732 10.0773C8.82381 10.3274 9.00481 10.5639 9.22123 10.7803C10.5791 12.1382 12.7807 12.1382 14.1386 10.7803L15.9932 8.92576C17.3511 7.56786 17.3511 5.36628 15.9932 4.00838ZM10.4294 9.57213C9.07154 8.21423 6.86997 8.21423 5.51207 9.57213L3.65749 11.4267C2.2996 12.7846 2.2996 14.9862 3.65749 16.3441C5.01539 17.702 7.21696 17.702 8.57486 16.3441L10.4294 14.4895C10.864 14.0549 11.5685 14.0549 12.0031 14.4895C12.4377 14.9241 12.4377 15.6286 12.0031 16.0632L10.1485 17.9177C7.92151 20.1448 4.31083 20.1447 2.08383 17.9177C-0.143177 15.6907 -0.143176 12.08 2.08383 9.85304L3.93841 7.99846C6.16542 5.77146 9.7761 5.77146 12.0031 7.99846C12.3548 8.35019 12.652 8.73775 12.8935 9.15005C13.2042 9.68029 13.0262 10.362 12.496 10.6727C11.9657 10.9834 11.284 10.8054 10.9734 10.2751C10.8269 10.0251 10.6459 9.78856 10.4294 9.57213Z" /></symbol>
    <symbol id="comm-arrow" viewBox="0 0 20 16" xmlns="http://www.w3.org/2000/svg"><path d="M12.2222 10.8125C4.7451 9.20535 0.958606 13.2679 0 15.5C0 7.99999 8.14815 5.23214 12.2222 4.78571V10.8125Z"/><path d="M11.1111 0.5L20 8L11.1111 15.5V0.5Z" /></symbol>
    <symbol id="logo" viewBox="0 0 129 41" fill="none" xmlns="http://www.w3.org/2000/svg"><path d="M35.5 26.6091V24.7341V22.8591V20.9841H33.625H31.75H29.875V22.8591V24.7341V26.6091H28V24.7341V22.8591V20.9841V19.1091V17.2341V15.3591V13.4841H29.875V15.3591V17.2341V19.1091H31.75H33.625H35.5V17.2341V15.3591V13.4841H37.375V15.3591V17.2341V19.1091V20.9841V22.8591V24.7341V26.6091H35.5ZM46.75 26.6091V24.7341V22.8591H44.875H43H41.125V24.7341V26.6091H39.25V24.7341V22.8591V20.9841V19.1091V17.2341V15.3591H41.125V17.2341V19.1091V20.9841H43H44.875H46.75V19.1091V17.2341V15.3591H48.625V17.2341V19.1091V20.9841V22.8591V24.7341V26.6091H46.75ZM46.75 15.3591H44.875H43H41.125V13.4841H43H44.875H46.75V15.3591ZM58 28.4841H56.125V26.6091H54.25H52.375V24.7341H54.25H56.125H58V26.6091H59.875V28.4841H58ZM58 24.7341V22.8591V20.9841V19.1091V17.2341V15.3591H59.875V17.2341V19.1091V20.9841V22.8591V24.7341H58ZM52.375 24.7341H50.5V22.8591V20.9841V19.1091V17.2341V15.3591H52.375V17.2341V19.1091V20.9841V22.8591V24.7341ZM58 15.3591H56.125H54.25H52.375V13.4841H54.25H56.125H58V15.3591ZM69.25 24.7341H71.125V26.6091H69.25H67.375H65.5H63.625H61.75V24.7341V22.8591V20.9841V19.1091V17.2341V15.3591V13.4841H63.625H65.5H67.375H69.25H71.125V15.3591H69.25H67.375H65.5H63.625V17.2341V19.1091H65.5H67.375H69.25V20.9841H67.375H65.5H63.625V22.8591V24.7341H65.5H67.375H69.25ZM80.5 26.6091V24.7341V22.8591V20.9841H82.375V22.8591V24.7341V26.6091H80.5ZM73 26.6091V24.7341V22.8591V20.9841V19.1091V17.2341V15.3591V13.4841H74.875H76.75H78.625H80.5V15.3591H82.375V17.2341V19.1091H80.5V17.2341V15.3591H78.625H76.75H74.875V17.2341V19.1091H76.75H78.625H80.5V20.9841H78.625H76.75H74.875V22.8591V24.7341V26.6091H73ZM91.75 26.6091V24.7341V22.8591V20.9841H93.625V22.8591V24.7341V26.6091H91.75ZM84.25 26.6091V24.7341V22.8591V20.9841V19.1091V17.2341V15.3591V13.4841H86.125H88H89.875H91.75V15.3591H93.625V17.2341V19.1091H91.75V17.2341V15.3591H89.875H88H86.125V17.2341V19.1091H88H89.875H91.75V20.9841H89.875H88H86.125V22.8591V24.7341V26.6091H84.25ZM103 26.6091V24.7341V22.8591H101.125H99.25H97.375V24.7341V26.6091H95.5V24.7341V22.8591V20.9841V19.1091V17.2341V15.3591H97.375V17.2341V19.1091V20.9841H99.25H101.125H103V19.1091V17.2341V15.3591H104.875V17.2341V19.1091V20.9841V22.8591V24.7341V26.6091H103ZM103 15.3591H101.125H99.25H97.375V13.4841H99.25H101.125H103V15.3591Z" fill="#00FF55"/><path d="M8.55249 12.3027H6.29834V18.9693H5.14917H4V23.421V27.8726H5.14917H6.29834V28.9909V30.1091H12H17.7017V28.9909V27.8726H18.8508H20L19.9912 23.4296L19.9779 18.9909L14.2674 18.9779L8.55249 18.9693V14.5392H10.8508V12.3027H13.1492V14.5392H15.4033V16.7328H17.7017V14.5177V12.3027H15.4033V10.1091H11.9779H8.55249V12.3027ZM13.1492 25.6575V27.8726H12H10.8508V25.6575V23.4425H12H13.1492V25.6575Z" fill="#00FF55"/></symbol
    <symbol id="icon-visa" viewBox="0 0 48 33" fill="none" xmlns="http://www.w3.org/2000/svg"><g clip-path="url(#clip0_881_1884)"><path d="M0 4.25C0 2.04086 1.79086 0.25 4 0.25H44C46.2091 0.25 48 2.04086 48 4.25V28.25C48 30.4591 46.2091 32.25 44 32.25H4C1.79086 32.25 0 30.4591 0 28.25V4.25Z" fill="#EFF2F7"/><path d="M41.3105 10.2849H38.7959C38.0357 10.2849 37.4509 10.5188 37.1 11.2791L32.3047 22.2147H35.6965C35.6965 22.2147 36.2813 20.7527 36.3983 20.4019C36.7491 20.4019 40.0825 20.4019 40.5503 20.4019C40.6673 20.8112 40.9597 22.1563 40.9597 22.1563H44.0006L41.3105 10.2849ZM37.3339 17.9457C37.6263 17.244 38.6205 14.6124 38.6205 14.6124C38.6205 14.6709 38.9129 13.9106 39.0298 13.5013L39.2638 14.5539C39.2638 14.5539 39.907 17.4194 40.024 18.0042H37.3339V17.9457Z" fill="#3362AB"/><path d="M32.5385 18.2965C32.5385 20.7526 30.3163 22.3901 26.866 22.3901C25.404 22.3901 24.0005 22.0977 23.2402 21.7468L23.7081 19.0567L24.1174 19.2322C25.1701 19.7 25.8718 19.8755 27.1584 19.8755C28.094 19.8755 29.0882 19.5246 29.0882 18.7059C29.0882 18.1796 28.6788 17.8287 27.3923 17.2439C26.1642 16.6591 24.5268 15.7234 24.5268 14.0275C24.5268 11.6883 26.8075 10.1094 30.0239 10.1094C31.2519 10.1094 32.3046 10.3433 32.9478 10.6357L32.48 13.2088L32.2461 12.9749C31.6613 12.741 30.9011 12.507 29.7899 12.507C28.5619 12.5655 27.9771 13.0918 27.9771 13.5597C27.9771 14.086 28.6788 14.4953 29.7899 15.0217C31.6613 15.8988 32.5385 16.893 32.5385 18.2965Z" fill="#3362AB"/><path d="M4 10.4019L4.05848 10.168H9.08772C9.78947 10.168 10.3158 10.4019 10.4912 11.1621L11.6023 16.4253C10.4912 13.6183 7.91813 11.3376 4 10.4019Z" fill="#F9B50B"/><path d="M18.6788 10.285L13.5911 22.1564H10.1408L7.2168 12.2149C9.32206 13.5599 11.0764 15.6652 11.7197 17.1271L12.0706 18.3552L15.2285 10.2266H18.6788V10.285Z" fill="#3362AB"/><path d="M20.0233 10.2266H23.2397L21.1929 22.1564H17.9766L20.0233 10.2266Z" fill="#3362AB"/></g><defs><clipPath id="clip0_881_1884"><rect width="48" height="32" fill="white" transform="translate(0 0.25)"/></clipPath></defs></symbol>
    <symbol id="icon-mastercard" viewBox="0 0 48 33" fill="none" xmlns="http://www.w3.org/2000/svg"><g clip-path="url(#clip0_881_1892)"><path d="M0 4.25C0 2.04086 1.79086 0.25 4 0.25H44C46.2091 0.25 48 2.04086 48 4.25V28.25C48 30.4591 46.2091 32.25 44 32.25H4C1.79086 32.25 0 30.4591 0 28.25V4.25Z" fill="#EFF2F6"/><path d="M27.8551 8.95887L19.9043 8.98621L20.1452 23.5421L28.096 23.5147L27.8551 8.95887Z" fill="#FF5F00"/><path d="M20.4271 16.2935C20.3779 13.3329 21.7041 10.7024 23.7814 8.99605C22.2134 7.76564 20.2477 7.02576 18.1168 7.03305C13.0686 7.05034 9.05325 11.2091 9.13839 16.3321C9.22352 21.4552 13.3766 25.5859 18.4248 25.5687C20.5557 25.5614 22.4966 24.8081 24.0236 23.5671C21.8902 21.9009 20.4763 19.254 20.4271 16.2935Z" fill="#EB001B"/><path d="M38.8615 16.1688C38.9466 21.2918 34.9313 25.4506 29.8831 25.4679C27.7522 25.4751 25.7864 24.7353 24.2184 23.5049C26.3211 21.7985 27.622 19.168 27.5728 16.2074C27.5236 13.2469 26.1101 10.6257 23.9763 8.93382C25.5032 7.69281 27.4441 6.93955 29.575 6.93225C34.6232 6.91496 38.7768 11.0715 38.8615 16.1688Z" fill="#F79E1B"/></g><defs><clipPath id="clip0_881_1892"><rect width="48" height="32" fill="white" transform="translate(0 0.25)"/></clipPath></defs></symbol>
    <symbol id="icon-amex" viewBox="0 0 48 33" fill="none" xmlns="http://www.w3.org/2000/svg"><rect y="0.25" width="48" height="32" rx="4" fill="#016FD0"/><path d="M9.39639 11.25L5 20.9791H10.2631L10.9156 19.4278H12.407L13.0594 20.9791H18.8526V19.7951L19.3688 20.9791H22.3655L22.8817 19.7701V20.9791H34.93L36.395 19.4681L37.7668 20.9791L43.955 20.9916L39.5447 16.1417L43.955 11.25H37.8627L36.4366 12.733L35.1081 11.25H22.0011L20.8756 13.7612L19.7237 11.25H14.4716V12.3937L13.8874 11.25C13.8874 11.25 9.39639 11.25 9.39639 11.25ZM10.4148 12.6315H12.9802L15.8964 19.2289V12.6315H18.7067L20.9591 17.3618L23.0349 12.6315H25.8313V19.6128H24.1297L24.1159 14.1423L21.6352 19.6128H20.1132L17.6186 14.1423V19.6128H14.1182L13.4546 18.0477H9.86941L9.20718 19.6114H7.33171L10.4148 12.6315ZM27.388 12.6315H34.3067L36.4228 14.9173L38.6071 12.6315H40.7232L37.508 16.1403L40.7232 19.6087H38.5111L36.395 17.2963L34.1995 19.6087H27.388V12.6315ZM11.6628 13.8127L10.4816 16.6008H12.8426L11.6628 13.8127ZM29.0965 14.077V15.3514H32.871V16.7719H29.0965V18.1632H33.3301L35.2973 16.1139L33.4136 14.0758H29.0965V14.077Z" fill="white"/></symbol>
    <symbol id="icon-discover" viewBox="0 0 48 33" fill="none" xmlns="http://www.w3.org/2000/svg"><g clip-path="url(#clip0_881_1903)"><path d="M0 4.25C0 2.04086 1.79086 0.25 4 0.25H44C46.2091 0.25 48 2.04086 48 4.25V28.25C48 30.4591 46.2091 32.25 44 32.25H4C1.79086 32.25 0 30.4591 0 28.25V4.25Z" fill="#EFF2F6"/><path d="M28.5803 16.2324C28.5839 15.3727 28.2616 14.5117 27.6129 13.8629C26.9627 13.2128 26.0996 12.8907 25.2381 12.8959C25.234 12.8959 25.23 12.8956 25.2257 12.8956C23.355 12.8956 21.8711 14.3792 21.8711 16.2505C21.8711 18.1033 23.3733 19.605 25.2257 19.605C27.097 19.605 28.5807 18.1212 28.5807 16.2505C28.5807 16.2443 28.5803 16.2385 28.5803 16.2324Z" fill="#F26E21"/><path d="M21.2473 17.6696C20.7459 18.1715 20.2832 18.3676 19.7847 18.3783C18.5703 18.3674 17.6775 17.468 17.6775 16.1859C17.6775 15.5405 17.9219 15.0115 18.309 14.5596C18.672 14.2149 19.1397 13.9922 19.6775 13.9922C20.2581 13.9922 20.7099 14.1858 21.2257 14.7019V13.2181C20.71 12.9602 20.258 12.8311 19.6775 12.8311C18.8574 12.8897 18.0842 13.221 17.491 13.7414C17.3201 13.8952 17.1563 14.065 17.0174 14.2593C16.5841 14.8208 16.3223 15.5084 16.3223 16.2506C16.3223 18.1213 17.8066 19.5406 19.6774 19.5406C19.6865 19.5406 19.6956 19.5398 19.7044 19.5397C19.717 19.5399 19.7294 19.5406 19.7419 19.5406C20.2579 19.5406 20.7099 19.4119 21.2904 19.1538L21.2473 17.6696C21.2256 17.6914 21.2689 17.7116 21.2473 17.7322V17.6696Z" fill="#2B2B2B"/><path d="M32.8154 13.7551L31.3544 17.3472L29.6769 13.0889H28.3223L30.9673 19.605H31.6769L34.4511 13.0889H33.0965L32.8154 13.7551Z" fill="#2B2B2B"/><path d="M34.9688 15.9276V19.4117H38.4528H38.517V18.3791H37.4203H36.259V17.2181V16.6377H38.4528V15.5405H36.259V14.1858H38.517V13.0889H34.9688V15.9276Z" fill="#2B2B2B"/><path d="M5.80678 13.0889H4V19.4117H5.80669C6.77427 19.4117 7.48383 19.1535 8.06447 18.7018C8.77403 18.1212 9.22584 17.2182 9.22584 16.2506C9.22593 14.3792 7.87086 13.0889 5.80678 13.0889ZM7.29049 17.8633C6.90337 18.1858 6.38724 18.3791 5.61299 18.3791H5.22587V14.1857H5.5484C6.32264 14.1857 6.83878 14.3147 7.22599 14.7017C7.67753 15.0885 7.93573 15.6695 7.93573 16.2504C8.00023 16.831 7.74221 17.4759 7.29049 17.8633Z" fill="#2B2B2B"/><path d="M11.0324 13.0881H9.80664V19.4108H11.0324V13.0881Z" fill="#2B2B2B"/><path d="M14.1297 15.5405C13.3556 15.2824 13.1618 15.0887 13.1618 14.7663C13.1618 14.3792 13.5489 14.0567 14.0651 14.0567C14.4522 14.0567 14.7747 14.1858 15.0973 14.5729L15.7427 13.7342C15.2264 13.2824 14.5815 13.0247 13.8717 13.0247C12.7747 13.0247 11.8714 13.7989 11.8714 14.8308C11.8714 15.7342 12.2589 16.1213 13.42 16.5729C13.9362 16.7662 14.1298 16.8309 14.259 16.9599C14.5166 17.0888 14.6459 17.3471 14.6459 17.6048C14.6459 18.121 14.259 18.5082 13.678 18.5082C13.0969 18.5082 12.5812 18.1857 12.3231 17.6695L11.5488 18.4437C12.1297 19.2824 12.8394 19.6694 13.7426 19.6694C15.0328 19.6694 15.9356 18.8308 15.9356 17.6048C15.9358 16.5083 15.5491 16.0567 14.1297 15.5405Z" fill="#2B2B2B"/><path d="M42.0008 16.7662C42.9682 16.573 43.4845 15.9276 43.4845 14.9601C43.4845 13.799 42.6457 13.0889 41.2266 13.0889H39.3555V19.4117H40.5813V16.8953H40.775L42.5165 19.4117H44.0006L42.0008 16.7662ZM40.9682 15.992H40.5813V14.0567H40.9682C41.7424 14.0567 42.1942 14.3792 42.1942 15.0247C42.1942 15.6696 41.7425 15.992 40.9682 15.992Z" fill="#2B2B2B"/></g><defs><clipPath id="clip0_881_1903"><rect width="48" height="32" fill="white" transform="translate(0 0.25)"/></clipPath></defs></symbol>

</svg>