<svg width="40" height="40" viewBox="0 0 40 40" fill="none" xmlns="http://www.w3.org/2000/svg">
<g clip-path="url(#clip0_28_1674)">
<path d="M10.0296 21.2161H8.23578C7.7652 21.2161 7.34039 21.4963 7.15424 21.9278L2.18842 33.4906L13.9816 27.4674C12.5699 25.5139 11.1731 23.3594 10.0296 21.2161Z" fill="#F2B601"/>
<path d="M32.8454 21.9278C32.6596 21.4963 32.2345 21.2161 31.7642 21.2161H29.9704C27.8109 25.2628 24.6649 29.4446 22.6635 31.7453C21.2561 33.3597 18.742 33.3579 17.3367 31.7453C17.193 31.5802 16.4425 30.7114 15.4089 29.3753L13.2827 30.4617L21.3253 38.4888L36.5646 30.5884L32.8454 21.9278Z" fill="#F2B601"/>
<path d="M0.737636 36.8698L0.0961568 38.3636C-0.235874 39.1366 0.332973 40 1.17739 40H18.447C18.555 39.9197 18.5562 39.9246 19.1361 39.624L11.0816 31.5863L0.737636 36.8698Z" fill="#F2B601"/>
<path d="M39.9039 38.3636L37.4942 32.7527L23.5147 40H38.8226C39.6652 40 40.2365 39.1382 39.9039 38.3636Z" fill="#F2B601"/>
<path d="M21.1764 10.5722C21.1764 9.92462 20.6484 9.39819 19.9999 9.39819C19.3511 9.39819 18.8235 9.92462 18.8235 10.5722C18.8235 11.2195 19.3511 11.7462 19.9999 11.7462C20.6484 11.7462 21.1764 11.2195 21.1764 10.5722Z" fill="#F2B601"/>
<path d="M20.8878 30.1264C21.2839 29.6717 30.5878 18.9093 30.5878 11.5113C30.5878 -3.74387 9.41229 -3.93003 9.41229 11.5113C9.41229 18.9093 18.7162 29.6717 19.1123 30.1264C19.5814 30.6644 20.4197 30.6638 20.8878 30.1264ZM16.4707 10.5722C16.4707 8.6301 18.054 7.05021 20.0001 7.05021C21.9459 7.05021 23.5291 8.6301 23.5291 10.5722C23.5291 12.5141 21.9459 14.094 20.0001 14.094C18.054 14.094 16.4707 12.5141 16.4707 10.5722Z" fill="#F2B601"/>
</g>
<defs>
<clipPath id="clip0_28_1674">
<rect width="40" height="40" fill="white"/>
</clipPath>
</defs>
</svg>
