<svg width="40" height="40" viewBox="0 0 40 40" fill="none" xmlns="http://www.w3.org/2000/svg">
<path d="M25.6563 12.2021C26.3035 12.2021 26.8281 11.6774 26.8281 11.0302C26.8281 10.383 26.3035 9.85834 25.6563 9.85834C25.009 9.85834 24.4844 10.383 24.4844 11.0302C24.4844 11.6774 25.009 12.2021 25.6563 12.2021Z" fill="#F2B601"/>
<path d="M9.3575 19.1336L0 29.569V37.7921C0 38.2508 0.267656 38.6674 0.684922 38.858C0.840782 38.9292 1.0068 38.964 1.17164 38.964C1.44828 38.964 1.7218 38.8661 1.93898 38.6779L10.8866 30.9291H33.0158L14.7126 18.4826C13.0288 17.3475 10.725 17.6262 9.3575 19.1336Z" fill="#F2B601"/>
<path d="M11.6347 15.4838C13.1776 15.2971 14.7378 15.6729 16.0266 16.5419L21.853 20.5038L25.6655 17.978C27.4746 16.7794 29.7487 16.567 31.7486 17.4097L40 20.8987V2.20789C40 1.5607 39.4753 1.03601 38.8281 1.03601H1.17188C0.524687 1.03601 0 1.5607 0 2.20789V26.0582L7.61711 17.5637C8.66625 16.4075 10.0914 15.6706 11.6347 15.4838ZM25.6563 7.5146C27.5948 7.5146 29.172 9.09171 29.172 11.0302C29.172 12.9687 27.5948 14.5458 25.6563 14.5458C23.7178 14.5458 22.1407 12.9687 22.1407 11.0302C22.1407 9.09171 23.7178 7.5146 25.6563 7.5146ZM6.50102 5.72351H13.4998C14.147 5.72351 14.6717 6.2482 14.6717 6.89538C14.6717 7.54257 14.147 8.06726 13.4998 8.06726H6.50102C5.85383 8.06726 5.32914 7.54257 5.32914 6.89538C5.32914 6.2482 5.85383 5.72351 6.50102 5.72351ZM5.32914 11.5829C5.32914 10.9357 5.85383 10.411 6.50102 10.411H10.3748C11.022 10.411 11.5467 10.9357 11.5467 11.5829C11.5467 12.2301 11.022 12.7548 10.3748 12.7548H6.50102C5.85383 12.7548 5.32914 12.2301 5.32914 11.5829Z" fill="#F2B601"/>
<path d="M26.9598 19.9319L23.947 21.928L37.1838 30.9292H38.8281C39.4753 30.9292 40 30.4045 40 29.7573V23.4433L30.8372 19.569C29.5633 19.0323 28.1134 19.1678 26.9598 19.9319Z" fill="#F2B601"/>
</svg>
