<svg width="40" height="40" viewBox="0 0 40 40" fill="none" xmlns="http://www.w3.org/2000/svg">
<g clip-path="url(#clip0_28_1723)">
<path d="M13.7084 2.34375H19.4957C19.9482 2.34375 20.315 2.12406 20.5287 1.72523L21.4528 0H11.7509L12.6755 1.72539C12.8892 2.12414 13.256 2.34375 13.7084 2.34375Z" fill="#F2B601"/>
<path d="M18.6239 34.3605C17.7678 35.0742 16.6881 35.4673 15.5838 35.4673C14.8823 35.4673 14.2013 35.3149 13.5595 35.0142C11.8695 34.2223 10.82 32.5712 10.8203 30.7051V14.3918C10.8203 11.5399 13.1402 9.21977 15.9918 9.21977H29.4922V3.51562C29.4922 1.57711 27.9151 0 25.9766 0H24.1115L22.5947 2.8318C21.9723 3.99375 20.8138 4.6875 19.4956 4.6875H13.7084C12.3905 4.6875 11.232 3.99398 10.6096 2.83242L9.0918 0H7.22656C5.28805 0 3.71094 1.57711 3.71094 3.51562V36.4844C3.71094 38.4229 5.28805 40 7.22656 40H25.9766C27.9151 40 29.4922 38.4229 29.4922 36.4844V32.7327H20.5767L18.6239 34.3605Z" fill="#F2B601"/>
<path d="M26.6878 18.9338C26.2882 18.9338 25.9247 19.1847 25.7834 19.5582C25.611 20.0139 25.1746 20.3153 24.6874 20.3153C24.2003 20.3153 23.7639 20.0139 23.5915 19.5582C23.4501 19.1847 23.0867 18.9338 22.6871 18.9338C22.1542 18.9338 21.7206 19.3674 21.7206 19.9003C21.7206 20.1468 22.0185 20.8713 23.1344 22.0223C23.6933 22.5988 24.2731 23.0941 24.7031 23.4266C25.2151 23.0491 25.8377 22.517 26.3753 21.9491C27.3195 20.9518 27.6545 20.2222 27.6545 19.9003C27.6545 19.3673 27.2209 18.9338 26.6878 18.9338Z" fill="#F2B601"/>
<path d="M33.4613 11.5635H15.9918C14.4326 11.5635 13.1641 12.8323 13.1641 14.3918V30.7055C13.1639 31.6523 13.6964 32.4901 14.5539 32.8919C14.8856 33.0473 15.2363 33.1236 15.5838 33.1236C16.1346 33.1236 16.6773 32.932 17.1232 32.5602L19.728 30.3889H33.4613C35.0205 30.3889 36.2891 29.1201 36.2891 27.5606V14.3918C36.2891 12.8323 35.0205 11.5635 33.4613 11.5635ZM25.2734 25.8586C25.0921 25.9633 24.8898 26.0156 24.6874 26.0156C24.4851 26.0156 24.2827 25.9633 24.1014 25.8586C23.5374 25.5329 22.417 24.6494 21.4516 23.6536C20.0555 22.2137 19.3768 20.986 19.3768 19.9002C19.3768 18.0749 20.8618 16.5899 22.687 16.5899C23.4226 16.5899 24.1223 16.8384 24.6873 17.267C25.2524 16.8384 25.9522 16.5899 26.6877 16.5899C28.513 16.5899 29.998 18.0749 29.998 19.9002C29.9982 22.3652 26.5348 25.1303 25.2734 25.8586Z" fill="#F2B601"/>
</g>
<defs>
<clipPath id="clip0_28_1723">
<rect width="40" height="40" fill="white"/>
</clipPath>
</defs>
</svg>
