<svg width="64" height="64" viewBox="0 0 64 64" fill="none" xmlns="http://www.w3.org/2000/svg">
<path d="M45.3333 18.6668H58.6667V45.3335H45.3333V50.6668C45.3333 51.3741 45.6143 52.0523 46.1144 52.5524C46.6145 53.0525 47.2927 53.3335 48 53.3335H53.3333V58.6668H46.6667C45.2 58.6668 42.6667 57.4668 42.6667 56.0002C42.6667 57.4668 40.1333 58.6668 38.6667 58.6668H32V53.3335H37.3333C38.0406 53.3335 38.7188 53.0525 39.2189 52.5524C39.719 52.0523 40 51.3741 40 50.6668V13.3335C40 12.6263 39.719 11.948 39.2189 11.4479C38.7188 10.9478 38.0406 10.6668 37.3333 10.6668H32V5.3335H38.6667C40.1333 5.3335 42.6667 6.5335 42.6667 8.00016C42.6667 6.5335 45.2 5.3335 46.6667 5.3335H53.3333V10.6668H48C47.2927 10.6668 46.6145 10.9478 46.1144 11.4479C45.6143 11.948 45.3333 12.6263 45.3333 13.3335V18.6668ZM5.33333 18.6668H34.6667V24.0002H10.6667V40.0002H34.6667V45.3335H5.33333V18.6668ZM53.3333 40.0002V24.0002H45.3333V40.0002H53.3333Z" fill="#F2B601"/>
</svg>
