<svg xmlns="http://www.w3.org/2000/svg" viewBox="0 0 72 72" xml:space="preserve"><path fill="#656C7B" d="M36 72v-2c.7 0 1.3 0 1.9-.1l.1 2c-.6.1-1.3.1-2 .1zm-2.1-.1c-.7 0-1.4-.1-2-.2l.2-2c.6.1 1.3.1 1.9.2l-.1 2zm6.2-.1-.2-2c.6-.1 1.3-.2 1.9-.3l.3 2c-.6.1-1.3.2-2 .3zm-10.2-.3c-.7-.1-1.4-.3-2-.4l.5-1.9c.6.1 1.3.3 1.9.4l-.4 1.9zm14.3-.4-.5-1.9c.6-.1 1.3-.3 1.9-.5l.6 1.9c-.7.1-1.4.3-2 .5zm-18.3-.5c-.7-.2-1.3-.4-2-.6l.7-1.9 1.8.6-.5 1.9zm22.2-.7-.7-1.9c.6-.2 1.2-.5 1.8-.7l.8 1.8c-.6.3-1.3.6-1.9.8zM22 69.2c-.6-.3-1.3-.6-1.9-.9l.9-1.8c.6.3 1.2.6 1.8.8l-.8 1.9zm29.9-.9-.9-1.8c.6-.3 1.2-.6 1.7-.9l1 1.7c-.6.4-1.2.7-1.8 1zm-33.6-1c-.6-.3-1.2-.7-1.8-1.1l1.1-1.7c.5.3 1.1.7 1.7 1l-1 1.8zm37.2-1-1.1-1.7c.5-.4 1.1-.7 1.6-1.1l1.2 1.6c-.6.4-1.2.8-1.7 1.2zm-40.7-1.2c-.6-.4-1.1-.8-1.6-1.3l1.3-1.5 1.5 1.2-1.2 1.6zm44-1.2-1.3-1.5c.5-.4 1-.8 1.5-1.3l1.4 1.5c-.6.4-1.1.8-1.6 1.3zm-47.2-1.4c-.5-.5-1-.9-1.5-1.4l1.4-1.4 1.4 1.4-1.3 1.4zm50.2-1.4-1.4-1.4c.5-.5.9-.9 1.3-1.4l1.5 1.3c-.5.5-.9 1-1.4 1.5zm-53-1.5c-.4-.5-.9-1-1.3-1.6l1.6-1.2 1.2 1.5-1.5 1.3zM64.5 58l-1.6-1.2c.4-.5.8-1 1.1-1.6l1.7 1.1c-.4.6-.8 1.2-1.2 1.7zM6.3 56.3c-.4-.6-.8-1.1-1.1-1.7l1.7-1c.3.6.7 1.1 1.1 1.6l-1.7 1.1zm60.5-1.7-1.7-1c.3-.6.7-1.1 1-1.7l1.8.9c-.4.6-.7 1.2-1.1 1.8zM4.2 52.8 3.3 51l1.8-.8c.3.6.6 1.2.9 1.7l-1.8.9zM68.8 51l-1.8-.8c.3-.6.5-1.2.8-1.8l1.9.7c-.4.6-.7 1.2-.9 1.9zM2.4 49.1c-.2-.6-.5-1.3-.7-1.9l1.9-.6c.2.6.4 1.2.7 1.8l-1.9.7zm67.8-2-1.9-.6c.2-.6.4-1.2.5-1.9l1.9.5c0 .7-.2 1.4-.5 2zm-69-1.9c-.2-.7-.3-1.3-.5-2l2-.4c.1.6.3 1.3.4 1.9l-1.9.5zm70.1-2.1-2-.4c.1-.6.2-1.3.3-1.9l2 .3c-.1.7-.2 1.4-.3 2zm-70.9-2c-.1-.7-.2-1.4-.2-2l2-.2c.1.6.1 1.3.2 1.9l-2 .3zm71.5-2-2-.2c.1-.6.1-1.3.1-1.9l2 .1c0 .6-.1 1.3-.1 2zM0 37v-2h2v2H0zm70-2c0-.7-.1-1.3-.1-1.9l2-.2c.1.7.1 1.4.1 2.1h-2zM2.1 33.1l-2-.2c.1-.7.1-1.4.2-2l2 .3c0 .6-.1 1.2-.2 1.9zm67.6-1.9c-.1-.6-.2-1.3-.3-1.9l2-.4c.1.7.3 1.3.3 2l-2 .3zm-67-2-2-.4c.1-.7.3-1.3.5-2l1.9.5c-.2.7-.3 1.3-.4 1.9zm66.2-1.8c-.2-.6-.3-1.2-.5-1.9l1.9-.6c.2.7.4 1.3.6 2l-2 .5zM3.7 25.5l-1.9-.6c.2-.7.4-1.3.7-1.9l1.9.7c-.3.6-.5 1.2-.7 1.8zm64-1.8c-.2-.6-.5-1.2-.8-1.8l1.8-.8c.3.6.6 1.3.8 1.9l-1.8.7zM5.1 21.9 3.2 21l.9-1.8 1.8.9c-.3.6-.6 1.2-.8 1.8zm61-1.8c-.3-.6-.6-1.1-1-1.7l1.7-1c.4.6.7 1.2 1 1.8l-1.7.9zM6.9 18.4l-1.7-1c.4-.6.7-1.2 1.1-1.7l1.6 1.1c-.3.5-.7 1.1-1 1.6zm57.2-1.6c-.4-.5-.7-1.1-1.1-1.6l1.6-1.2c.4.5.8 1.1 1.2 1.7l-1.7 1.1zm-55-1.6L7.5 14c.4-.5.9-1.1 1.3-1.6l1.5 1.3-1.2 1.5zm52.6-1.5c-.4-.5-.9-1-1.3-1.4l1.4-1.4c.5.5.9 1 1.4 1.5l-1.5 1.3zm-50.1-1.4-1.4-1.4c.5-.5 1-1 1.5-1.4l1.4 1.5c-.6.4-1 .8-1.5 1.3zM59 11c-.5-.4-1-.9-1.5-1.3l1.3-1.5c.5.4 1 .9 1.6 1.3L59 11zM14.5 9.7l-1.3-1.5c.5-.4 1.1-.9 1.6-1.3L16 8.5l-1.5 1.2zM56 8.5c-.5-.4-1.1-.7-1.6-1.1l1.1-1.7c.6.4 1.1.8 1.7 1.2L56 8.5zM17.6 7.4l-1.1-1.7c.6-.4 1.2-.7 1.8-1.1l1 1.7c-.6.4-1.1.7-1.7 1.1zm35.1-1c-.6-.3-1.1-.6-1.7-.9l.9-1.8c.6.3 1.2.6 1.8 1l-1 1.7zM21 5.5l-.9-1.8c.6-.3 1.2-.6 1.9-.9l.8 1.8-1.8.9zm28.2-.8c-.6-.3-1.2-.5-1.8-.7l.7-1.9c.6.2 1.3.5 1.9.7l-.8 1.9zM24.6 4l-.7-1.9c.6-.2 1.3-.4 2-.6l.6 1.9c-.7.2-1.3.4-1.9.6zm21-.6c-.6-.2-1.3-.4-1.9-.5l.5-1.9c.7.2 1.3.3 2 .5l-.6 1.9zm-17.3-.5L27.8 1c.7-.2 1.3-.3 2-.4l.3 2c-.5 0-1.2.1-1.8.3zm13.5-.4c-.6-.1-1.3-.2-1.9-.3l.2-2c.7.1 1.4.2 2 .3l-.3 2zm-9.7-.3-.2-2c.7-.1 1.4-.1 2-.2l.1 2c-.6.1-1.2.1-1.9.2zm5.8-.1C37.3 2 36.7 2 36 2V0c.7 0 1.4 0 2.1.1l-.2 2z"/></svg>