<svg width="48" height="32" viewBox="0 0 48 32" fill="none" xmlns="http://www.w3.org/2000/svg">
<rect width="48" height="32" rx="4" fill="#016FD0"/>
<path d="M9.39639 11L5 20.7291H10.2631L10.9156 19.1778H12.407L13.0594 20.7291H18.8526V19.5451L19.3688 20.7291H22.3655L22.8817 19.5201V20.7291H34.93L36.395 19.2181L37.7668 20.7291L43.955 20.7416L39.5447 15.8917L43.955 11H37.8627L36.4366 12.483L35.1081 11H22.0011L20.8756 13.5112L19.7237 11H14.4716V12.1437L13.8874 11C13.8874 11 9.39639 11 9.39639 11ZM10.4148 12.3815H12.9802L15.8964 18.9789V12.3815H18.7067L20.9591 17.1118L23.0349 12.3815H25.8313V19.3628H24.1297L24.1159 13.8923L21.6352 19.3628H20.1132L17.6186 13.8923V19.3628H14.1182L13.4546 17.7977H9.86941L9.20718 19.3614H7.33171L10.4148 12.3815ZM27.388 12.3815H34.3067L36.4228 14.6673L38.6071 12.3815H40.7232L37.508 15.8903L40.7232 19.3587H38.5111L36.395 17.0463L34.1995 19.3587H27.388V12.3815ZM11.6628 13.5627L10.4816 16.3508H12.8426L11.6628 13.5627ZM29.0965 13.827V15.1014H32.871V16.5219H29.0965V17.9132H33.3301L35.2973 15.8639L33.4136 13.8258H29.0965V13.827Z" fill="white"/>
</svg>
