<svg width="157" height="70" viewBox="0 0 157 70" fill="none" xmlns="http://www.w3.org/2000/svg">
<rect x="2.5" y="2.5" width="152" height="65" fill="#F2B601"/>
<path d="M18.636 41.975C19.311 42.65 21.633 44.324 24.981 44.324C26.898 44.324 28.437 43.784 29.571 42.704C30.732 41.624 31.299 40.301 31.299 38.708C31.326 35.171 28.005 33.74 25.467 32.795C23.712 32.12 22.281 31.229 22.281 30.014C22.281 28.691 23.523 27.719 25.17 27.719C25.899 27.719 26.628 27.881 27.357 28.178C28.086 28.475 28.572 28.745 28.815 28.934C29.058 29.123 29.274 29.258 29.409 29.393L30.921 26.558L30.327 26.045C29.922 25.694 29.247 25.37 28.302 25.019C27.357 24.668 26.304 24.506 25.197 24.506C23.361 24.506 21.822 25.046 20.607 26.099C19.392 27.152 18.771 28.475 18.771 30.068C18.717 33.47 22.092 34.928 24.63 35.9C26.385 36.629 27.816 37.574 27.816 38.789C27.816 40.274 26.574 41.111 25.035 41.111C23.388 41.111 22.038 40.409 21.147 39.788C20.499 39.329 20.364 39.194 20.256 39.086L18.366 41.705L18.636 41.975ZM38.2572 44V37.385H42.1722C43.9812 37.385 45.4392 36.791 46.5732 35.63C47.7072 34.442 48.2742 32.93 48.2742 31.067C48.2742 29.204 47.7072 27.719 46.5732 26.558C45.4392 25.397 43.9812 24.83 42.1722 24.83H34.7742V44H38.2572ZM38.2572 27.827H41.5782C43.5222 27.827 44.7372 29.096 44.7372 31.067C44.7372 33.092 43.5492 34.361 41.5242 34.361H38.2572V27.827ZM58.8382 44V35.981L65.2102 24.83H61.2682L58.2982 30.473C57.8932 31.256 57.4882 32.12 57.1372 33.038H57.0832L57.0292 32.984C56.9212 32.687 56.4622 31.445 55.9222 30.473L52.9252 24.83H48.9832L55.3552 35.981V44H58.8382ZM71.1899 44V32.957C71.1899 32.201 71.1359 31.202 71.0009 29.987H71.0549L71.2979 30.5C71.6219 31.148 72.2159 32.309 72.6479 32.957L79.9109 44H83.3669V24.83H79.9109V35.9C79.9109 36.656 79.9649 37.655 80.0999 38.87H80.0459L79.8029 38.384C79.4789 37.709 78.8849 36.548 78.4529 35.9L71.1899 24.83H67.7069V44H71.1899ZM86.9245 34.388C86.9245 37.331 87.8425 39.707 89.6515 41.57C91.4875 43.406 93.7015 44.324 96.3205 44.324C98.4535 44.324 100.047 43.622 100.938 43.001C101.667 42.488 101.775 42.38 101.883 42.272H101.937L101.91 43.082V44H104.88V33.902H98.8045V36.899H101.748V39.14L101.181 39.626C100.83 39.977 100.236 40.301 99.4255 40.652C98.6425 40.976 97.8055 41.138 96.9415 41.138C95.1055 41.138 93.5665 40.517 92.3515 39.248C91.1365 37.979 90.5155 36.305 90.5155 34.28C90.5155 32.39 91.0825 30.824 92.2435 29.582C93.4045 28.313 95.0245 27.692 97.1035 27.692C97.9945 27.692 98.8855 27.854 99.7765 28.205C100.668 28.556 101.262 28.826 101.532 29.015C101.829 29.204 102.045 29.393 102.207 29.528L103.935 26.936L103.665 26.666C103.26 26.342 102.423 25.829 101.343 25.37C100.29 24.911 98.5615 24.506 96.8065 24.506C93.9715 24.506 91.6225 25.451 89.7325 27.368C87.8695 29.258 86.9245 31.607 86.9245 34.388ZM120.641 44V41.003H112.217V35.846H118.67V32.849H112.217V27.827H120.209V24.83H108.734V44H120.641ZM127.747 44V36.845H131.095L134.902 44H138.79L134.848 36.845C134.605 36.386 134.389 36.089 134.2 35.9V35.846C136.171 35.063 137.44 32.957 137.44 30.608C137.44 28.124 136.252 26.261 134.308 25.37C133.525 25.019 132.229 24.83 130.447 24.83H124.264V44H127.747ZM127.747 27.827H130.393C132.985 27.827 133.903 28.826 133.903 30.797C133.903 32.714 132.742 33.821 130.879 33.821H127.747V27.827Z" fill="white"/>
<rect x="2.5" y="2.5" width="152" height="65" stroke="white" stroke-width="5"/>
</svg>
