<svg width="80" height="40" viewBox="0 0 80 40" fill="none" xmlns="http://www.w3.org/2000/svg">
<path d="M19.636 20C19.636 8.9543 28.5903 0 39.636 0C50.6817 0 59.636 8.9543 59.636 20C59.636 31.0457 50.6817 40 39.636 40C28.5903 40 19.636 31.0457 19.636 20Z" fill="#F2B601"/>
<path fill-rule="evenodd" clip-rule="evenodd" d="M45.8631 9.6173C42.1811 8.79423 38.3627 8.79423 34.6807 9.6173L34.2839 9.70507C33.2482 9.93664 32.297 10.4508 31.5359 11.1904C30.7748 11.93 30.2336 12.8662 29.9725 13.8948C29.0391 17.5726 29.0391 21.4253 29.9725 25.103C30.2215 26.0841 30.7255 26.9818 31.4333 27.7053C32.1411 28.4288 33.0277 28.9522 34.0031 29.2226L34.5473 32.4714C34.5646 32.5746 34.6093 32.6712 34.6767 32.7512C34.7441 32.8312 34.8318 32.8917 34.9305 32.9264C35.0292 32.961 35.1354 32.9686 35.238 32.9483C35.3406 32.9279 35.4359 32.8805 35.514 32.8108L38.7101 29.9517C41.1094 30.0981 43.5173 29.9063 45.8631 29.3818L46.2611 29.294C47.2968 29.0624 48.248 28.5483 49.0091 27.8086C49.7702 27.069 50.3114 26.1329 50.5725 25.1042C51.5058 21.4264 51.5058 17.5738 50.5725 13.896C50.3113 12.8672 49.77 11.931 49.0086 11.1913C48.2473 10.4517 47.2958 9.93761 46.2599 9.70624L45.8631 9.6173ZM35.6684 13.8C35.4509 13.7684 35.2291 13.8122 35.04 13.9241H35.0236C34.5847 14.1816 34.1891 14.5057 33.8521 14.8873C33.5712 15.2115 33.4191 15.5391 33.3793 15.8551C33.3559 16.0424 33.3723 16.232 33.4273 16.411L33.4483 16.4227C33.7643 17.3508 34.1763 18.2438 34.6795 19.0841C35.3284 20.2643 36.1269 21.3559 37.0553 22.3317L37.0834 22.3715L37.1278 22.4043L37.1548 22.4359L37.1875 22.464C38.1668 23.3951 39.2609 24.1974 40.4434 24.8514C41.7951 25.5876 42.6155 25.9351 43.1082 26.0803V26.0873C43.2521 26.1318 43.3832 26.1517 43.5155 26.1517C43.9351 26.1206 44.3322 25.9501 44.6437 25.6671C45.024 25.3301 45.3459 24.9333 45.5963 24.4921V24.4839C45.8315 24.0392 45.752 23.6202 45.4126 23.3359C44.7308 22.7402 43.9937 22.2111 43.2112 21.7559C42.6869 21.4715 42.1544 21.6436 41.939 21.9315L41.4791 22.5119C41.2427 22.7998 40.8144 22.7601 40.8144 22.7601L40.8027 22.7671C37.6065 21.9514 36.7533 18.7154 36.7533 18.7154C36.7533 18.7154 36.7135 18.2754 37.0096 18.0507L37.5854 17.5872C37.8616 17.3625 38.0536 16.8312 37.7575 16.3069C37.3053 15.5237 36.7773 14.7867 36.181 14.1067C36.051 13.9466 35.8686 13.8376 35.6661 13.7989L35.6684 13.8ZM41.0683 12.3933C40.9131 12.3933 40.7643 12.455 40.6545 12.5647C40.5448 12.6744 40.4832 12.8233 40.4832 12.9785C40.4832 13.1337 40.5448 13.2825 40.6545 13.3922C40.7643 13.502 40.9131 13.5636 41.0683 13.5636C42.5488 13.5636 43.7776 14.047 44.7502 14.9739C45.2499 15.4806 45.6396 16.081 45.8947 16.7387C46.151 17.3976 46.2681 18.101 46.2376 18.8055C46.2344 18.8824 46.2464 18.9591 46.2728 19.0313C46.2992 19.1036 46.3396 19.1699 46.3917 19.2265C46.4968 19.3408 46.643 19.4087 46.7982 19.4153C46.9534 19.4218 47.1049 19.3664 47.2192 19.2613C47.3336 19.1561 47.4015 19.0099 47.408 18.8547C47.4443 17.988 47.3004 17.1233 46.9855 16.3151C46.6692 15.503 46.1896 14.7645 45.5764 14.1453L45.5647 14.1336C44.3581 12.9808 42.8308 12.3933 41.0683 12.3933ZM41.0285 14.3173C40.8733 14.3173 40.7245 14.379 40.6148 14.4887C40.505 14.5985 40.4434 14.7473 40.4434 14.9025C40.4434 15.0577 40.505 15.2065 40.6148 15.3163C40.7245 15.426 40.8733 15.4877 41.0285 15.4877H41.0484C42.1158 15.5637 42.8929 15.9195 43.4371 16.5035C43.9953 17.105 44.2844 17.8529 44.2621 18.7774C44.2586 18.9326 44.3168 19.0829 44.424 19.1952C44.5312 19.3074 44.6786 19.3725 44.8338 19.3761C44.989 19.3796 45.1393 19.3214 45.2516 19.2142C45.3638 19.107 45.4289 18.9595 45.4325 18.8044C45.4606 17.5907 45.0697 16.5433 44.2949 15.7077V15.7053C43.5026 14.8557 42.4154 14.4063 41.1069 14.3185L41.087 14.3162L41.0285 14.3173ZM41.0063 16.2776C40.928 16.2707 40.8491 16.2797 40.7743 16.3039C40.6995 16.3282 40.6304 16.3672 40.5711 16.4188C40.5117 16.4704 40.4634 16.5334 40.4289 16.604C40.3944 16.6747 40.3746 16.7516 40.3705 16.8301C40.3664 16.9086 40.3782 16.9871 40.4051 17.061C40.432 17.1348 40.4736 17.2025 40.5272 17.26C40.5809 17.3174 40.6456 17.3635 40.7174 17.3953C40.7893 17.4272 40.8668 17.4443 40.9454 17.4456C41.4346 17.4714 41.7471 17.6188 41.9437 17.8166C42.1415 18.0156 42.289 18.3351 42.3159 18.8348C42.3173 18.9133 42.3346 18.9907 42.3666 19.0625C42.3986 19.1342 42.4448 19.1987 42.5023 19.2522C42.5598 19.3057 42.6274 19.3471 42.7013 19.3739C42.7751 19.4007 42.8535 19.4124 42.932 19.4082C43.0104 19.4041 43.0872 19.3842 43.1578 19.3497C43.2283 19.3152 43.2913 19.2669 43.3428 19.2076C43.3943 19.1483 43.4333 19.0792 43.4575 19.0045C43.4818 18.9298 43.4907 18.851 43.4839 18.7728C43.4464 18.0706 43.2264 17.4503 42.7758 16.9939C42.3229 16.5374 41.7061 16.3151 41.0063 16.2776Z" fill="#1C1C1C"/>
</svg>
