<svg width="80" height="40" viewBox="0 0 80 40" fill="none" xmlns="http://www.w3.org/2000/svg">
<path d="M19.7273 20C19.7273 8.9543 28.6816 0 39.7273 0C50.773 0 59.7273 8.9543 59.7273 20C59.7273 31.0457 50.773 40 39.7273 40C28.6816 40 19.7273 31.0457 19.7273 20Z" fill="#F2B601"/>
<path fill-rule="evenodd" clip-rule="evenodd" d="M36.7213 17.8867C36.7111 17.8904 36.6999 17.8908 36.6894 17.8879C36.6789 17.8849 36.6696 17.8787 36.6627 17.87C36.0149 16.9953 35.8522 15.4914 35.8126 14.9138C35.8044 14.8026 35.6818 14.74 35.5836 14.7959C33.5833 15.9418 31.7273 18.6524 31.7273 21.2696C31.7273 25.7657 34.7894 29.5375 40.0606 29.5375C44.9993 29.5375 48.394 25.65 48.394 21.2701C48.394 15.539 44.3781 11.7312 40.8012 10.0098C40.7803 9.99977 40.7571 9.99566 40.7341 9.99791C40.711 10.0002 40.689 10.0087 40.6704 10.0226C40.6517 10.0366 40.6371 10.0554 40.628 10.0771C40.619 10.0988 40.6158 10.1226 40.6189 10.146C41.0795 13.2345 40.4431 16.5936 36.7213 17.8867V17.8867Z" fill="#1C1C1C"/>
</svg>
