<svg width="330" height="34" viewBox="0 0 330 34" fill="none" xmlns="http://www.w3.org/2000/svg">
    <g clip-path="url(#clip0_3346_17204)">
        <path d="M9.71875 23.75V24.25H10.2188H13.5C14.4654 24.25 15.25 23.4654 15.25 22.5C15.25 22.431 15.306 22.375 15.375 22.375C15.444 22.375 15.5 22.431 15.5 22.5C15.5 23.6024 14.6024 24.5 13.5 24.5H2.5C1.39764 24.5 0.5 23.6024 0.5 22.5V11.5C0.5 10.3976 1.39764 9.5 2.5 9.5H13.5C14.6024 9.5 15.5 10.3976 15.5 11.5V19.375C15.5 19.444 15.444 19.5 15.375 19.5C15.306 19.5 15.25 19.444 15.25 19.375V11.5C15.25 10.5346 14.4654 9.75 13.5 9.75H2.5C1.53461 9.75 0.75 10.5346 0.75 11.5V22.5C0.75 23.4654 1.53461 24.25 2.5 24.25H8.96875H9.46875V23.75V18.3125V17.8125H8.96875H7.5625C7.49345 17.8125 7.4375 17.7565 7.4375 17.6875C7.4375 17.6185 7.49345 17.5625 7.5625 17.5625H8.96875H9.46875V17.0625V15.3438C9.46875 14.2414 10.3664 13.3438 11.4688 13.3438H11.7812C11.8503 13.3438 11.9062 13.3997 11.9062 13.4688C11.9062 13.5378 11.8503 13.5938 11.7812 13.5938H11.4688C10.5034 13.5938 9.71875 14.3784 9.71875 15.3438V17.0625V17.5625H10.2188H11.625C11.694 17.5625 11.75 17.6185 11.75 17.6875C11.75 17.7565 11.694 17.8125 11.625 17.8125H10.2188H9.71875V18.3125V23.75Z" fill="#676767" stroke="#676767"/>
    </g>
    <g clip-path="url(#clip1_3346_17204)">
        <path fill-rule="evenodd" clip-rule="evenodd" d="M43.3459 9.75006C41.5671 9.75006 40.125 11.1921 40.125 12.971V20.4129C40.125 22.1917 41.5671 23.6338 43.3459 23.6338H50.7878C52.5667 23.6338 54.0087 22.1917 54.0087 20.4129V12.971C54.0087 11.1921 52.5667 9.75006 50.7878 9.75006H43.3459ZM39.125 12.971C39.125 10.6398 41.0148 8.75006 43.3459 8.75006H50.7878C53.1189 8.75006 55.0087 10.6398 55.0087 12.971V20.4129C55.0087 22.744 53.1189 24.6338 50.7878 24.6338H43.3459C41.0148 24.6338 39.125 22.744 39.125 20.4129V12.971ZM47.4624 14.2097C46.947 14.1333 46.4207 14.2213 45.9583 14.4612C45.4959 14.7011 45.121 15.0808 44.8867 15.5461C44.6525 16.0114 44.571 16.5388 44.6538 17.0531C44.7365 17.5674 44.9794 18.0426 45.3477 18.411C45.7161 18.7793 46.1912 19.0222 46.7056 19.1049C47.2199 19.1877 47.7472 19.1062 48.2126 18.8719C48.6779 18.6377 49.0575 18.2628 49.2975 17.8003C49.5374 17.3379 49.6254 16.8116 49.549 16.2963C49.4711 15.7707 49.2261 15.2841 48.8504 14.9083C48.4746 14.5326 47.988 14.2876 47.4624 14.2097ZM45.4978 13.5736C46.1469 13.2368 46.8857 13.1132 47.609 13.2205C48.3469 13.3299 49.03 13.6737 49.5575 14.2012C50.0849 14.7287 50.4288 15.4118 50.5382 16.1496C50.6455 16.873 50.5219 17.6118 50.1851 18.2609C49.8483 18.91 49.3154 19.4364 48.6622 19.7652C48.009 20.094 47.2687 20.2084 46.5467 20.0922C45.8247 19.976 45.1577 19.6352 44.6406 19.1181C44.1235 18.601 43.7826 17.934 43.6665 17.212C43.5503 16.49 43.6647 15.7497 43.9935 15.0965C44.3223 14.4433 44.8487 13.9104 45.4978 13.5736ZM51.1599 12.0989C50.8837 12.0989 50.6599 12.3228 50.6599 12.5989C50.6599 12.875 50.8837 13.0989 51.1599 13.0989H51.1665C51.4427 13.0989 51.6665 12.875 51.6665 12.5989C51.6665 12.3228 51.4427 12.0989 51.1665 12.0989H51.1599Z" fill="#676767"/>
    </g>
    <g clip-path="url(#clip2_3346_17204)">
        <mask id="path-3-inside-1_3346_17204" fill="white">
            <path d="M91.9004 11.3496C90.3853 9.83447 88.3785 9 86.25 9C81.8447 9 78.25 12.5952 78.25 17C78.25 18.3035 78.5701 19.5902 79.1774 20.7341L78.2638 24.4185C78.2242 24.5779 78.2711 24.7465 78.3873 24.8627C78.5028 24.9783 78.6711 25.026 78.8315 24.9862L82.5159 24.0725C83.6598 24.6798 84.9465 25 86.25 25C88.3785 25 90.3853 24.1655 91.9004 22.6504C93.4155 21.1351 94.25 19.1285 94.25 17C94.25 14.8715 93.4155 12.8647 91.9004 11.3496ZM86.25 24.0625C85.0439 24.0625 83.8545 23.7521 82.8099 23.165C82.7059 23.1066 82.5835 23.09 82.4674 23.1187L79.361 23.889L80.1312 20.7825C80.16 20.6666 80.1434 20.5441 80.085 20.4399C79.4978 19.3955 79.1875 18.2061 79.1875 17C79.1875 13.1057 82.3557 9.9375 86.25 9.9375C90.1443 9.9375 93.3125 13.1057 93.3125 17C93.3125 20.8943 90.1443 24.0625 86.25 24.0625Z"/>
        </mask>
        <path d="M91.9004 11.3496C90.3853 9.83447 88.3785 9 86.25 9C81.8447 9 78.25 12.5952 78.25 17C78.25 18.3035 78.5701 19.5902 79.1774 20.7341L78.2638 24.4185C78.2242 24.5779 78.2711 24.7465 78.3873 24.8627C78.5028 24.9783 78.6711 25.026 78.8315 24.9862L82.5159 24.0725C83.6598 24.6798 84.9465 25 86.25 25C88.3785 25 90.3853 24.1655 91.9004 22.6504C93.4155 21.1351 94.25 19.1285 94.25 17C94.25 14.8715 93.4155 12.8647 91.9004 11.3496ZM86.25 24.0625C85.0439 24.0625 83.8545 23.7521 82.8099 23.165C82.7059 23.1066 82.5835 23.09 82.4674 23.1187L79.361 23.889L80.1312 20.7825C80.16 20.6666 80.1434 20.5441 80.085 20.4399C79.4978 19.3955 79.1875 18.2061 79.1875 17C79.1875 13.1057 82.3557 9.9375 86.25 9.9375C90.1443 9.9375 93.3125 13.1057 93.3125 17C93.3125 20.8943 90.1443 24.0625 86.25 24.0625Z" fill="#676767"/>
        <path d="M79.1774 20.7341L80.148 20.9748L80.2401 20.6033L80.0606 20.2652L79.1774 20.7341ZM78.2638 24.4185L79.2344 24.6592L79.2344 24.6591L78.2638 24.4185ZM78.3873 24.8627L79.0948 24.1559L79.0944 24.1556L78.3873 24.8627ZM78.8315 24.9862L78.5908 24.0156L78.5907 24.0156L78.8315 24.9862ZM82.5159 24.0725L82.9848 23.1893L82.6467 23.0098L82.2752 23.1019L82.5159 24.0725ZM91.9004 22.6504L92.6075 23.3575L92.6075 23.3575L91.9004 22.6504ZM82.8099 23.165L82.3199 24.0367L82.32 24.0368L82.8099 23.165ZM82.4674 23.1187L82.2275 22.1479L82.2267 22.1481L82.4674 23.1187ZM79.361 23.889L78.3904 23.6484L77.991 25.2591L79.6017 24.8596L79.361 23.889ZM80.1312 20.7825L79.1608 20.5411L79.1606 20.5418L80.1312 20.7825ZM80.085 20.4399L80.9569 19.9503L80.9567 19.9499L80.085 20.4399ZM92.6075 10.6425C90.9062 8.94124 88.6457 8 86.25 8V10C88.1113 10 89.8643 10.7277 91.1933 12.0567L92.6075 10.6425ZM86.25 8C81.2924 8 77.25 12.043 77.25 17H79.25C79.25 13.1475 82.3971 10 86.25 10V8ZM77.25 17C77.25 18.4663 77.6098 19.9141 78.2941 21.203L80.0606 20.2652C79.5303 19.2663 79.25 18.1407 79.25 17H77.25ZM78.2068 20.4935L77.2932 24.1778L79.2344 24.6591L80.148 20.9748L78.2068 20.4935ZM77.2932 24.1777C77.1692 24.6776 77.3162 25.2058 77.6802 25.5698L79.0944 24.1556C79.226 24.2871 79.2793 24.4782 79.2344 24.6592L77.2932 24.1777ZM77.6798 25.5694C78.0419 25.9318 78.5696 26.0815 79.0723 25.9568L78.5907 24.0156C78.7727 23.9705 78.9637 24.0247 79.0948 24.1559L77.6798 25.5694ZM79.0722 25.9568L82.7566 25.0431L82.2752 23.1019L78.5908 24.0156L79.0722 25.9568ZM82.047 24.9558C83.3359 25.64 84.7837 26 86.25 26V24C85.1094 24 83.9837 23.7196 82.9848 23.1893L82.047 24.9558ZM86.25 26C88.6457 26 90.9062 25.0588 92.6075 23.3575L91.1933 21.9433C89.8643 23.2723 88.1113 24 86.25 24V26ZM92.6075 23.3575C94.3087 21.6561 95.25 19.3958 95.25 17H93.25C93.25 18.8613 92.5223 20.6141 91.1933 21.9433L92.6075 23.3575ZM95.25 17C95.25 14.6043 94.3088 12.3438 92.6075 10.6425L91.1933 12.0567C92.5223 13.3857 93.25 15.1387 93.25 17H95.25ZM86.25 23.0625C85.2145 23.0625 84.1939 22.7957 83.2999 22.2933L82.32 24.0368C83.5151 24.7084 84.8734 25.0625 86.25 25.0625V23.0625ZM83.3 22.2934C82.9738 22.1099 82.5902 22.0582 82.2275 22.1479L82.7073 24.0895C82.5767 24.1217 82.4381 24.1032 82.3199 24.0367L83.3 22.2934ZM82.2267 22.1481L79.1203 22.9184L79.6017 24.8596L82.7081 24.0893L82.2267 22.1481ZM80.3316 24.1297L81.1018 21.0231L79.1606 20.5418L78.3904 23.6484L80.3316 24.1297ZM81.1017 21.0238C81.1921 20.6601 81.1399 20.2761 80.9569 19.9503L79.213 20.9296C79.147 20.812 79.128 20.6731 79.1608 20.5411L81.1017 21.0238ZM80.9567 19.9499C80.4542 19.0561 80.1875 18.0356 80.1875 17H78.1875C78.1875 18.3765 78.5414 19.7349 79.2133 20.93L80.9567 19.9499ZM80.1875 17C80.1875 13.658 82.908 10.9375 86.25 10.9375V8.9375C81.8034 8.9375 78.1875 12.5534 78.1875 17H80.1875ZM86.25 10.9375C89.592 10.9375 92.3125 13.658 92.3125 17H94.3125C94.3125 12.5534 90.6966 8.9375 86.25 8.9375V10.9375ZM92.3125 17C92.3125 20.342 89.592 23.0625 86.25 23.0625V25.0625C90.6966 25.0625 94.3125 21.4466 94.3125 17H92.3125Z" fill="#676767" mask="url(#path-3-inside-1_3346_17204)"/>
        <mask id="path-5-inside-2_3346_17204" fill="white">
            <path d="M90.4801 18.4234C90.1695 18.1126 89.8274 17.7989 89.4323 17.6083C88.8418 17.3238 88.2785 17.4053 87.8458 17.8379C87.6489 18.0348 87.3781 18.423 87.2222 18.6139C86.8201 18.5467 86.0167 17.8693 85.6978 17.5514C85.38 17.2325 84.7031 16.429 84.6359 16.0278C84.8257 15.8727 85.2152 15.6008 85.412 15.4041C85.8446 14.9715 85.9262 14.408 85.6416 13.8177C85.4511 13.4224 85.1373 13.0805 84.8268 12.7699C84.1942 12.1241 83.2185 12.0765 82.3764 12.9188C81.747 13.548 81.1863 14.7147 82.0886 16.6989C82.6226 17.8727 83.4831 18.9109 83.9072 19.3394L83.9105 19.3427C84.339 19.767 85.3772 20.6275 86.551 21.1613C87.8767 21.7642 89.2976 21.9073 90.3313 20.8737C91.1862 20.0187 91.1142 19.0442 90.4801 18.4234ZM89.6684 20.2107C89.0579 20.8212 88.1397 20.8539 86.9391 20.3079C85.8852 19.8285 84.9308 19.0333 84.5718 18.6782C84.2167 18.319 83.4214 17.3648 82.942 16.3108C82.396 15.1103 82.4287 14.1921 83.0392 13.5816C83.3955 13.2253 83.8057 13.0672 84.157 13.426L84.1637 13.4328C84.9959 14.2649 84.9368 14.5534 84.749 14.7411C84.5824 14.9078 84.0899 15.2422 83.9307 15.4014C83.557 15.775 83.6266 16.3536 84.1373 17.121C84.4422 17.5792 84.8447 18.0237 85.0347 18.2142L85.0357 18.2153C85.2262 18.4052 85.6707 18.8078 86.1288 19.1126C86.8964 19.6233 87.4749 19.6928 87.8484 19.3193C88.0077 19.16 88.3421 18.6675 88.5087 18.5009C88.6356 18.374 88.7608 18.3255 89.025 18.4529C89.3314 18.6006 89.6594 18.9286 89.8172 19.0862L89.824 19.0929C90.1856 19.4471 90.0248 19.8543 89.6684 20.2107Z"/>
        </mask>
        <path d="M90.4801 18.4234C90.1695 18.1126 89.8274 17.7989 89.4323 17.6083C88.8418 17.3238 88.2785 17.4053 87.8458 17.8379C87.6489 18.0348 87.3781 18.423 87.2222 18.6139C86.8201 18.5467 86.0167 17.8693 85.6978 17.5514C85.38 17.2325 84.7031 16.429 84.6359 16.0278C84.8257 15.8727 85.2152 15.6008 85.412 15.4041C85.8446 14.9715 85.9262 14.408 85.6416 13.8177C85.4511 13.4224 85.1373 13.0805 84.8268 12.7699C84.1942 12.1241 83.2185 12.0765 82.3764 12.9188C81.747 13.548 81.1863 14.7147 82.0886 16.6989C82.6226 17.8727 83.4831 18.9109 83.9072 19.3394L83.9105 19.3427C84.339 19.767 85.3772 20.6275 86.551 21.1613C87.8767 21.7642 89.2976 21.9073 90.3313 20.8737C91.1862 20.0187 91.1142 19.0442 90.4801 18.4234ZM89.6684 20.2107C89.0579 20.8212 88.1397 20.8539 86.9391 20.3079C85.8852 19.8285 84.9308 19.0333 84.5718 18.6782C84.2167 18.319 83.4214 17.3648 82.942 16.3108C82.396 15.1103 82.4287 14.1921 83.0392 13.5816C83.3955 13.2253 83.8057 13.0672 84.157 13.426L84.1637 13.4328C84.9959 14.2649 84.9368 14.5534 84.749 14.7411C84.5824 14.9078 84.0899 15.2422 83.9307 15.4014C83.557 15.775 83.6266 16.3536 84.1373 17.121C84.4422 17.5792 84.8447 18.0237 85.0347 18.2142L85.0357 18.2153C85.2262 18.4052 85.6707 18.8078 86.1288 19.1126C86.8964 19.6233 87.4749 19.6928 87.8484 19.3193C88.0077 19.16 88.3421 18.6675 88.5087 18.5009C88.6356 18.374 88.7608 18.3255 89.025 18.4529C89.3314 18.6006 89.6594 18.9286 89.8172 19.0862L89.824 19.0929C90.1856 19.4471 90.0248 19.8543 89.6684 20.2107Z" fill="#676767"/>
        <path d="M89.4323 17.6083L89.8666 16.7076L89.8664 16.7075L89.4323 17.6083ZM87.2222 18.6139L87.0572 19.6002L87.6297 19.696L87.9968 19.2464L87.2222 18.6139ZM85.6978 17.5514L84.9893 18.2572L84.9919 18.2598L85.6978 17.5514ZM84.6359 16.0278L84.0033 15.2532L83.5537 15.6205L83.6496 16.1931L84.6359 16.0278ZM85.412 15.4041L86.1189 16.1114L86.1191 16.1112L85.412 15.4041ZM85.6416 13.8177L86.5424 13.3835L86.5424 13.3834L85.6416 13.8177ZM84.8268 12.7699L84.1123 13.4697L84.1197 13.4771L84.8268 12.7699ZM82.3764 12.9188L83.0834 13.6259L83.0835 13.6258L82.3764 12.9188ZM82.0886 16.6989L81.1783 17.1129L81.1784 17.1129L82.0886 16.6989ZM83.9072 19.3394L83.1966 20.043L83.2001 20.0465L83.9072 19.3394ZM83.9105 19.3427L83.2034 20.0498L83.2069 20.0532L83.9105 19.3427ZM86.551 21.1613L86.965 20.251L86.965 20.251L86.551 21.1613ZM90.3313 20.8737L91.0384 21.5809L91.0385 21.5808L90.3313 20.8737ZM86.9391 20.3079L86.5251 21.2182L86.5251 21.2182L86.9391 20.3079ZM84.5718 18.6782L83.8607 19.3813L83.8686 19.3891L84.5718 18.6782ZM82.942 16.3108L82.0318 16.7248L82.0318 16.7249L82.942 16.3108ZM84.157 13.426L83.4425 14.1256L83.4436 14.1267L84.157 13.426ZM84.1637 13.4328L83.4502 14.1335L83.4566 14.1399L84.1637 13.4328ZM83.9307 15.4014L84.6377 16.1086L84.6378 16.1085L83.9307 15.4014ZM84.1373 17.121L84.9699 16.5671L84.9698 16.567L84.1373 17.121ZM85.0347 18.2142L85.7821 17.5498L85.763 17.5283L85.7427 17.508L85.0347 18.2142ZM85.0357 18.2153L84.2883 18.8796L84.3083 18.9022L84.3297 18.9235L85.0357 18.2153ZM86.1288 19.1126L86.6828 18.2801L86.6827 18.28L86.1288 19.1126ZM89.025 18.4529L88.5907 19.3537L88.5908 19.3537L89.025 18.4529ZM89.8172 19.0862L89.1103 19.7936L89.1165 19.7997L89.8172 19.0862ZM89.824 19.0929L89.1233 19.8064L89.1243 19.8074L89.824 19.0929ZM91.1874 17.7164C90.8708 17.3997 90.4267 16.9777 89.8666 16.7076L88.9979 18.5091C89.2282 18.6201 89.4681 18.8255 89.7729 19.1304L91.1874 17.7164ZM89.8664 16.7075C89.4246 16.4946 88.9355 16.3923 88.4366 16.4645C87.9329 16.5374 87.4915 16.7781 87.1387 17.1308L88.553 18.545C88.6328 18.4652 88.6894 18.4488 88.7231 18.4439C88.7617 18.4383 88.8495 18.4376 88.9981 18.5092L89.8664 16.7075ZM87.1387 17.1308C86.9884 17.2812 86.8354 17.4762 86.7257 17.6189C86.5923 17.7924 86.5139 17.9003 86.4476 17.9815L87.9968 19.2464C88.0864 19.1367 88.2213 18.955 88.3116 18.8375C88.4255 18.6892 88.5064 18.5916 88.553 18.545L87.1387 17.1308ZM87.3872 17.6276C87.4647 17.6406 87.4633 17.6575 87.3541 17.5953C87.2654 17.5448 87.1534 17.4698 87.0275 17.3757C86.7742 17.1864 86.5295 16.9685 86.4037 16.8431L84.9919 18.2598C85.1851 18.4523 85.5015 18.732 85.8301 18.9777C85.9952 19.101 86.1793 19.2278 86.3644 19.3332C86.5288 19.4269 86.7787 19.5536 87.0572 19.6002L87.3872 17.6276ZM86.4062 16.8457C86.281 16.72 86.0633 16.4752 85.874 16.2219C85.7799 16.096 85.7049 15.984 85.6544 15.8953C85.5922 15.786 85.6091 15.7848 85.6221 15.8624L83.6496 16.1931C83.6963 16.4714 83.8231 16.721 83.9166 16.8852C84.0218 17.07 84.1485 17.254 84.2718 17.419C84.5172 17.7475 84.7968 18.0639 84.9893 18.2572L86.4062 16.8457ZM85.2684 16.8023C85.349 16.7365 85.4569 16.658 85.6306 16.5245C85.7734 16.4148 85.9687 16.2616 86.1189 16.1114L84.7051 14.6968C84.6586 14.7433 84.5607 14.8244 84.4121 14.9386C84.2944 15.029 84.1126 15.164 84.0033 15.2532L85.2684 16.8023ZM86.1191 16.1112C86.4719 15.7584 86.7125 15.317 86.7854 14.8133C86.8576 14.3144 86.7554 13.8253 86.5424 13.3835L84.7408 14.2519C84.8124 14.4004 84.8117 14.4882 84.8061 14.5268C84.8012 14.5606 84.7847 14.6172 84.7049 14.697L86.1191 16.1112ZM86.5424 13.3834C86.2723 12.8232 85.8502 12.3791 85.5339 12.0628L84.1197 13.4771C84.4245 13.7819 84.6298 14.0217 84.7408 14.2519L86.5424 13.3834ZM85.5412 12.0702C85.0485 11.5671 84.3837 11.2651 83.6507 11.2867C82.9207 11.3083 82.2346 11.6462 81.6692 12.2117L83.0835 13.6258C83.3603 13.349 83.5831 13.2896 83.7097 13.2859C83.8332 13.2822 83.9726 13.3269 84.1124 13.4697L85.5412 12.0702ZM81.6693 12.2116C81.2382 12.6426 80.82 13.2715 80.6725 14.1317C80.5254 14.9893 80.6637 15.9812 81.1783 17.1129L82.9989 16.2849C82.6112 15.4324 82.5787 14.8488 82.6437 14.4697C82.7083 14.0932 82.8852 13.8241 83.0834 13.6259L81.6693 12.2116ZM81.1784 17.1129C81.7747 18.4238 82.7157 19.5572 83.1966 20.043L84.6179 18.6359C84.2504 18.2647 83.4705 17.3216 82.9989 16.2849L81.1784 17.1129ZM83.2001 20.0465L83.2034 20.0498L84.6176 18.6356L84.6144 18.6323L83.2001 20.0465ZM83.2069 20.0532C83.6928 20.5344 84.8262 21.4754 86.1371 22.0716L86.965 20.251C85.9283 19.7795 84.9853 18.9996 84.6142 18.6322L83.2069 20.0532ZM86.1371 22.0716C87.595 22.7346 89.5557 23.0633 91.0384 21.5809L89.6243 20.1666C89.0395 20.7512 88.1585 20.7938 86.965 20.251L86.1371 22.0716ZM91.0385 21.5808C91.6121 21.007 91.9474 20.3151 91.9638 19.5832C91.9802 18.8511 91.674 18.1928 91.1798 17.7089L89.7805 19.1379C89.9203 19.2748 89.9671 19.4142 89.9643 19.5383C89.9615 19.6626 89.9054 19.8854 89.6242 20.1667L91.0385 21.5808ZM88.9612 19.5036C88.7928 19.6721 88.4076 19.8772 87.3531 19.3976L86.5251 21.2182C87.8718 21.8307 89.323 21.9703 90.3755 20.9179L88.9612 19.5036ZM87.3531 19.3976C86.4376 18.9812 85.5784 18.2672 85.275 17.9672L83.8686 19.3891C84.2833 19.7993 85.3327 20.6759 86.5251 21.2182L87.3531 19.3976ZM85.2829 17.975C84.9827 17.6714 84.2687 16.8123 83.8523 15.8968L82.0318 16.7249C82.5741 17.9173 83.4507 18.9666 83.8607 19.3813L85.2829 17.975ZM83.8523 15.8968C83.3727 14.8424 83.5779 14.4572 83.7463 14.2887L82.3321 12.8745C81.2796 13.927 81.4193 15.3782 82.0318 16.7248L83.8523 15.8968ZM83.7463 14.2887C83.7957 14.2394 83.8307 14.2134 83.8483 14.2023C83.8665 14.1908 83.8503 14.2051 83.8011 14.2152C83.7451 14.2267 83.6644 14.2286 83.5779 14.2007C83.4936 14.1736 83.4499 14.1331 83.4425 14.1256L84.8715 12.7263C84.4738 12.3202 83.9443 12.1441 83.3989 12.2561C82.9332 12.3517 82.5732 12.6334 82.3321 12.8745L83.7463 14.2887ZM83.4436 14.1267L83.4503 14.1335L84.8772 12.7321L84.8705 12.7252L83.4436 14.1267ZM83.4566 14.1399C83.6427 14.326 83.7586 14.4617 83.8282 14.5559C83.9008 14.6542 83.9012 14.6783 83.8891 14.6416C83.8725 14.5911 83.8457 14.4632 83.8921 14.3004C83.936 14.1463 84.0188 14.0572 84.0419 14.034L85.4562 15.4482C85.5732 15.3312 85.7337 15.1356 85.8155 14.8486C85.8998 14.553 85.871 14.2657 85.7886 14.0156C85.6442 13.5774 85.3016 13.1564 84.8708 12.7257L83.4566 14.1399ZM84.0419 14.034C84.0435 14.0325 84.0199 14.0547 83.9512 14.1092C83.8894 14.1584 83.8164 14.2139 83.7326 14.2775C83.6531 14.3377 83.5624 14.4065 83.4815 14.4705C83.4081 14.5286 83.3077 14.6102 83.2236 14.6943L84.6378 16.1085C84.6332 16.1131 84.6541 16.0931 84.723 16.0385C84.7844 15.9899 84.8572 15.9347 84.9416 15.8707C85.0216 15.8099 85.1129 15.7406 85.1953 15.6752C85.2709 15.6152 85.3713 15.5331 85.4562 15.4482L84.0419 14.034ZM83.2237 14.6942C82.7962 15.1215 82.6425 15.6754 82.7095 16.2328C82.7706 16.7407 83.0084 17.2296 83.3049 17.6751L84.9698 16.567C84.7556 16.245 84.7032 16.0608 84.6952 15.9942C84.6924 15.9704 84.6982 15.9863 84.6859 16.0248C84.6726 16.0663 84.6504 16.0959 84.6377 16.1086L83.2237 14.6942ZM83.3048 17.675C83.657 18.2044 84.1069 18.7 84.3267 18.9204L85.7427 17.508C85.5826 17.3475 85.2273 16.9539 84.9699 16.5671L83.3048 17.675ZM84.2873 18.8785L84.2883 18.8796L85.7831 17.5509L85.7821 17.5498L84.2873 18.8785ZM84.3297 18.9235C84.5499 19.143 85.0453 19.5928 85.5749 19.9452L86.6827 18.28C86.296 18.0227 85.9026 17.6674 85.7416 17.507L84.3297 18.9235ZM85.5748 19.9451C86.0204 20.2416 86.5092 20.4794 87.0171 20.5404C87.5745 20.6074 88.1282 20.4536 88.5555 20.0264L87.1413 18.6122C87.154 18.5995 87.1836 18.5773 87.225 18.564C87.2635 18.5517 87.2794 18.5575 87.2557 18.5547C87.189 18.5467 87.0048 18.4944 86.6828 18.2801L85.5748 19.9451ZM88.5555 20.0264C88.6397 19.9422 88.7212 19.8418 88.7794 19.7684C88.8434 19.6875 88.9121 19.5968 88.9724 19.5173C89.036 19.4335 89.0915 19.3605 89.1406 19.2987C89.1951 19.2301 89.2173 19.2065 89.2158 19.208L87.8016 17.7938C87.7167 17.8787 87.6347 17.9791 87.5746 18.0546C87.5092 18.137 87.4399 18.2283 87.3792 18.3084C87.3151 18.3928 87.26 18.4655 87.2113 18.5269C87.1568 18.5958 87.1368 18.6167 87.1413 18.6122L88.5555 20.0264ZM89.2158 19.208C89.2133 19.2105 89.0896 19.3365 88.864 19.3704C88.6596 19.4011 88.5413 19.3299 88.5907 19.3537L89.4594 17.5522C89.2445 17.4486 88.9315 17.3378 88.5667 17.3926C88.1808 17.4507 87.931 17.6643 87.8016 17.7938L89.2158 19.208ZM88.5908 19.3537C88.6278 19.3715 88.709 19.4247 88.8256 19.5247C88.9336 19.6174 89.0308 19.7142 89.1103 19.7936L90.524 18.3789C90.3989 18.2538 89.9484 17.7879 89.4593 17.5521L88.5908 19.3537ZM89.1165 19.7997L89.1233 19.8064L90.5247 18.3795L90.5179 18.3728L89.1165 19.7997ZM89.1243 19.8074C89.1184 19.8017 89.078 19.7587 89.0507 19.6741C89.0226 19.587 89.0244 19.5051 89.0363 19.4478C89.0467 19.3977 89.0614 19.3811 89.0496 19.3997C89.0382 19.4176 89.0116 19.4533 88.9612 19.5036L90.3755 20.9179C90.6141 20.6792 90.8979 20.3203 90.9946 19.8541C91.1084 19.3055 90.9294 18.7759 90.5237 18.3785L89.1243 19.8074Z" fill="#676767" mask="url(#path-5-inside-2_3346_17204)"/>
    </g>
    <g clip-path="url(#clip3_3346_17204)">
        <mask id="path-7-inside-3_3346_17204" fill="white">
            <path d="M133.128 10.5894C132.933 10.3504 132.64 10.2188 132.304 10.2188C132.121 10.2188 131.927 10.2573 131.728 10.3333L118.185 15.5034C117.466 15.7776 117.369 16.1893 117.375 16.4102C117.381 16.6312 117.501 17.0367 118.235 17.27C118.239 17.2713 118.243 17.2726 118.248 17.2739L121.057 18.0778L122.576 22.4223C122.784 23.0146 123.249 23.3825 123.79 23.3825C124.131 23.3825 124.467 23.2394 124.761 22.9689L126.499 21.369L129.019 23.3984C129.02 23.3986 129.02 23.3987 129.02 23.399L129.044 23.4183C129.046 23.42 129.049 23.4218 129.051 23.4235C129.331 23.6408 129.637 23.7556 129.935 23.7557H129.936C130.519 23.7557 130.984 23.3237 131.119 22.6552L133.338 11.6977C133.428 11.2579 133.353 10.8643 133.128 10.5894ZM121.997 17.9251L127.417 15.1562L124.042 18.7422C123.987 18.801 123.948 18.8729 123.928 18.9511L123.278 21.5871L121.997 17.9251ZM124.126 22.2792C124.104 22.2999 124.081 22.3183 124.058 22.3353L124.662 19.89L125.761 20.7744L124.126 22.2792ZM132.42 11.5115L130.2 22.4692C130.179 22.574 130.111 22.8181 129.935 22.8181C129.849 22.8181 129.74 22.7708 129.628 22.685L126.772 20.3854C126.772 20.3851 126.772 20.3847 126.771 20.3845L125.072 19.0161L129.952 13.8301C130.109 13.6641 130.123 13.4099 129.986 13.2275C129.849 13.0451 129.601 12.9877 129.398 13.0915L121.371 17.1923L118.523 16.3776L132.063 11.2092C132.177 11.1655 132.257 11.1563 132.304 11.1563C132.332 11.1563 132.383 11.1597 132.402 11.183C132.427 11.2134 132.459 11.3171 132.42 11.5115Z"/>
        </mask>
        <path d="M133.128 10.5894C132.933 10.3504 132.64 10.2188 132.304 10.2188C132.121 10.2188 131.927 10.2573 131.728 10.3333L118.185 15.5034C117.466 15.7776 117.369 16.1893 117.375 16.4102C117.381 16.6312 117.501 17.0367 118.235 17.27C118.239 17.2713 118.243 17.2726 118.248 17.2739L121.057 18.0778L122.576 22.4223C122.784 23.0146 123.249 23.3825 123.79 23.3825C124.131 23.3825 124.467 23.2394 124.761 22.9689L126.499 21.369L129.019 23.3984C129.02 23.3986 129.02 23.3987 129.02 23.399L129.044 23.4183C129.046 23.42 129.049 23.4218 129.051 23.4235C129.331 23.6408 129.637 23.7556 129.935 23.7557H129.936C130.519 23.7557 130.984 23.3237 131.119 22.6552L133.338 11.6977C133.428 11.2579 133.353 10.8643 133.128 10.5894ZM121.997 17.9251L127.417 15.1562L124.042 18.7422C123.987 18.801 123.948 18.8729 123.928 18.9511L123.278 21.5871L121.997 17.9251ZM124.126 22.2792C124.104 22.2999 124.081 22.3183 124.058 22.3353L124.662 19.89L125.761 20.7744L124.126 22.2792ZM132.42 11.5115L130.2 22.4692C130.179 22.574 130.111 22.8181 129.935 22.8181C129.849 22.8181 129.74 22.7708 129.628 22.685L126.772 20.3854C126.772 20.3851 126.772 20.3847 126.771 20.3845L125.072 19.0161L129.952 13.8301C130.109 13.6641 130.123 13.4099 129.986 13.2275C129.849 13.0451 129.601 12.9877 129.398 13.0915L121.371 17.1923L118.523 16.3776L132.063 11.2092C132.177 11.1655 132.257 11.1563 132.304 11.1563C132.332 11.1563 132.383 11.1597 132.402 11.183C132.427 11.2134 132.459 11.3171 132.42 11.5115Z" fill="#676767"/>
        <path d="M131.728 10.3333L132.085 11.2676L132.085 11.2674L131.728 10.3333ZM118.185 15.5034L118.541 16.4376L118.541 16.4376L118.185 15.5034ZM118.235 17.27L117.931 18.2229L117.942 18.2263L118.235 17.27ZM118.248 17.2739L118.523 16.3124L118.515 16.3103L118.248 17.2739ZM121.057 18.0778L122.001 17.7477L121.83 17.2589L121.332 17.1164L121.057 18.0778ZM122.576 22.4223L121.632 22.7524L121.633 22.7524L122.576 22.4223ZM124.761 22.9689L125.438 23.7048L125.439 23.7046L124.761 22.9689ZM126.499 21.369L127.126 20.5901L126.455 20.0499L125.822 20.6333L126.499 21.369ZM129.019 23.3984L129.726 22.6913L129.688 22.6532L129.646 22.6195L129.019 23.3984ZM129.02 23.399L128.313 24.106L128.351 24.1439L128.393 24.1775L129.02 23.399ZM129.044 23.4183L128.416 24.1968L128.423 24.2023L128.43 24.2076L129.044 23.4183ZM129.051 23.4235L128.437 24.2129L128.438 24.2137L129.051 23.4235ZM129.935 23.7557L129.935 24.7557H129.935V23.7557ZM131.119 22.6552L132.099 22.8537L131.119 22.6552ZM133.338 11.6977L132.358 11.4991L132.358 11.4992L133.338 11.6977ZM121.997 17.9251L121.542 17.0346L120.765 17.4316L121.053 18.2552L121.997 17.9251ZM127.417 15.1562L128.145 15.8415L126.962 14.2657L127.417 15.1562ZM124.042 18.7422L124.77 19.4278L124.77 19.4276L124.042 18.7422ZM123.928 18.9511L124.899 19.1908L124.899 19.1904L123.928 18.9511ZM123.278 21.5871L122.334 21.9172L123.443 25.0894L124.248 21.8268L123.278 21.5871ZM124.126 22.2792L124.803 23.0157L124.803 23.0149L124.126 22.2792ZM124.058 22.3353L123.088 22.0956L122.415 24.8212L124.659 23.1347L124.058 22.3353ZM124.662 19.89L125.289 19.1111L124.067 18.1271L123.691 19.6502L124.662 19.89ZM125.761 20.7744L126.438 21.51L127.292 20.7236L126.388 19.9955L125.761 20.7744ZM130.2 22.4692L131.18 22.6688L131.181 22.6677L130.2 22.4692ZM129.628 22.685L129.001 23.4639L129.01 23.4707L129.018 23.4773L129.628 22.685ZM126.772 20.3854L126.065 21.0925L126.103 21.1306L126.145 21.1643L126.772 20.3854ZM126.771 20.3845L126.144 21.1633L126.228 21.2308L126.324 21.2789L126.771 20.3845ZM125.072 19.0161L124.344 18.3307L123.603 19.1174L124.445 19.7949L125.072 19.0161ZM129.952 13.8301L129.224 13.1448L129.224 13.1448L129.952 13.8301ZM129.986 13.2275L130.786 12.6273L130.785 12.627L129.986 13.2275ZM129.398 13.0915L129.853 13.982L129.853 13.9819L129.398 13.0915ZM121.371 17.1923L121.096 18.1537L121.475 18.2622L121.826 18.0828L121.371 17.1923ZM118.523 16.3776L118.166 15.4434L115.363 16.5136L118.248 17.339L118.523 16.3776ZM132.063 11.2092L132.419 12.1434L132.42 12.1433L132.063 11.2092ZM132.402 11.183L131.626 11.8132L131.629 11.8168L132.402 11.183ZM133.902 9.95642C133.498 9.46255 132.909 9.21881 132.304 9.21881V11.2188C132.341 11.2188 132.357 11.2258 132.359 11.2266C132.36 11.2271 132.359 11.2268 132.357 11.2255C132.355 11.2241 132.354 11.2228 132.354 11.2224L133.902 9.95642ZM132.304 9.21881C131.981 9.21881 131.666 9.28654 131.371 9.39922L132.085 11.2674C132.188 11.228 132.261 11.2188 132.304 11.2188V9.21881ZM131.372 9.39907L117.828 14.5691L118.541 16.4376L132.085 11.2676L131.372 9.39907ZM117.828 14.5691C117.326 14.7605 116.938 15.041 116.684 15.4104C116.428 15.7829 116.368 16.1602 116.376 16.4384L118.375 16.3821C118.376 16.4082 118.373 16.4375 118.365 16.468C118.357 16.5002 118.344 16.526 118.332 16.5432C118.305 16.583 118.324 16.5205 118.541 16.4376L117.828 14.5691ZM116.376 16.4384C116.384 16.7168 116.465 17.0901 116.742 17.4476C117.016 17.8021 117.42 18.0601 117.931 18.2229L118.538 16.317C118.316 16.2465 118.294 16.1852 118.323 16.2234C118.336 16.2398 118.35 16.2648 118.36 16.2966C118.37 16.3266 118.374 16.3558 118.375 16.3821L116.376 16.4384ZM117.942 18.2263C117.945 18.227 117.961 18.2322 117.98 18.2374L118.515 16.3103C118.521 16.312 118.526 16.3133 118.527 16.3138C118.529 16.3142 118.53 16.3144 118.527 16.3136L117.942 18.2263ZM117.973 18.2353L120.782 19.0392L121.332 17.1164L118.523 16.3125L117.973 18.2353ZM120.113 18.4079L121.632 22.7524L123.52 22.0922L122.001 17.7477L120.113 18.4079ZM121.633 22.7524C121.951 23.6625 122.741 24.3825 123.79 24.3825V22.3825C123.754 22.3825 123.719 22.3728 123.678 22.3403C123.634 22.3049 123.569 22.2302 123.52 22.0922L121.633 22.7524ZM123.79 24.3825C124.425 24.3825 124.993 24.1143 125.438 23.7048L124.084 22.2331C123.941 22.3646 123.838 22.3825 123.79 22.3825V24.3825ZM125.439 23.7046L127.176 22.1046L125.822 20.6333L124.084 22.2333L125.439 23.7046ZM125.872 22.1478L128.392 24.1773L129.646 22.6195L127.126 20.5901L125.872 22.1478ZM128.312 24.1055C128.342 24.1349 128.369 24.159 128.393 24.1783C128.417 24.1974 128.438 24.2127 128.455 24.2239C128.471 24.235 128.485 24.2435 128.493 24.2484C128.497 24.251 128.5 24.253 128.502 24.2542C128.503 24.2549 128.504 24.2554 128.504 24.2557C128.505 24.2558 128.505 24.256 128.505 24.2561C128.505 24.2561 128.505 24.2561 128.505 24.2561C128.505 24.2562 128.505 24.2562 128.505 24.2562C128.505 24.2562 128.505 24.2562 128.505 24.2562C128.506 24.2563 128.504 24.2554 128.502 24.2543C128.5 24.2531 128.497 24.2511 128.493 24.2486C128.485 24.2436 128.471 24.2352 128.455 24.2241C128.439 24.213 128.418 24.1978 128.394 24.1787C128.37 24.1595 128.342 24.1354 128.313 24.106L129.727 22.6919C129.698 22.6625 129.67 22.6384 129.646 22.6191C129.622 22.6 129.601 22.5847 129.585 22.5735C129.568 22.5624 129.555 22.5539 129.547 22.5489C129.543 22.5464 129.539 22.5443 129.537 22.5431C129.536 22.5425 129.536 22.542 129.535 22.5417C129.535 22.5415 129.535 22.5414 129.534 22.5413C129.534 22.5413 129.534 22.5412 129.534 22.5412C129.534 22.5412 129.534 22.5412 129.534 22.5412C129.534 22.5412 129.534 22.5412 129.534 22.5412C129.534 22.541 129.535 22.5419 129.537 22.543C129.539 22.5442 129.543 22.5463 129.547 22.5488C129.555 22.5537 129.568 22.5622 129.584 22.5732C129.6 22.5844 129.622 22.5995 129.645 22.6187C129.669 22.6379 129.697 22.6619 129.726 22.6913L128.312 24.1055ZM128.393 24.1775L128.416 24.1968L129.672 22.6397L129.648 22.6204L128.393 24.1775ZM128.43 24.2076C128.43 24.2071 128.429 24.2069 128.431 24.208C128.431 24.2086 128.434 24.2107 128.437 24.2129L129.665 22.6342C129.665 22.6347 129.666 22.6349 129.664 22.6338C129.663 22.6332 129.661 22.6311 129.658 22.6289L128.43 24.2076ZM128.438 24.2137C128.86 24.5407 129.375 24.7554 129.935 24.7557L129.936 22.7557C129.898 22.7557 129.802 22.7409 129.664 22.6333L128.438 24.2137ZM129.935 24.7557H129.936V22.7557H129.935V24.7557ZM129.936 24.7557C131.1 24.7557 131.892 23.8772 132.099 22.8537L130.139 22.4567C130.107 22.6157 130.047 22.6938 130.015 22.7237C129.988 22.7482 129.968 22.7557 129.936 22.7557V24.7557ZM132.099 22.8537L134.319 11.8962L132.358 11.4992L130.139 22.4567L132.099 22.8537ZM134.318 11.8963C134.45 11.2468 134.365 10.5228 133.902 9.95629L132.354 11.2225C132.34 11.2058 132.405 11.269 132.358 11.4991L134.318 11.8963ZM122.452 18.8156L127.872 16.0467L126.962 14.2657L121.542 17.0346L122.452 18.8156ZM126.689 14.4708L123.314 18.0569L124.77 19.4276L128.145 15.8415L126.689 14.4708ZM123.314 18.0566C123.141 18.2404 123.018 18.466 122.957 18.7118L124.899 19.1904C124.877 19.2798 124.833 19.3615 124.77 19.4278L123.314 18.0566ZM122.958 18.7114L122.307 21.3474L124.248 21.8268L124.899 19.1908L122.958 18.7114ZM124.222 21.257L122.941 17.595L121.053 18.2552L122.334 21.9172L124.222 21.257ZM123.45 21.5427C123.455 21.538 123.458 21.5356 123.458 21.5358L124.659 23.1347C124.704 23.101 124.753 23.0617 124.803 23.0157L123.45 21.5427ZM125.029 22.575L125.633 20.1297L123.691 19.6502L123.088 22.0956L125.029 22.575ZM124.035 20.6688L125.133 21.5532L126.388 19.9955L125.289 19.1111L124.035 20.6688ZM125.083 20.0387L123.449 21.5436L124.803 23.0149L126.438 21.51L125.083 20.0387ZM131.439 11.313L129.22 22.2707L131.181 22.6677L133.4 11.71L131.439 11.313ZM129.221 22.2696C129.221 22.269 129.221 22.2684 129.221 22.2676C129.221 22.2669 129.222 22.2646 129.223 22.2608C129.224 22.2568 129.233 22.2311 129.254 22.193C129.273 22.1587 129.326 22.0732 129.432 21.9901C129.553 21.8962 129.728 21.8181 129.935 21.8181V23.8181C130.567 23.8181 130.891 23.3623 130.997 23.1729C131.115 22.9635 131.163 22.7561 131.18 22.6688L129.221 22.2696ZM129.935 21.8181C130.067 21.8181 130.156 21.8518 130.189 21.8662C130.227 21.8826 130.242 21.8956 130.239 21.8927L129.018 23.4773C129.204 23.62 129.528 23.8181 129.935 23.8181V21.8181ZM130.256 21.9061L127.4 19.6065L126.145 21.1643L129.001 23.4639L130.256 21.9061ZM127.48 19.6783C127.411 19.61 127.325 19.5432 127.218 19.49L126.324 21.2789C126.267 21.2503 126.219 21.2195 126.181 21.1913C126.142 21.1629 126.103 21.1302 126.065 21.0925L127.48 19.6783ZM127.398 19.6056L125.699 18.2372L124.445 19.7949L126.144 21.1633L127.398 19.6056ZM125.8 19.7014L130.681 14.5155L129.224 13.1448L124.344 18.3307L125.8 19.7014ZM130.68 14.5155C131.17 13.9953 131.214 13.1985 130.786 12.6273L129.186 13.8276C129.031 13.6212 129.047 13.3329 129.224 13.1448L130.68 14.5155ZM130.785 12.627C130.357 12.0559 129.579 11.8758 128.943 12.2011L129.853 13.9819C129.623 14.0996 129.341 14.0343 129.186 13.828L130.785 12.627ZM128.943 12.201L120.916 16.3018L121.826 18.0828L129.853 13.982L128.943 12.201ZM121.646 16.2309L118.798 15.4162L118.248 17.339L121.096 18.1537L121.646 16.2309ZM118.88 17.3119L132.419 12.1434L131.706 10.2749L118.166 15.4434L118.88 17.3119ZM132.42 12.1433C132.431 12.139 132.39 12.1563 132.304 12.1563V10.1563C132.124 10.1563 131.923 10.192 131.706 10.275L132.42 12.1433ZM132.304 12.1563C132.288 12.1563 132.234 12.1562 132.159 12.1412C132.121 12.1335 132.051 12.1168 131.968 12.0789C131.888 12.0426 131.749 11.9655 131.626 11.8132L133.179 10.5529C132.936 10.254 132.614 10.1926 132.554 10.1806C132.442 10.1581 132.348 10.1563 132.304 10.1563V12.1563ZM131.629 11.8168C131.536 11.7033 131.494 11.5978 131.475 11.5454C131.454 11.4833 131.445 11.4324 131.441 11.3986C131.434 11.3305 131.442 11.2986 131.439 11.3134L133.4 11.7097C133.436 11.53 133.449 11.3491 133.429 11.1729C133.413 11.0326 133.363 10.7781 133.176 10.5493L131.629 11.8168Z" fill="#676767" mask="url(#path-7-inside-3_3346_17204)"/>
    </g>
    <path d="M171.901 16.4638C171.901 13.1885 168.618 10.5238 164.581 10.5238C160.546 10.5238 157.262 13.1885 157.262 16.4638C157.262 19.4001 159.866 21.8593 163.383 22.3243C163.622 22.3756 163.946 22.4814 164.028 22.6852C164.102 22.8703 164.076 23.1602 164.052 23.3471C164.052 23.3471 163.966 23.8636 163.947 23.9736C163.916 24.1587 163.8 24.6974 164.581 24.3682C165.363 24.039 168.797 21.8861 170.332 20.1184C171.393 18.9552 171.901 17.7747 171.901 16.4638Z" stroke="#676767" stroke-width="0.5"/>
    <path d="M206.958 13L205.625 10.3333H201.625L200.292 13M207.625 13H199.625C198.158 13 196.958 14.2 196.958 15.6666V21C196.958 22.4666 198.158 23.6666 199.625 23.6666H207.625C209.092 23.6666 210.292 22.4666 210.292 21V15.6666C210.292 14.2 209.092 13 207.625 13ZM203.625 21C202.158 21 200.958 19.8 200.958 18.3333C200.958 16.8666 202.158 15.6666 203.625 15.6666C205.092 15.6666 206.292 16.8666 206.292 18.3333C206.292 19.8 205.092 21 203.625 21Z" stroke="#676767" stroke-linecap="round"/>
    <path d="M243.084 23.6666H237.75C237.017 23.6666 236.417 23.0666 236.417 22.3333V16.9999C236.417 13.3333 239.417 10.3333 243.084 10.3333C246.75 10.3333 249.75 13.3333 249.75 16.9999C249.75 20.7333 246.817 23.6666 243.084 23.6666Z" stroke="#676767" stroke-miterlimit="10" stroke-linecap="round" stroke-linejoin="round"/>
    <path d="M239.917 16.9997C239.917 17.0917 239.843 17.1663 239.751 17.1663C239.659 17.1663 239.584 17.0917 239.584 16.9997C239.584 16.9076 239.659 16.833 239.751 16.833C239.843 16.833 239.917 16.9076 239.917 16.9997Z" fill="#676767" stroke="#676767"/>
    <path d="M246.583 16.9997C246.583 17.0917 246.509 17.1663 246.417 17.1663C246.325 17.1663 246.25 17.0917 246.25 16.9997C246.25 16.9076 246.325 16.833 246.417 16.833C246.509 16.833 246.583 16.9076 246.583 16.9997Z" fill="#676767" stroke="#676767"/>
    <path d="M243.25 16.9997C243.25 17.0917 243.176 17.1663 243.084 17.1663C242.992 17.1663 242.917 17.0917 242.917 16.9997C242.917 16.9076 242.992 16.833 243.084 16.833C243.176 16.833 243.25 16.9076 243.25 16.9997Z" fill="#676767" stroke="#676767"/>
    <path d="M284.049 21.1729L285.67 19.5523C286.127 19.0954 286.845 19.0319 287.375 19.4015L289.137 20.63C289.818 21.1048 289.904 22.0795 289.317 22.6664L289.14 22.843C288.825 23.1587 288.374 23.2953 287.945 23.1723C286.546 22.7713 283.283 21.6115 280.629 18.9583C277.976 16.3051 276.816 13.042 276.415 11.6429C276.292 11.2137 276.429 10.7632 276.745 10.4475L276.921 10.2709C277.508 9.68399 278.483 9.77018 278.958 10.451L280.186 12.2124C280.556 12.7424 280.492 13.4611 280.035 13.918L278.415 15.5386" stroke="#676767"/>
    <path fill-rule="evenodd" clip-rule="evenodd" d="M321.894 23.4586C321.894 23.4586 326.788 19.5434 326.788 14.8941C326.788 12.1912 324.597 10.0001 321.894 10.0001C319.191 10.0001 317 12.1912 317 14.8941C317 19.5434 321.894 23.4586 321.894 23.4586Z" stroke="#676767"/>
    <path fill-rule="evenodd" clip-rule="evenodd" d="M321.894 17.3413C323.245 17.3413 324.341 16.2457 324.341 14.8943C324.341 13.5428 323.245 12.4473 321.894 12.4473C320.543 12.4473 319.447 13.5428 319.447 14.8943C319.447 16.2457 320.543 17.3413 321.894 17.3413Z" stroke="#676767"/>
    <defs>
        <clipPath id="clip0_3346_17204">
            <rect width="16" height="16" fill="white" transform="translate(0 9)"/>
        </clipPath>
        <clipPath id="clip1_3346_17204">
            <rect width="16" height="16" fill="white" transform="translate(39.125 9)"/>
        </clipPath>
        <clipPath id="clip2_3346_17204">
            <rect width="16" height="16" fill="white" transform="translate(78.25 9)"/>
        </clipPath>
        <clipPath id="clip3_3346_17204">
            <rect width="16" height="16" fill="white" transform="translate(117.375 9)"/>
        </clipPath>
    </defs>
</svg>
