<svg width="40" height="40" viewBox="0 0 40 40" fill="none" xmlns="http://www.w3.org/2000/svg">
<g clip-path="url(#clip0_28_1743)">
<path d="M20.0001 9.53125C13.6119 9.53125 8.3314 14.1602 7.29468 20.2344C8.29077 26.7492 13.2767 30.625 20.0001 30.625C26.6572 30.625 31.6978 26.8133 32.7064 20.2328C31.6642 14.0695 26.358 9.53125 20.0001 9.53125ZM20.0001 25.9375C19.3533 25.9375 18.8283 25.4125 18.8283 24.7656C18.8283 24.1187 19.3533 23.5938 20.0001 23.5938C20.647 23.5938 21.172 24.1187 21.172 24.7656C21.172 25.4125 20.647 25.9375 20.0001 25.9375ZM21.6353 18.5031C21.358 18.6492 21.172 19.025 21.172 19.4391V20.0781C21.172 20.725 20.647 21.25 20.0001 21.25C19.3533 21.25 18.8283 20.725 18.8283 20.0781V19.4391C18.8283 18.1391 19.4861 16.9859 20.5447 16.4289C20.9314 16.225 21.172 15.8273 21.172 15.3906C21.172 14.7445 20.6462 14.2188 20.0001 14.2188C19.3541 14.2188 18.8283 14.7445 18.8283 15.3906C18.8283 16.0375 18.3033 16.5625 17.6564 16.5625C17.0095 16.5625 16.4845 16.0375 16.4845 15.3906C16.4845 13.4523 18.0619 11.875 20.0001 11.875C21.9384 11.875 23.5158 13.4523 23.5158 15.3906C23.5158 16.7 22.7955 17.893 21.6353 18.5031ZM20.0001 0C13.8291 0 8.97905 6.71641 7.5439 13.6438C10.297 9.74063 14.8408 7.1875 20.0001 7.1875C25.1275 7.1875 29.6837 9.72734 32.4486 13.6359C31.0275 6.83359 26.297 0 20.0001 0Z" fill="#F2B601"/>
<path d="M18.8281 32.9328V40H9.45312V34.1406C9.45312 33.4937 8.92813 32.9687 8.28125 32.9687C7.63438 32.9687 7.10938 33.4937 7.10938 34.1406V40H1.17188C0.525 40 0 39.475 0 38.8281V33.1133C0 30.4195 1.825 28.082 4.43828 27.4289L7.30234 26.7203C9.75859 30.3836 13.8398 32.6297 18.8281 32.9328Z" fill="#F2B601"/>
<path d="M40.0001 33.1133V38.8281C40.0001 39.475 39.4751 40 38.8283 40H32.8908V34.1406C32.8908 33.4937 32.3658 32.9687 31.7189 32.9687C31.072 32.9687 30.547 33.4937 30.547 34.1406V40H21.172V32.9328C26.0954 32.6312 30.2165 30.4226 32.6986 26.7203L35.5587 27.4281C38.1751 28.082 40.0001 30.4195 40.0001 33.1133Z" fill="#F2B601"/>
</g>
<defs>
<clipPath id="clip0_28_1743">
<rect width="40" height="40" fill="white"/>
</clipPath>
</defs>
</svg>
