<svg width="40" height="40" viewBox="0 0 40 40" fill="none" xmlns="http://www.w3.org/2000/svg">
<g clip-path="url(#clip0_28_1730)">
<path d="M17.0056 34.1095C16.3821 34.5764 15.6445 34.8148 14.9008 34.8157C14.3655 34.8157 13.8272 34.6915 13.3258 34.4406C12.1259 33.8416 11.3806 32.6358 11.3806 31.297V16.2344C11.3806 12.2195 14.6469 8.95325 18.6618 8.95325H27.4475V4.93744C27.4475 3.61877 26.9345 2.37885 26.0016 1.44623C25.0687 0.513306 23.829 0 22.5101 0H4.93744C2.21497 0 0 2.21497 0 4.93744V35.0626C0 37.785 2.21497 40 4.93744 40H22.5101C23.829 40 25.0687 39.4867 26.0022 38.5538C26.9345 37.6212 27.4475 36.3812 27.4475 35.0626V31.0468H21.0883L17.0056 34.1095ZM10.0415 4.47662C10.0415 3.82935 10.5664 3.30475 11.2134 3.30475H16.2344C16.8817 3.30475 17.4063 3.82935 17.4063 4.47662C17.4063 5.1239 16.8817 5.6485 16.2344 5.6485H11.2134C10.5664 5.6485 10.0415 5.1239 10.0415 4.47662Z" fill="#F2B601"/>
<path d="M35.0626 11.297H18.6615C15.939 11.297 13.7241 13.5117 13.7241 16.2344V31.297C13.7241 32.2556 14.8236 32.8159 15.5991 32.2345L20.3073 28.703H35.0626C37.785 28.703 40 26.4883 40 23.7656V16.2344C40 13.5117 37.785 11.297 35.0626 11.297ZM26.2759 23.6823H20.6274C19.9805 23.6823 19.4556 23.1577 19.4556 22.5104C19.4556 21.8631 19.9805 21.3385 20.6274 21.3385H26.2759C26.9232 21.3385 27.4478 21.8631 27.4478 22.5104C27.4478 23.1577 26.9232 23.6823 26.2759 23.6823ZM33.1796 18.6615H20.6274C19.9805 18.6615 19.4556 18.1369 19.4556 17.4896C19.4556 16.8423 19.9805 16.3177 20.6274 16.3177H33.1796C33.8269 16.3177 34.3515 16.8423 34.3515 17.4896C34.3515 18.1369 33.8269 18.6615 33.1796 18.6615Z" fill="#F2B601"/>
</g>
<defs>
<clipPath id="clip0_28_1730">
<rect width="40" height="40" fill="white"/>
</clipPath>
</defs>
</svg>
