<svg width="40" height="40" viewBox="0 0 40 40" fill="none" xmlns="http://www.w3.org/2000/svg">
<path d="M18.4115 3.51562L19.5834 0H12.679L13.8508 3.51562H18.4115Z" fill="#F2B601"/>
<path d="M34.4906 24.2969H37.6153C38.4782 24.2969 39.1778 23.5973 39.1778 22.7345L39.178 19.6152C39.1781 18.6473 38.5891 17.7717 37.6836 17.4296C35.4688 16.5928 32.2196 15.7031 28.2406 15.7031C26.202 15.7031 22.7462 15.9367 18.7992 17.4287C17.8949 17.7706 17.3032 18.6499 17.3032 19.6168L17.3034 22.7345C17.3035 23.5974 18.003 24.297 18.8659 24.297H21.9906C22.8535 24.297 23.5531 23.5974 23.5531 22.7345V21.172C24.6045 20.8115 26.227 20.3907 28.2406 20.3907C29.3521 20.3907 31.0234 20.5189 32.9281 21.172V22.7345C32.9281 23.5973 33.6277 24.2969 34.4906 24.2969Z" fill="#F2B601"/>
<path d="M21.9906 26.6406H18.8659C16.7122 26.6406 14.9598 24.8884 14.9596 22.7347L14.9595 19.6169C14.9593 17.6777 16.1693 15.9173 17.9705 15.2364C21.2652 13.9909 24.7206 13.3594 28.2406 13.3594V3.51562C28.2406 1.57711 26.6635 0 24.725 0H22.054L20.368 5.05805C20.2084 5.53664 19.7606 5.85938 19.2563 5.85938H13.0063C12.5018 5.85938 12.0541 5.53664 11.8945 5.05805L10.2085 0H7.53751C5.59899 0 4.02188 1.57711 4.02188 3.51562V36.4844C4.02188 38.4229 5.59899 40 7.53751 40H24.725C26.6635 40 28.2406 38.4229 28.2406 36.4844V22.7344C27.4484 22.7344 26.6624 22.8114 25.8902 22.9643C25.7708 25.0116 24.0674 26.6406 21.9906 26.6406ZM18.475 36.4844H13.7875C13.1403 36.4844 12.6156 35.9597 12.6156 35.3125C12.6156 34.6653 13.1403 34.1406 13.7875 34.1406H18.475C19.1222 34.1406 19.6469 34.6653 19.6469 35.3125C19.6469 35.9597 19.1222 36.4844 18.475 36.4844Z" fill="#F2B601"/>
</svg>
