<svg width="90" height="40" viewBox="0 0 90 40" fill="none" xmlns="http://www.w3.org/2000/svg">
<path d="M10.5063 23.9857C10.892 24.3714 12.2189 25.328 14.132 25.328C15.2274 25.328 16.1069 25.0194 16.7549 24.4023C17.4183 23.7851 17.7423 23.0291 17.7423 22.1189C17.7577 20.0977 15.86 19.28 14.4097 18.74C13.4069 18.3543 12.5891 17.8451 12.5891 17.1509C12.5891 16.3949 13.2989 15.8394 14.24 15.8394C14.6566 15.8394 15.0731 15.932 15.4897 16.1017C15.9063 16.2714 16.184 16.4257 16.3229 16.5337C16.4617 16.6417 16.5851 16.7189 16.6623 16.796L17.5263 15.176L17.1869 14.8829C16.9554 14.6823 16.5697 14.4972 16.0297 14.2966C15.4897 14.096 14.888 14.0034 14.2554 14.0034C13.2063 14.0034 12.3269 14.312 11.6326 14.9137C10.9383 15.5154 10.5834 16.2714 10.5834 17.1817C10.5526 19.1257 12.4811 19.9589 13.9314 20.5143C14.9343 20.9309 15.752 21.4709 15.752 22.1651C15.752 23.0137 15.0423 23.492 14.1629 23.492C13.2217 23.492 12.4503 23.0909 11.9411 22.736C11.5709 22.4737 11.4937 22.3966 11.432 22.3349L10.352 23.8314L10.5063 23.9857ZM21.7184 25.1429V21.3629H23.9555C24.9892 21.3629 25.8224 21.0234 26.4704 20.36C27.1184 19.6811 27.4424 18.8171 27.4424 17.7526C27.4424 16.688 27.1184 15.8394 26.4704 15.176C25.8224 14.5126 24.9892 14.1886 23.9555 14.1886H19.7281V25.1429H21.7184ZM21.7184 15.9012H23.6161C24.727 15.9012 25.4212 16.6263 25.4212 17.7526C25.4212 18.9097 24.7424 19.6349 23.5852 19.6349H21.7184V15.9012ZM33.4789 25.1429V20.5606L37.1201 14.1886H34.8675L33.1704 17.4131C32.9389 17.8606 32.7075 18.3543 32.5069 18.8789H32.4761L32.4452 18.848C32.3835 18.6783 32.1212 17.9686 31.8126 17.4131L30.1001 14.1886H27.8475L31.4886 20.5606V25.1429H33.4789ZM40.537 25.1429V18.8326C40.537 18.4006 40.5062 17.8297 40.429 17.1354H40.4599L40.5987 17.4286C40.7839 17.7989 41.1233 18.4623 41.3702 18.8326L45.5204 25.1429H47.4953V14.1886H45.5204V20.5143C45.5204 20.9463 45.5513 21.5171 45.6284 22.2114H45.5976L45.4587 21.9337C45.2736 21.548 44.9342 20.8846 44.6873 20.5143L40.537 14.1886H38.5467V25.1429H40.537ZM49.5282 19.6503C49.5282 21.332 50.0528 22.6897 51.0865 23.7543C52.1357 24.8034 53.4008 25.328 54.8974 25.328C56.1162 25.328 57.0265 24.9269 57.5357 24.572C57.9522 24.2789 58.014 24.2171 58.0757 24.1554H58.1065L58.0911 24.6183V25.1429H59.7882V19.3726H56.3168V21.0851H57.9985V22.3657L57.6745 22.6434C57.474 22.844 57.1345 23.0291 56.6717 23.2297C56.2242 23.4149 55.746 23.5074 55.2522 23.5074C54.2031 23.5074 53.3237 23.1526 52.6294 22.4274C51.9351 21.7023 51.5802 20.7457 51.5802 19.5886C51.5802 18.5086 51.9042 17.6137 52.5677 16.904C53.2311 16.1789 54.1568 15.824 55.3448 15.824C55.854 15.824 56.3631 15.9166 56.8722 16.1171C57.3814 16.3177 57.7208 16.472 57.8751 16.58C58.0448 16.688 58.1682 16.796 58.2608 16.8731L59.2482 15.392L59.094 15.2377C58.8625 15.0526 58.3842 14.7594 57.7671 14.4972C57.1654 14.2349 56.178 14.0034 55.1751 14.0034C53.5551 14.0034 52.2128 14.5434 51.1328 15.6389C50.0682 16.7189 49.5282 18.0611 49.5282 19.6503ZM68.7949 25.1429V23.4303H63.9812V20.4834H67.6686V18.7709H63.9812V15.9012H68.548V14.1886H61.9909V25.1429H68.7949ZM72.8556 25.1429V21.0543H74.7688L76.9442 25.1429H79.1659L76.9133 21.0543C76.7745 20.792 76.651 20.6223 76.543 20.5143V20.4834C77.6693 20.036 78.3945 18.8326 78.3945 17.4903C78.3945 16.0709 77.7156 15.0063 76.6048 14.4972C76.1573 14.2966 75.4168 14.1886 74.3985 14.1886H70.8653V25.1429H72.8556ZM72.8556 15.9012H74.3676C75.8488 15.9012 76.3733 16.472 76.3733 17.5983C76.3733 18.6937 75.7099 19.3263 74.6453 19.3263H72.8556V15.9012Z" fill="white"/>
<rect x="1.42857" y="1.42857" width="86.857" height="37.1429" stroke="white" stroke-width="2.85714"/>
</svg>
