<svg width="56" height="55" viewBox="0 0 56 55" fill="none" xmlns="http://www.w3.org/2000/svg">
<path d="M53.325 18.6001C54.8428 22.6827 55.3494 27.0722 54.8015 31.3932C54.2536 35.7143 52.6675 39.8384 50.1788 43.413C47.6901 46.9877 44.3728 49.9065 40.5104 51.92C36.6481 53.9334 32.3556 54.9817 28 54.9751C23.6844 54.9795 19.4307 53.9493 15.5953 51.9709C11.7599 49.9926 8.45456 47.1237 5.95639 43.6047C3.45822 40.0857 1.83997 36.0191 1.23727 31.7459C0.634562 27.4726 1.06497 23.1171 2.49241 19.0444C3.91986 14.9718 6.30275 11.3006 9.44136 8.33863C12.58 5.37666 16.3829 3.21019 20.5313 2.02079C24.6797 0.831393 29.0528 0.653726 33.2841 1.50268C37.5153 2.35164 41.4814 4.20248 44.85 6.90008L49.875 1.87508C50.4386 1.3115 51.2029 0.994881 52 0.994881C52.797 0.994881 53.5614 1.3115 54.125 1.87508C54.6886 2.43867 55.0052 3.20306 55.0052 4.00008C55.0052 4.79711 54.6886 5.5615 54.125 6.12508L38.6 21.6251L30.125 30.1251C29.5589 30.6839 28.7954 30.9972 28 30.9972C27.2045 30.9972 26.4411 30.6839 25.875 30.1251C25.5953 29.8464 25.3734 29.5152 25.222 29.1505C25.0706 28.7859 24.9926 28.3949 24.9926 28.0001C24.9926 27.6052 25.0706 27.2143 25.222 26.8496C25.3734 26.485 25.5953 26.1538 25.875 25.8751L31.875 19.8751C30.3855 19.1682 28.7304 18.884 27.0904 19.0536C25.4504 19.2233 23.8885 19.8401 22.5752 20.8369C21.2619 21.8336 20.2476 23.172 19.6431 24.7059C19.0385 26.2398 18.867 27.9103 19.1471 29.5351C19.4272 31.1598 20.1483 32.6764 21.2316 33.9193C22.3149 35.1622 23.7188 36.0837 25.2901 36.5831C26.8614 37.0825 28.5396 37.1407 30.1417 36.7513C31.7438 36.3619 33.2082 35.54 34.375 34.3751C35.6227 33.1134 36.4743 31.5145 36.825 29.7751C37.0072 29.0193 37.4757 28.3638 38.1317 27.9467C38.7877 27.5296 39.5801 27.3834 40.3418 27.539C41.1035 27.6945 41.775 28.1397 42.2149 28.7807C42.6548 29.4217 42.8287 30.2084 42.7 30.9751C42.1601 33.6311 40.9108 36.0912 39.0847 38.0939C37.2586 40.0967 34.924 41.5673 32.329 42.3493C29.734 43.1314 26.9756 43.1958 24.3469 42.5357C21.7182 41.8755 19.3175 40.5155 17.4 38.6001C15.3048 36.5023 13.8784 33.8308 13.3007 30.9228C12.723 28.0148 13.02 25.0009 14.1542 22.2616C15.2885 19.5223 17.209 17.1806 19.6733 15.5322C22.1376 13.8838 25.0352 13.0027 28 13.0001C30.9411 12.9974 33.8183 13.858 36.275 15.4751L40.575 11.1751C36.5307 8.1621 31.5363 6.70713 26.5066 7.07673C21.477 7.44633 16.7489 9.61575 13.1885 13.1876C9.62813 16.7594 7.47388 21.4944 7.1204 26.5252C6.76692 31.556 8.23789 36.5458 11.2638 40.5803C14.2897 44.6149 18.668 47.4242 23.5966 48.4934C28.5251 49.5627 33.674 48.8205 38.0998 46.4026C42.5256 43.9848 45.9321 40.0532 47.6953 35.3282C49.4584 30.6032 49.4601 25.4012 47.7 20.6751C47.4241 19.9323 47.4533 19.1106 47.7812 18.3893C48.1091 17.668 48.709 17.1057 49.45 16.8251C50.1994 16.5497 51.0273 16.5817 51.7532 16.9142C52.4791 17.2467 53.0441 17.8527 53.325 18.6001Z" fill="#F2B601"/>
</svg>
