<svg width="86" height="209" viewBox="0 0 86 209" fill="none" xmlns="http://www.w3.org/2000/svg">
<path d="M85 1H86V0H85V1ZM85 201V202H86V201H85ZM0.292893 200.293C-0.0976311 200.683 -0.0976311 201.317 0.292893 201.707L6.65685 208.071C7.04738 208.462 7.68054 208.462 8.07107 208.071C8.46159 207.681 8.46159 207.047 8.07107 206.657L2.41421 201L8.07107 195.343C8.46159 194.953 8.46159 194.319 8.07107 193.929C7.68054 193.538 7.04738 193.538 6.65685 193.929L0.292893 200.293ZM1 2H4V0H1V2ZM10 2H16V0H10V2ZM22 2H28V0H22V2ZM34 2H40V0H34V2ZM46 2H52V0H46V2ZM58 2H64V0H58V2ZM70 2H76V0H70V2ZM82 2H85V0H82V2ZM84 1V3.94118H86V1H84ZM84 9.82353V15.7059H86V9.82353H84ZM84 21.5882V27.4706H86V21.5882H84ZM84 33.3529V39.2353H86V33.3529H84ZM84 45.1176V51H86V45.1176H84ZM84 56.8824V62.7647H86V56.8824H84ZM84 68.6471V74.5294H86V68.6471H84ZM84 80.4118V86.2941H86V80.4118H84ZM84 92.1765V98.0588H86V92.1765H84ZM84 103.941V109.824H86V103.941H84ZM84 115.706V121.588H86V115.706H84ZM84 127.471V133.353H86V127.471H84ZM84 139.235V145.118H86V139.235H84ZM84 151V156.882H86V151H84ZM84 162.765V168.647H86V162.765H84ZM84 174.529V180.412H86V174.529H84ZM84 186.294V192.176H86V186.294H84ZM84 198.059V201H86V198.059H84ZM85 200H82V202H85V200ZM76 200H70V202H76V200ZM64 200H58V202H64V200ZM52 200H46V202H52V200ZM40 200H34V202H40V200ZM28 200H22V202H28V200ZM16 200H10V202H16V200ZM4 200H1V202H4V200Z" fill="#676767"/>
</svg>
