<svg width="246" height="12" viewBox="0 0 246 12" fill="none" xmlns="http://www.w3.org/2000/svg">
<path d="M1 5.5C0.723858 5.5 0.5 5.72386 0.5 6C0.5 6.27614 0.723858 6.5 1 6.5L1 5.5ZM246 5.99998L241 3.11323L241 8.88673L246 5.99998ZM1 6.5L4.0625 6.5L4.0625 5.5L1 5.5L1 6.5ZM10.1875 6.5L16.3125 6.5L16.3125 5.5L10.1875 5.5L10.1875 6.5ZM22.4375 6.5L28.5625 6.5L28.5625 5.5L22.4375 5.5L22.4375 6.5ZM34.6875 6.5L40.8125 6.5L40.8125 5.5L34.6875 5.5L34.6875 6.5ZM46.9375 6.5L53.0625 6.5L53.0625 5.5L46.9375 5.5L46.9375 6.5ZM59.1875 6.49999L65.3125 6.49999L65.3125 5.49999L59.1875 5.49999L59.1875 6.49999ZM71.4375 6.49999L77.5625 6.49999L77.5625 5.49999L71.4375 5.49999L71.4375 6.49999ZM83.6875 6.49999L89.8125 6.49999L89.8125 5.49999L83.6875 5.49999L83.6875 6.49999ZM95.9375 6.49999L102.063 6.49999L102.062 5.49999L95.9375 5.49999L95.9375 6.49999ZM108.188 6.49999L114.313 6.49999L114.312 5.49999L108.187 5.49999L108.188 6.49999ZM120.438 6.49999L126.563 6.49999L126.562 5.49999L120.437 5.49999L120.438 6.49999ZM132.688 6.49999L138.813 6.49999L138.812 5.49999L132.687 5.49999L132.688 6.49999ZM144.938 6.49999L151.063 6.49999L151.062 5.49999L144.937 5.49999L144.938 6.49999ZM157.188 6.49999L163.313 6.49999L163.312 5.49999L157.187 5.49999L157.188 6.49999ZM169.438 6.49999L175.563 6.49998L175.562 5.49998L169.437 5.49999L169.438 6.49999ZM181.688 6.49998L187.813 6.49998L187.812 5.49998L181.687 5.49998L181.688 6.49998ZM193.938 6.49998L200.063 6.49998L200.062 5.49998L193.937 5.49998L193.938 6.49998ZM206.188 6.49998L212.313 6.49998L212.312 5.49998L206.187 5.49998L206.188 6.49998ZM218.438 6.49998L224.563 6.49998L224.562 5.49998L218.437 5.49998L218.438 6.49998ZM230.688 6.49998L236.813 6.49998L236.812 5.49998L230.687 5.49998L230.688 6.49998ZM1 5C0.447715 5 -4.82823e-08 5.44772 0 6C4.82823e-08 6.55228 0.447715 7 1 7L1 5ZM246 5.99998L236 0.226477L236 11.7735L246 5.99998ZM1 7L4.0625 7L4.0625 5L1 5L1 7ZM10.1875 7L16.3125 7L16.3125 5L10.1875 5L10.1875 7ZM22.4375 7L28.5625 7L28.5625 5L22.4375 5L22.4375 7ZM34.6875 7L40.8125 7L40.8125 5L34.6875 5L34.6875 7ZM46.9375 7L53.0625 7L53.0625 5L46.9375 5L46.9375 7ZM59.1875 6.99999L65.3125 6.99999L65.3125 4.99999L59.1875 4.99999L59.1875 6.99999ZM71.4375 6.99999L77.5625 6.99999L77.5625 4.99999L71.4375 4.99999L71.4375 6.99999ZM83.6875 6.99999L89.8125 6.99999L89.8125 4.99999L83.6875 4.99999L83.6875 6.99999ZM95.9375 6.99999L102.063 6.99999L102.062 4.99999L95.9375 4.99999L95.9375 6.99999ZM108.188 6.99999L114.313 6.99999L114.312 4.99999L108.187 4.99999L108.188 6.99999ZM120.438 6.99999L126.563 6.99999L126.562 4.99999L120.437 4.99999L120.438 6.99999ZM132.688 6.99999L138.813 6.99999L138.812 4.99999L132.687 4.99999L132.688 6.99999ZM144.938 6.99999L151.063 6.99999L151.062 4.99999L144.937 4.99999L144.938 6.99999ZM157.188 6.99999L163.313 6.99999L163.312 4.99999L157.187 4.99999L157.188 6.99999ZM169.438 6.99999L175.563 6.99998L175.562 4.99998L169.437 4.99999L169.438 6.99999ZM181.688 6.99998L187.813 6.99998L187.812 4.99998L181.687 4.99998L181.688 6.99998ZM193.938 6.99998L200.063 6.99998L200.062 4.99998L193.937 4.99998L193.938 6.99998ZM206.188 6.99998L212.313 6.99998L212.312 4.99998L206.187 4.99998L206.188 6.99998ZM218.438 6.99998L224.563 6.99998L224.562 4.99998L218.437 4.99998L218.438 6.99998ZM230.688 6.99998L236.813 6.99998L236.812 4.99998L230.687 4.99998L230.688 6.99998Z" fill="url(#paint0_linear_22_1736)"/>
<defs>
<linearGradient id="paint0_linear_22_1736" x1="246" y1="5.99906" x2="1" y2="6" gradientUnits="userSpaceOnUse">
<stop stop-color="white"/>
<stop offset="1" stop-color="white" stop-opacity="0"/>
</linearGradient>
</defs>
</svg>
