<svg width="40" height="40" viewBox="0 0 40 40" fill="none" xmlns="http://www.w3.org/2000/svg">
<path d="M38.4375 16.875H25.5469C24.6839 16.875 23.9844 17.5745 23.9844 18.4375V23.9063C23.9844 24.7692 24.6839 25.4688 25.5469 25.4688H26.7188V26.7077C26.7188 27.4037 27.5602 27.7523 28.0524 27.2601L29.8438 25.4688H38.4375C39.3005 25.4688 40 24.7692 40 23.9063V18.4375C40 17.5745 39.3005 16.875 38.4375 16.875Z" fill="#F2B601"/>
<path d="M11.9476 21.7913C12.4398 22.2835 13.2812 21.9349 13.2812 21.2389V20H14.4531C15.3161 20 16.0156 19.3005 16.0156 18.4375V12.9688C16.0156 12.1058 15.3161 11.4062 14.4531 11.4062H1.5625C0.699531 11.4062 0 12.1058 0 12.9688V18.4375C0 19.3005 0.699531 20 1.5625 20H10.1562L11.9476 21.7913Z" fill="#F2B601"/>
<path d="M7.10938 37.2656C7.10938 38.7758 8.33359 40 9.84375 40H30.1562C31.6664 40 32.8906 38.7758 32.8906 37.2656V36.0938H7.10938V37.2656Z" fill="#F2B601"/>
<path d="M29.7098 28.9173C29.1185 29.5086 28.3358 29.8342 27.5058 29.8342C27.5056 29.8342 27.5056 29.8342 27.5055 29.8342C26.1184 29.8341 24.9391 28.9284 24.5295 27.678C22.8672 27.2293 21.6406 25.7084 21.6406 23.9062V18.4375C21.6406 16.2802 23.3895 14.5312 25.5469 14.5312H32.8906V2.73438C32.8906 1.22422 31.6664 0 30.1562 0H24.9189L23.8713 4.19047C23.7409 4.71211 23.2721 5.07812 22.7344 5.07812H17.2656C16.7279 5.07812 16.2591 4.71211 16.1287 4.19047L15.0811 0H9.84375C8.33359 0 7.10938 1.22422 7.10938 2.73438V9.0625H14.4531C16.6105 9.0625 18.3594 10.8114 18.3594 12.9688V18.4375C18.3594 20.2396 17.1329 21.7605 15.4706 22.2093C15.0609 23.4598 13.8815 24.3655 12.4943 24.3655C11.6642 24.3655 10.8814 24.0398 10.2902 23.4486L9.18547 22.3438H7.10938V33.75H32.8906V27.8125H30.8145L29.7098 28.9173Z" fill="#F2B601"/>
<path d="M21.8195 2.73438L22.5031 0H17.4971L18.1806 2.73438H21.8195Z" fill="#F2B601"/>
</svg>
