<svg width="40" height="40" viewBox="0 0 40 40" fill="none" xmlns="http://www.w3.org/2000/svg">
<g clip-path="url(#clip0_28_1688)">
<path d="M33.9458 9.48796H29.3746C28.7273 9.48796 28.2025 8.96319 28.2025 8.31585C28.2025 7.6685 28.7273 7.14374 29.3746 7.14374H33.9458C34.5932 7.14374 35.1179 7.6685 35.1179 8.31585C35.1179 8.96319 34.5932 9.48796 33.9458 9.48796Z" fill="#F2B601"/>
<path d="M38.7515 14.1372H29.3747C28.7273 14.1372 28.2026 13.6125 28.2026 12.9651C28.2026 12.3178 28.7273 11.793 29.3747 11.793H38.7515C39.3988 11.793 39.9236 12.3178 39.9236 12.9651C39.9236 13.6125 39.3988 14.1372 38.7515 14.1372Z" fill="#F2B601"/>
<path d="M29.3746 16.4814H34.0631C34.7104 16.4814 35.2352 17.0062 35.2352 17.6536C35.2352 18.3009 34.7104 18.8257 34.0631 18.8257H29.3746C28.7273 18.8257 28.2025 18.3009 28.2025 17.6536C28.2025 17.0062 28.7273 16.4814 29.3746 16.4814Z" fill="#F2B601"/>
<path d="M12.9529 18.7119C12.2144 17.7488 11.8955 15.4609 11.8157 14.1373H14.0901C14.0096 15.4726 13.685 17.7571 12.9529 18.7119Z" fill="#F2B601"/>
<path d="M12.9527 7.14026C13.7045 8.12065 14.0192 10.4596 14.0941 11.793H11.8112C11.886 10.4643 12.2004 8.12135 12.9527 7.14026Z" fill="#F2B601"/>
<path d="M18.6969 14.1373C18.3448 15.8281 17.2785 17.2548 15.7933 18.0834C16.1481 16.9345 16.3644 15.5609 16.4424 14.1373H18.6969Z" fill="#F2B601"/>
<path d="M18.7139 11.793H16.4468C16.3725 10.3415 16.1545 8.9388 15.7932 7.7688C17.2857 8.60153 18.3758 10.0522 18.7139 11.793Z" fill="#F2B601"/>
<path d="M10.1246 18.1204C8.65036 17.3227 7.52231 15.8982 7.15559 14.1373H9.46371C9.54254 15.5764 9.76285 16.964 10.1246 18.1204Z" fill="#F2B601"/>
<path d="M10.1246 7.73175C9.75629 8.9091 9.53426 10.3261 9.45918 11.793H7.13848C7.48786 9.99417 8.6327 8.53902 10.1246 7.73175Z" fill="#F2B601"/>
<path d="M25.9269 20.9541L29.0592 24.0864L24.0864 29.0592L20.9541 25.9269C22.9019 24.7208 24.6388 23.0343 25.9269 20.9541Z" fill="#F2B601"/>
<path d="M38.9717 33.9989C40.3428 35.37 40.3428 37.6007 38.9717 38.9718C37.6008 40.3426 35.37 40.3427 33.999 38.9718L25.744 30.7168L30.7168 25.744L38.9717 33.9989Z" fill="#F2B601"/>
<path d="M3.78181 3.7817C8.82415 -1.26057 17.0284 -1.26057 22.0707 3.7817C27.113 8.82397 27.113 17.0283 22.0707 22.0705C17.0285 27.1127 8.82431 27.1129 3.78181 22.0705C-1.26046 17.0283 -1.26046 8.82389 3.78181 3.7817ZM7.09696 18.7553C10.3138 21.9721 15.5334 21.9775 18.7556 18.7553C21.9698 15.5411 21.9698 10.3112 18.7556 7.09693C15.5388 3.88014 10.3192 3.87475 7.09696 7.09693C3.88275 10.3112 3.88275 15.5411 7.09696 18.7553Z" fill="#F2B601"/>
</g>
<defs>
<clipPath id="clip0_28_1688">
<rect width="40" height="40" fill="white" transform="matrix(-1 0 0 1 40 0)"/>
</clipPath>
</defs>
</svg>
