<svg width="52" height="54" viewBox="0 0 52 54" fill="none" xmlns="http://www.w3.org/2000/svg">
<path d="M30.8533 53.6668H21.1466C20.5385 53.6669 19.9485 53.4591 19.4746 53.0779C19.0008 52.6967 18.6715 52.1649 18.5413 51.5708L17.456 46.5468C16.0081 45.9124 14.6353 45.1191 13.3626 44.1815L8.46398 45.7415C7.88414 45.9264 7.25851 45.9074 6.69096 45.6877C6.12342 45.4679 5.64811 45.0607 5.34398 44.5335L0.479977 36.1308C0.179031 35.6032 0.0660631 34.989 0.159556 34.3888C0.253049 33.7886 0.547467 33.2379 0.994643 32.8268L4.79464 29.3602C4.62183 27.7898 4.62183 26.2052 4.79464 24.6348L0.994643 21.1762C0.546834 20.7649 0.252015 20.2137 0.158507 19.6129C0.0649988 19.0121 0.178348 18.3974 0.479977 17.8695L5.33331 9.4615C5.63745 8.93434 6.11275 8.52707 6.6803 8.30733C7.24784 8.08759 7.87348 8.06859 8.45331 8.2535L13.352 9.81349C14.0026 9.3335 14.68 8.8855 15.3786 8.48016C16.0533 8.1015 16.7466 7.7575 17.456 7.45083L18.544 2.43216C18.6735 1.83802 19.0022 1.306 19.4756 0.924293C19.9489 0.542589 20.5386 0.334136 21.1466 0.333496H30.8533C31.4614 0.334136 32.051 0.542589 32.5244 0.924293C32.9978 1.306 33.3265 1.83802 33.456 2.43216L34.5546 7.4535C36.0017 8.08789 37.3736 8.88121 38.6453 9.81883L43.5466 8.25883C44.1261 8.0746 44.7511 8.09395 45.3181 8.31366C45.8851 8.53337 46.36 8.94024 46.664 9.46683L51.5173 17.8748C52.136 18.9602 51.9226 20.3335 51.0026 21.1788L47.2026 24.6455C47.3755 26.2159 47.3755 27.8005 47.2026 29.3708L51.0026 32.8375C51.9226 33.6855 52.136 35.0562 51.5173 36.1415L46.664 44.5495C46.3598 45.0766 45.8845 45.4839 45.317 45.7037C44.7494 45.9234 44.1238 45.9424 43.544 45.7575L38.6453 44.1975C37.3737 45.1344 36.0017 45.9269 34.5546 46.5602L33.456 51.5708C33.3259 52.1645 32.997 52.6959 32.5237 53.0771C32.0504 53.4582 31.461 53.6663 30.8533 53.6668ZM14.32 38.2775L16.5066 39.8775C17 40.2402 17.512 40.5735 18.0453 40.8775C18.5466 41.1682 19.0586 41.4295 19.5893 41.6668L22.0773 42.7575L23.296 48.3335H28.7093L29.928 42.7548L32.416 41.6642C33.5013 41.1842 34.5333 40.5895 35.4906 39.8882L37.6773 38.2882L43.1226 40.0215L45.8293 35.3335L41.608 31.4855L41.9066 28.7868C42.04 27.6055 42.04 26.4135 41.9066 25.2348L41.608 22.5362L45.832 18.6802L43.1226 13.9895L37.68 15.7228L35.4906 14.1228C34.5328 13.418 33.502 12.8181 32.416 12.3335L29.928 11.2428L28.7093 5.66683H23.296L22.0693 11.2455L19.5893 12.3335C18.5018 12.8098 17.4706 13.4054 16.5146 14.1095L14.3253 15.7095L8.88531 13.9762L6.17331 18.6802L10.3946 22.5228L10.096 25.2242C9.96264 26.4055 9.96264 27.5975 10.096 28.7762L10.3946 31.4748L6.17331 35.3228L8.87998 40.0108L14.32 38.2775ZM25.9893 37.6668C23.1603 37.6668 20.4472 36.543 18.4468 34.5426C16.4464 32.5422 15.3226 29.8291 15.3226 27.0002C15.3226 24.1712 16.4464 21.4581 18.4468 19.4577C20.4472 17.4573 23.1603 16.3335 25.9893 16.3335C28.8183 16.3335 31.5314 17.4573 33.5318 19.4577C35.5322 21.4581 36.656 24.1712 36.656 27.0002C36.656 29.8291 35.5322 32.5422 33.5318 34.5426C31.5314 36.543 28.8183 37.6668 25.9893 37.6668ZM25.9893 21.6668C24.9449 21.6679 23.9238 21.9756 23.0527 22.5517C22.1816 23.1278 21.4988 23.947 21.089 24.9076C20.6793 25.8682 20.5606 26.928 20.7476 27.9555C20.9347 28.983 21.4194 29.933 22.1414 30.6875C22.8635 31.4421 23.7912 31.968 24.8095 32.2001C25.8277 32.4322 26.8917 32.3602 27.8695 31.9931C28.8472 31.626 29.6956 30.9799 30.3095 30.135C30.9234 29.2901 31.2756 28.2835 31.3226 27.2402V28.3068V27.0002C31.3226 25.5857 30.7607 24.2291 29.7605 23.2289C28.7604 22.2287 27.4038 21.6668 25.9893 21.6668Z" fill="#F2B601"/>
</svg>
