<svg width="17" height="580" viewBox="0 0 17 580" fill="none" xmlns="http://www.w3.org/2000/svg">
<g clip-path="url(#clip0_3338_15572)">
<path d="M9.71875 23.75V24.25H10.2188H13.5C14.4654 24.25 15.25 23.4654 15.25 22.5C15.25 22.431 15.306 22.375 15.375 22.375C15.444 22.375 15.5 22.431 15.5 22.5C15.5 23.6024 14.6024 24.5 13.5 24.5H2.5C1.39764 24.5 0.5 23.6024 0.5 22.5V11.5C0.5 10.3976 1.39764 9.5 2.5 9.5H13.5C14.6024 9.5 15.5 10.3976 15.5 11.5V19.375C15.5 19.444 15.444 19.5 15.375 19.5C15.306 19.5 15.25 19.444 15.25 19.375V11.5C15.25 10.5346 14.4654 9.75 13.5 9.75H2.5C1.53461 9.75 0.75 10.5346 0.75 11.5V22.5C0.75 23.4654 1.53461 24.25 2.5 24.25H8.96875H9.46875V23.75V18.3125V17.8125H8.96875H7.5625C7.49345 17.8125 7.4375 17.7565 7.4375 17.6875C7.4375 17.6185 7.49345 17.5625 7.5625 17.5625H8.96875H9.46875V17.0625V15.3438C9.46875 14.2414 10.3664 13.3438 11.4688 13.3438H11.7812C11.8503 13.3438 11.9062 13.3997 11.9062 13.4688C11.9062 13.5378 11.8503 13.5938 11.7812 13.5938H11.4688C10.5034 13.5938 9.71875 14.3784 9.71875 15.3438V17.0625V17.5625H10.2188H11.625C11.694 17.5625 11.75 17.6185 11.75 17.6875C11.75 17.7565 11.694 17.8125 11.625 17.8125H10.2188H9.71875V18.3125V23.75Z" fill="#676767" stroke="#676767"/>
</g>
<g clip-path="url(#clip1_3338_15572)">
<path fill-rule="evenodd" clip-rule="evenodd" d="M4.22093 78C2.44206 78 1 79.4421 1 81.221V88.6628C1 90.4417 2.44206 91.8838 4.22093 91.8838H11.6628C13.4417 91.8838 14.8837 90.4417 14.8837 88.6628V81.221C14.8837 79.4421 13.4417 78 11.6628 78H4.22093ZM0 81.221C0 78.8898 1.88977 77 4.22093 77H11.6628C13.9939 77 15.8837 78.8898 15.8837 81.221V88.6628C15.8837 90.994 13.9939 92.8838 11.6628 92.8838H4.22093C1.88977 92.8838 0 90.994 0 88.6628V81.221ZM8.33735 82.4596C7.82204 82.3832 7.29575 82.4713 6.83334 82.7112C6.37093 82.9511 5.99596 83.3307 5.76174 83.7961C5.52753 84.2614 5.446 84.7887 5.52877 85.3031C5.61153 85.8174 5.85437 86.2926 6.22273 86.6609C6.5911 87.0293 7.06624 87.2721 7.58058 87.3549C8.09491 87.4377 8.62224 87.3561 9.08758 87.1219C9.55291 86.8877 9.93254 86.5127 10.1725 86.0503C10.4124 85.5879 10.5004 85.0616 10.424 84.5463C10.3461 84.0207 10.1011 83.534 9.72538 83.1583C9.34963 82.7825 8.863 82.5376 8.33735 82.4596ZM6.37277 81.8236C7.02188 81.4868 7.76066 81.3632 8.48404 81.4705C9.22191 81.5799 9.90503 81.9237 10.4325 82.4512C10.9599 82.9786 11.3038 83.6617 11.4132 84.3996C11.5205 85.123 11.3969 85.8618 11.0601 86.5109C10.7233 87.16 10.1904 87.6864 9.53717 88.0151C8.88396 88.3439 8.14371 88.4584 7.42171 88.3422C6.69971 88.226 6.03272 87.8851 5.51563 87.368C4.99853 86.8509 4.65765 86.1839 4.54147 85.4619C4.42529 84.7399 4.53973 83.9997 4.86851 83.3465C5.19729 82.6933 5.72366 82.1604 6.37277 81.8236ZM12.0349 80.3489C11.7587 80.3489 11.5349 80.5727 11.5349 80.8489C11.5349 81.125 11.7587 81.3489 12.0349 81.3489H12.0415C12.3177 81.3489 12.5415 81.125 12.5415 80.8489C12.5415 80.5727 12.3177 80.3489 12.0415 80.3489H12.0349Z" fill="#676767"/>
</g>
<g clip-path="url(#clip2_3338_15572)">
<mask id="path-3-inside-1_3338_15572" fill="white">
<path d="M13.6504 147.85C12.1353 146.334 10.1285 145.5 8 145.5C3.59473 145.5 0 149.095 0 153.5C0 154.803 0.320068 156.09 0.927368 157.234L0.0137939 160.918C-0.0257568 161.078 0.0211181 161.246 0.137329 161.363C0.252808 161.478 0.421143 161.526 0.581543 161.486L4.26587 160.573C5.40979 161.18 6.69653 161.5 8 161.5C10.1285 161.5 12.1353 160.666 13.6504 159.15C15.1655 157.635 16 155.629 16 153.5C16 151.371 15.1655 149.365 13.6504 147.85ZM8 160.562C6.79395 160.562 5.60449 160.252 4.55994 159.665C4.45593 159.607 4.3335 159.59 4.21741 159.619L1.11096 160.389L1.88123 157.282C1.91003 157.167 1.89343 157.044 1.83496 156.94C1.2478 155.896 0.9375 154.706 0.9375 153.5C0.9375 149.606 4.10571 146.438 8 146.438C11.8943 146.438 15.0625 149.606 15.0625 153.5C15.0625 157.394 11.8943 160.562 8 160.562Z"/>
</mask>
<path d="M13.6504 147.85C12.1353 146.334 10.1285 145.5 8 145.5C3.59473 145.5 0 149.095 0 153.5C0 154.803 0.320068 156.09 0.927368 157.234L0.0137939 160.918C-0.0257568 161.078 0.0211181 161.246 0.137329 161.363C0.252808 161.478 0.421143 161.526 0.581543 161.486L4.26587 160.573C5.40979 161.18 6.69653 161.5 8 161.5C10.1285 161.5 12.1353 160.666 13.6504 159.15C15.1655 157.635 16 155.629 16 153.5C16 151.371 15.1655 149.365 13.6504 147.85ZM8 160.562C6.79395 160.562 5.60449 160.252 4.55994 159.665C4.45593 159.607 4.3335 159.59 4.21741 159.619L1.11096 160.389L1.88123 157.282C1.91003 157.167 1.89343 157.044 1.83496 156.94C1.2478 155.896 0.9375 154.706 0.9375 153.5C0.9375 149.606 4.10571 146.438 8 146.438C11.8943 146.438 15.0625 149.606 15.0625 153.5C15.0625 157.394 11.8943 160.562 8 160.562Z" fill="#676767"/>
<path d="M0.927368 157.234L1.89797 157.475L1.99009 157.103L1.81061 156.765L0.927368 157.234ZM0.0137939 160.918L0.984372 161.159L0.9844 161.159L0.0137939 160.918ZM0.137329 161.363L0.844809 160.656L0.844436 160.656L0.137329 161.363ZM0.581543 161.486L0.340839 160.516L0.340746 160.516L0.581543 161.486ZM4.26587 160.573L4.73478 159.689L4.39669 159.51L4.02517 159.602L4.26587 160.573ZM13.6504 159.15L14.3575 159.857L14.3575 159.857L13.6504 159.15ZM4.55994 159.665L4.06987 160.537L4.07001 160.537L4.55994 159.665ZM4.21741 159.619L3.97751 158.648L3.9767 158.648L4.21741 159.619ZM1.11096 160.389L0.140352 160.148L-0.259016 161.759L1.35167 161.36L1.11096 160.389ZM1.88123 157.282L0.910783 157.041L0.910616 157.042L1.88123 157.282ZM1.83496 156.94L2.70689 156.45L2.70666 156.45L1.83496 156.94ZM14.3575 147.143C12.6562 145.441 10.3957 144.5 8 144.5V146.5C9.86133 146.5 11.6143 147.228 12.9433 148.557L14.3575 147.143ZM8 144.5C3.0424 144.5 -1 148.543 -1 153.5H1C1 149.647 4.14705 146.5 8 146.5V144.5ZM-1 153.5C-1 154.966 -0.640171 156.414 0.044122 157.703L1.81061 156.765C1.28031 155.766 1 154.641 1 153.5H-1ZM-0.0432378 156.993L-0.956812 160.678L0.9844 161.159L1.89797 157.475L-0.0432378 156.993ZM-0.956784 160.678C-1.08081 161.178 -0.933781 161.706 -0.569778 162.07L0.844436 160.656C0.976017 160.787 1.02929 160.978 0.984372 161.159L-0.956784 160.678ZM-0.570151 162.069C-0.208109 162.432 0.319576 162.582 0.82234 162.457L0.340746 160.516C0.522709 160.47 0.713725 160.525 0.844809 160.656L-0.570151 162.069ZM0.822247 162.457L4.50657 161.543L4.02517 159.602L0.340839 160.516L0.822247 162.457ZM3.79696 161.456C5.08585 162.14 6.53367 162.5 8 162.5V160.5C6.85939 160.5 5.73373 160.22 4.73478 159.689L3.79696 161.456ZM8 162.5C10.3957 162.5 12.6562 161.559 14.3575 159.857L12.9433 158.443C11.6143 159.772 9.86133 160.5 8 160.5V162.5ZM14.3575 159.857C16.0587 158.156 17 155.896 17 153.5H15C15 155.361 14.2723 157.114 12.9433 158.443L14.3575 159.857ZM17 153.5C17 151.104 16.0588 148.844 14.3575 147.143L12.9433 148.557C14.2723 149.886 15 151.639 15 153.5H17ZM8 159.562C6.96447 159.562 5.94388 159.296 5.04986 158.793L4.07001 160.537C5.26511 161.208 6.62342 161.562 8 161.562V159.562ZM5.05 158.793C4.72377 158.61 4.34024 158.558 3.97751 158.648L4.4573 160.589C4.32675 160.622 4.18809 160.603 4.06987 160.537L5.05 158.793ZM3.9767 158.648L0.870257 159.418L1.35167 161.36L4.45811 160.589L3.9767 158.648ZM2.08157 160.63L2.85184 157.523L0.910616 157.042L0.140352 160.148L2.08157 160.63ZM2.85167 157.524C2.94211 157.16 2.88986 156.776 2.70689 156.45L0.963031 157.43C0.897002 157.312 0.877955 157.173 0.910783 157.041L2.85167 157.524ZM2.70666 156.45C2.2042 155.556 1.9375 154.536 1.9375 153.5H-0.0624999C-0.0624999 154.877 0.291401 156.235 0.963266 157.43L2.70666 156.45ZM1.9375 153.5C1.9375 150.158 4.658 147.438 8 147.438V145.438C3.55343 145.438 -0.0624999 149.053 -0.0624999 153.5H1.9375ZM8 147.438C11.342 147.438 14.0625 150.158 14.0625 153.5H16.0625C16.0625 149.053 12.4466 145.438 8 145.438V147.438ZM14.0625 153.5C14.0625 156.842 11.342 159.562 8 159.562V161.562C12.4466 161.562 16.0625 157.947 16.0625 153.5H14.0625Z" fill="#676767" mask="url(#path-3-inside-1_3338_15572)"/>
<mask id="path-5-inside-2_3338_15572" fill="white">
<path d="M12.2302 154.923C11.9196 154.613 11.5775 154.299 11.1824 154.108C10.5919 153.824 10.0286 153.905 9.59597 154.338C9.39907 154.535 9.12819 154.923 8.97231 155.114C8.57021 155.047 7.76687 154.369 7.4479 154.051C7.13015 153.732 6.45327 152.929 6.38601 152.528C6.57583 152.373 6.96535 152.101 7.16213 151.904C7.59475 151.471 7.67629 150.908 7.39174 150.318C7.20119 149.922 6.88747 149.58 6.57692 149.27C5.94436 148.624 4.96865 148.576 4.12649 149.419C3.49709 150.048 2.93642 151.215 3.83877 153.199C4.3727 154.373 5.23317 155.411 5.65737 155.839L5.66067 155.843C6.08913 156.267 7.12734 157.127 8.30117 157.661C9.62685 158.264 11.0478 158.407 12.0814 157.374C12.9363 156.519 12.8643 155.544 12.2302 154.923ZM11.4185 156.711C10.808 157.321 9.88979 157.354 8.68923 156.808C7.63527 156.329 6.68093 155.533 6.32192 155.178C5.96682 154.819 5.17153 153.865 4.69216 152.811C4.14614 151.61 4.17885 150.692 4.78933 150.082C5.14565 149.725 5.55581 149.567 5.90712 149.926L5.91384 149.933C6.74599 150.765 6.68691 151.053 6.49917 151.241C6.33254 151.408 5.83999 151.742 5.68081 151.901C5.30715 152.275 5.37673 152.854 5.88747 153.621C6.19228 154.079 6.59487 154.524 6.78481 154.714L6.78579 154.715C6.97634 154.905 7.4208 155.308 7.87893 155.613C8.6465 156.123 9.225 156.193 9.59853 155.819C9.75783 155.66 10.0922 155.168 10.2588 155.001C10.3858 154.874 10.5109 154.825 10.7752 154.953C11.0816 155.101 11.4096 155.429 11.5673 155.586L11.5741 155.593C11.9357 155.947 11.7749 156.354 11.4185 156.711Z"/>
</mask>
<path d="M12.2302 154.923C11.9196 154.613 11.5775 154.299 11.1824 154.108C10.5919 153.824 10.0286 153.905 9.59597 154.338C9.39907 154.535 9.12819 154.923 8.97231 155.114C8.57021 155.047 7.76687 154.369 7.4479 154.051C7.13015 153.732 6.45327 152.929 6.38601 152.528C6.57583 152.373 6.96535 152.101 7.16213 151.904C7.59475 151.471 7.67629 150.908 7.39174 150.318C7.20119 149.922 6.88747 149.58 6.57692 149.27C5.94436 148.624 4.96865 148.576 4.12649 149.419C3.49709 150.048 2.93642 151.215 3.83877 153.199C4.3727 154.373 5.23317 155.411 5.65737 155.839L5.66067 155.843C6.08913 156.267 7.12734 157.127 8.30117 157.661C9.62685 158.264 11.0478 158.407 12.0814 157.374C12.9363 156.519 12.8643 155.544 12.2302 154.923ZM11.4185 156.711C10.808 157.321 9.88979 157.354 8.68923 156.808C7.63527 156.329 6.68093 155.533 6.32192 155.178C5.96682 154.819 5.17153 153.865 4.69216 152.811C4.14614 151.61 4.17885 150.692 4.78933 150.082C5.14565 149.725 5.55581 149.567 5.90712 149.926L5.91384 149.933C6.74599 150.765 6.68691 151.053 6.49917 151.241C6.33254 151.408 5.83999 151.742 5.68081 151.901C5.30715 152.275 5.37673 152.854 5.88747 153.621C6.19228 154.079 6.59487 154.524 6.78481 154.714L6.78579 154.715C6.97634 154.905 7.4208 155.308 7.87893 155.613C8.6465 156.123 9.225 156.193 9.59853 155.819C9.75783 155.66 10.0922 155.168 10.2588 155.001C10.3858 154.874 10.5109 154.825 10.7752 154.953C11.0816 155.101 11.4096 155.429 11.5673 155.586L11.5741 155.593C11.9357 155.947 11.7749 156.354 11.4185 156.711Z" fill="#676767"/>
<path d="M11.1824 154.108L11.6168 153.208L11.6165 153.207L11.1824 154.108ZM8.97231 155.114L8.80733 156.1L9.37981 156.196L9.74691 155.746L8.97231 155.114ZM7.4479 154.051L6.73943 154.757L6.74201 154.76L7.4479 154.051ZM6.38601 152.528L5.75345 151.753L5.30378 152.12L5.39977 152.693L6.38601 152.528ZM7.16213 151.904L7.86902 152.611L7.86924 152.611L7.16213 151.904ZM7.39174 150.318L8.29256 149.883L8.29253 149.883L7.39174 150.318ZM6.57692 149.27L5.86246 149.97L5.86982 149.977L6.57692 149.27ZM4.12649 149.419L4.83352 150.126L4.83364 150.126L4.12649 149.419ZM3.83877 153.199L2.92847 153.613L2.92851 153.613L3.83877 153.199ZM5.65737 155.839L4.94672 156.543L4.95026 156.547L5.65737 155.839ZM5.66067 155.843L4.95355 156.55L4.95701 156.553L5.66067 155.843ZM8.30117 157.661L8.71515 156.751L8.71514 156.751L8.30117 157.661ZM12.0814 157.374L12.7885 158.081L12.7886 158.081L12.0814 157.374ZM8.68923 156.808L8.27521 157.718L8.27523 157.718L8.68923 156.808ZM6.32192 155.178L5.61079 155.881L5.61869 155.889L6.32192 155.178ZM4.69216 152.811L3.78188 153.225L3.78189 153.225L4.69216 152.811ZM5.90712 149.926L5.19264 150.626L5.19368 150.627L5.90712 149.926ZM5.91384 149.933L5.20036 150.634L5.20673 150.64L5.91384 149.933ZM5.68081 151.901L6.3878 152.609L6.38791 152.609L5.68081 151.901ZM5.88747 153.621L6.72003 153.067L6.71997 153.067L5.88747 153.621ZM6.78481 154.714L7.53222 154.05L7.51312 154.028L7.49282 154.008L6.78481 154.714ZM6.78579 154.715L6.03838 155.38L6.05843 155.402L6.07982 155.424L6.78579 154.715ZM7.87893 155.613L8.43289 154.78L8.43286 154.78L7.87893 155.613ZM10.7752 154.953L10.3408 155.854L10.3409 155.854L10.7752 154.953ZM11.5673 155.586L10.8604 156.294L10.8666 156.3L11.5673 155.586ZM11.5741 155.593L10.8734 156.306L10.8744 156.307L11.5741 155.593ZM12.9375 154.216C12.6209 153.9 12.1768 153.478 11.6168 153.208L10.748 155.009C10.9783 155.12 11.2182 155.325 11.523 155.63L12.9375 154.216ZM11.6165 153.207C11.1747 152.995 10.6856 152.892 10.1867 152.965C9.68301 153.037 9.24161 153.278 8.88886 153.631L10.3031 155.045C10.3829 154.965 10.4395 154.949 10.4732 154.944C10.5118 154.938 10.5997 154.938 10.7483 155.009L11.6165 153.207ZM8.88886 153.631C8.73851 153.781 8.58548 153.976 8.47581 154.119C8.34247 154.292 8.26401 154.4 8.19771 154.481L9.74691 155.746C9.83649 155.637 9.97142 155.455 10.0617 155.337C10.1757 155.189 10.2565 155.092 10.3031 155.045L8.88886 153.631ZM9.13729 154.128C9.21478 154.141 9.21345 154.157 9.1042 154.095C9.01556 154.045 8.90352 153.97 8.77762 153.876C8.52431 153.686 8.27958 153.468 8.15378 153.343L6.74201 154.76C6.93518 154.952 7.25161 155.232 7.58024 155.478C7.74531 155.601 7.92943 155.728 8.11448 155.833C8.27892 155.927 8.52879 156.054 8.80733 156.1L9.13729 154.128ZM8.15636 153.346C8.03113 153.22 7.81338 152.975 7.62411 152.722C7.53004 152.596 7.45503 152.484 7.40455 152.395C7.34229 152.286 7.35923 152.285 7.37225 152.362L5.39977 152.693C5.44641 152.971 5.57318 153.221 5.66668 153.385C5.77197 153.57 5.89866 153.754 6.02193 153.919C6.26735 154.247 6.54691 154.564 6.73944 154.757L8.15636 153.346ZM7.01857 153.302C7.09912 153.236 7.20703 153.158 7.38073 153.025C7.52353 152.915 7.71879 152.762 7.86902 152.611L6.45524 151.197C6.4087 151.243 6.3108 151.324 6.16219 151.439C6.04448 151.529 5.86271 151.664 5.75345 151.753L7.01857 153.302ZM7.86924 152.611C8.22201 152.258 8.46266 151.817 8.53556 151.313C8.60776 150.814 8.50553 150.325 8.29256 149.883L6.49093 150.752C6.5625 150.9 6.56178 150.988 6.55619 151.027C6.5513 151.061 6.53486 151.117 6.45502 151.197L7.86924 152.611ZM8.29253 149.883C8.02245 149.323 7.60029 148.879 7.28403 148.563L5.86982 149.977C6.17465 150.282 6.37994 150.522 6.49096 150.752L8.29253 149.883ZM7.29135 148.57C6.7986 148.067 6.13379 147.765 5.40078 147.787C4.67085 147.808 3.9847 148.146 3.41933 148.712L4.83364 150.126C5.11044 149.849 5.33322 149.79 5.45983 149.786C5.58335 149.782 5.72268 149.827 5.8625 149.97L7.29135 148.57ZM3.41945 148.712C2.98829 149.143 2.57014 149.771 2.42261 150.632C2.27553 151.489 2.41384 152.481 2.92847 153.613L4.74906 152.785C4.36135 151.932 4.32882 151.349 4.39383 150.97C4.45841 150.593 4.63528 150.324 4.83352 150.126L3.41945 148.712ZM2.92851 153.613C3.52478 154.924 4.46578 156.057 4.94673 156.543L6.36801 155.136C6.00057 154.765 5.22062 153.822 4.74902 152.785L2.92851 153.613ZM4.95026 156.547L4.95356 156.55L6.36777 155.136L6.36448 155.132L4.95026 156.547ZM4.95701 156.553C5.44288 157.034 6.57628 157.975 7.8872 158.572L8.71514 156.751C7.6784 156.28 6.73538 155.5 6.36432 155.132L4.95701 156.553ZM7.88718 158.572C9.34513 159.235 11.3059 159.563 12.7885 158.081L11.3744 156.667C10.7896 157.251 9.90857 157.294 8.71515 156.751L7.88718 158.572ZM12.7886 158.081C13.3623 157.507 13.6975 156.815 13.7139 156.083C13.7303 155.351 13.4241 154.693 12.9299 154.209L11.5306 155.638C11.6704 155.775 11.7172 155.914 11.7144 156.038C11.7116 156.163 11.6555 156.385 11.3743 156.667L12.7886 158.081ZM10.7114 156.004C10.5429 156.172 10.1577 156.377 9.10323 155.898L8.27523 157.718C9.6219 158.331 11.0731 158.47 12.1256 157.418L10.7114 156.004ZM9.10325 155.898C8.1877 155.481 7.32848 154.767 7.02515 154.467L5.61869 155.889C6.03337 156.299 7.08285 157.176 8.27521 157.718L9.10325 155.898ZM7.033 154.475C6.73281 154.171 6.01882 153.312 5.60243 152.397L3.78189 153.225C4.32424 154.417 5.20083 155.467 5.61084 155.881L7.033 154.475ZM5.60244 152.397C5.12286 151.342 5.32798 150.957 5.49643 150.789L4.08222 149.374C3.02973 150.427 3.16941 151.878 3.78188 153.225L5.60244 152.397ZM5.49643 150.789C5.54578 150.739 5.58085 150.713 5.5984 150.702C5.61661 150.691 5.60043 150.705 5.55123 150.715C5.49524 150.727 5.41453 150.729 5.32804 150.701C5.24376 150.674 5.20001 150.633 5.19264 150.626L6.62161 149.226C6.22392 148.82 5.6944 148.644 5.14898 148.756C4.68334 148.852 4.32335 149.133 4.08222 149.374L5.49643 150.789ZM5.19368 150.627L5.20039 150.633L6.62729 149.232L6.62057 149.225L5.19368 150.627ZM5.20673 150.64C5.39282 150.826 5.50873 150.962 5.57832 151.056C5.65092 151.154 5.65131 151.178 5.63921 151.142C5.62258 151.091 5.59584 150.963 5.64223 150.8C5.68616 150.646 5.76892 150.557 5.79206 150.534L7.20627 151.948C7.32329 151.831 7.48383 151.636 7.56564 151.349C7.6499 151.053 7.62113 150.766 7.53872 150.516C7.3943 150.077 7.05169 149.656 6.62095 149.226L5.20673 150.64ZM5.79206 150.534C5.79361 150.532 5.76998 150.555 5.70135 150.609C5.63952 150.658 5.56649 150.714 5.48271 150.777C5.40325 150.838 5.31256 150.906 5.23165 150.971C5.15826 151.029 5.05785 151.11 4.9737 151.194L6.38791 152.609C6.38336 152.613 6.40421 152.593 6.47314 152.539C6.53457 152.49 6.60727 152.435 6.69168 152.371C6.77176 152.31 6.86306 152.241 6.94542 152.175C7.02099 152.115 7.12141 152.033 7.20627 151.948L5.79206 150.534ZM4.97382 151.194C4.54635 151.622 4.39263 152.175 4.45964 152.733C4.52068 153.241 4.75851 153.73 5.05497 154.175L6.71997 153.067C6.50569 152.745 6.45336 152.561 6.44534 152.494C6.44249 152.47 6.44831 152.486 6.43598 152.525C6.42269 152.566 6.4005 152.596 6.3878 152.609L4.97382 151.194ZM5.05491 154.175C5.40717 154.704 5.85702 155.2 6.0768 155.42L7.49282 154.008C7.33272 153.847 6.9774 153.454 6.72003 153.067L5.05491 154.175ZM6.0374 155.379L6.03838 155.38L7.5332 154.051L7.53222 154.05L6.0374 155.379ZM6.07982 155.424C6.29999 155.643 6.79546 156.093 7.32499 156.445L8.43286 154.78C8.04613 154.523 7.65268 154.167 7.49176 154.007L6.07982 155.424ZM7.32496 156.445C7.77049 156.742 8.25935 156.979 8.7672 157.04C9.32462 157.107 9.87837 156.954 10.3056 156.526L8.89142 155.112C8.9041 155.099 8.93372 155.077 8.97517 155.064C9.01364 155.052 9.02956 155.058 9.00579 155.055C8.93911 155.047 8.75494 154.994 8.43289 154.78L7.32496 156.445ZM10.3056 156.526C10.3898 156.442 10.4713 156.342 10.5295 156.268C10.5936 156.187 10.6623 156.097 10.7225 156.017C10.7861 155.934 10.8416 155.861 10.8907 155.799C10.9453 155.73 10.9675 155.706 10.9659 155.708L9.5517 154.294C9.46684 154.379 9.38477 154.479 9.32475 154.555C9.25933 154.637 9.19006 154.728 9.1293 154.808C9.06526 154.893 9.0101 154.965 8.96147 155.027C8.9069 155.096 8.88691 155.117 8.89142 155.112L10.3056 156.526ZM10.9659 155.708C10.9634 155.711 10.8397 155.836 10.6142 155.87C10.4097 155.901 10.2914 155.83 10.3408 155.854L11.2095 154.052C10.9946 153.949 10.6816 153.838 10.3168 153.893C9.93089 153.951 9.68115 154.164 9.5517 154.294L10.9659 155.708ZM10.3409 155.854C10.3779 155.872 10.4591 155.925 10.5757 156.025C10.6837 156.117 10.7809 156.214 10.8604 156.294L12.2741 154.879C12.149 154.754 11.6985 154.288 11.2094 154.052L10.3409 155.854ZM10.8666 156.3L10.8734 156.306L12.2748 154.879L12.268 154.873L10.8666 156.3ZM10.8744 156.307C10.8686 156.302 10.8281 156.259 10.8008 156.174C10.7727 156.087 10.7745 156.005 10.7864 155.948C10.7968 155.898 10.8115 155.881 10.7997 155.9C10.7883 155.918 10.7618 155.953 10.7114 156.004L12.1256 157.418C12.3642 157.179 12.648 156.82 12.7447 156.354C12.8585 155.806 12.6795 155.276 12.2738 154.879L10.8744 156.307Z" fill="#676767" mask="url(#path-5-inside-2_3338_15572)"/>
</g>
<g clip-path="url(#clip3_3338_15572)">
<mask id="path-7-inside-3_3338_15572" fill="white">
<path d="M15.753 215.339C15.5575 215.1 15.2648 214.969 14.9286 214.969C14.7459 214.969 14.5523 215.007 14.3533 215.083L0.809595 220.253C0.0908454 220.528 -0.00595633 220.939 0.000269252 221.16C0.00649483 221.381 0.12649 221.787 0.859644 222.02C0.864039 222.021 0.868433 222.023 0.872828 222.024L3.68215 222.828L5.20144 227.172C5.40859 227.765 5.87356 228.133 6.41506 228.133C6.75649 228.133 7.09231 227.989 7.38626 227.719L9.12393 226.119L11.6443 228.148C11.6446 228.149 11.6449 228.149 11.6452 228.149L11.6691 228.168C11.6713 228.17 11.6736 228.172 11.6758 228.174C11.956 228.391 12.2617 228.506 12.5604 228.506H12.5606C13.1442 228.506 13.6089 228.074 13.7443 227.405L15.9634 216.448C16.0525 216.008 15.9778 215.614 15.753 215.339ZM4.62197 222.675L10.042 219.906L6.66714 223.492C6.61184 223.551 6.57266 223.623 6.55337 223.701L5.90261 226.337L4.62197 222.675ZM6.75112 227.029C6.72866 227.05 6.70608 227.068 6.6835 227.085L7.28726 224.64L8.38552 225.524L6.75112 227.029ZM15.0446 216.262L12.8255 227.219C12.8041 227.324 12.7359 227.568 12.5604 227.568C12.4738 227.568 12.3649 227.521 12.2534 227.435L9.39749 225.135C9.39712 225.135 9.39663 225.135 9.39614 225.134L7.6968 223.766L12.5773 218.58C12.7335 218.414 12.7477 218.16 12.6109 217.977C12.4739 217.795 12.2257 217.738 12.0227 217.841L3.99563 221.942L1.1481 221.128L14.6876 215.959C14.802 215.915 14.8819 215.906 14.9286 215.906C14.9573 215.906 15.0083 215.91 15.0272 215.933C15.0521 215.963 15.0839 216.067 15.0446 216.262Z"/>
</mask>
<path d="M15.753 215.339C15.5575 215.1 15.2648 214.969 14.9286 214.969C14.7459 214.969 14.5523 215.007 14.3533 215.083L0.809595 220.253C0.0908454 220.528 -0.00595633 220.939 0.000269252 221.16C0.00649483 221.381 0.12649 221.787 0.859644 222.02C0.864039 222.021 0.868433 222.023 0.872828 222.024L3.68215 222.828L5.20144 227.172C5.40859 227.765 5.87356 228.133 6.41506 228.133C6.75649 228.133 7.09231 227.989 7.38626 227.719L9.12393 226.119L11.6443 228.148C11.6446 228.149 11.6449 228.149 11.6452 228.149L11.6691 228.168C11.6713 228.17 11.6736 228.172 11.6758 228.174C11.956 228.391 12.2617 228.506 12.5604 228.506H12.5606C13.1442 228.506 13.6089 228.074 13.7443 227.405L15.9634 216.448C16.0525 216.008 15.9778 215.614 15.753 215.339ZM4.62197 222.675L10.042 219.906L6.66714 223.492C6.61184 223.551 6.57266 223.623 6.55337 223.701L5.90261 226.337L4.62197 222.675ZM6.75112 227.029C6.72866 227.05 6.70608 227.068 6.6835 227.085L7.28726 224.64L8.38552 225.524L6.75112 227.029ZM15.0446 216.262L12.8255 227.219C12.8041 227.324 12.7359 227.568 12.5604 227.568C12.4738 227.568 12.3649 227.521 12.2534 227.435L9.39749 225.135C9.39712 225.135 9.39663 225.135 9.39614 225.134L7.6968 223.766L12.5773 218.58C12.7335 218.414 12.7477 218.16 12.6109 217.977C12.4739 217.795 12.2257 217.738 12.0227 217.841L3.99563 221.942L1.1481 221.128L14.6876 215.959C14.802 215.915 14.8819 215.906 14.9286 215.906C14.9573 215.906 15.0083 215.91 15.0272 215.933C15.0521 215.963 15.0839 216.067 15.0446 216.262Z" fill="#676767"/>
<path d="M14.3533 215.083L14.7099 216.018L14.7103 216.017L14.3533 215.083ZM0.809595 220.253L1.16614 221.188L1.16623 221.188L0.809595 220.253ZM0.859644 222.02L0.556421 222.973L0.567426 222.976L0.859644 222.02ZM0.872828 222.024L1.14797 221.062L1.14047 221.06L0.872828 222.024ZM3.68215 222.828L4.6261 222.498L4.45515 222.009L3.95728 221.866L3.68215 222.828ZM5.20144 227.172L4.2575 227.502L4.25751 227.502L5.20144 227.172ZM7.38626 227.719L8.06342 228.455L8.06361 228.455L7.38626 227.719ZM9.12393 226.119L9.75109 225.34L9.08021 224.8L8.44657 225.383L9.12393 226.119ZM11.6443 228.148L12.3514 227.441L12.3134 227.403L12.2715 227.369L11.6443 228.148ZM11.6452 228.149L10.938 228.856L10.9759 228.894L11.0176 228.928L11.6452 228.149ZM11.6691 228.168L11.0415 228.947L11.0483 228.952L11.0552 228.958L11.6691 228.168ZM11.6758 228.174L11.0619 228.963L11.0629 228.964L11.6758 228.174ZM12.5604 228.506L12.56 229.506H12.5604V228.506ZM13.7443 227.405L14.7244 227.604L13.7443 227.405ZM15.9634 216.448L14.9833 216.249L14.9833 216.249L15.9634 216.448ZM4.62197 222.675L4.16704 221.785L3.38999 222.182L3.67803 223.005L4.62197 222.675ZM10.042 219.906L10.7702 220.592L9.58708 219.016L10.042 219.906ZM6.66714 223.492L7.39512 224.178L7.39536 224.178L6.66714 223.492ZM6.55337 223.701L7.52422 223.941L7.52431 223.94L6.55337 223.701ZM5.90261 226.337L4.95867 226.667L6.06801 229.839L6.87347 226.577L5.90261 226.337ZM6.75112 227.029L7.42757 227.766L7.42848 227.765L6.75112 227.029ZM6.6835 227.085L5.71265 226.846L5.03969 229.571L7.28419 227.885L6.6835 227.085ZM7.28726 224.64L7.91445 223.861L6.69249 222.877L6.31641 224.4L7.28726 224.64ZM8.38552 225.524L9.06288 226.26L9.91694 225.474L9.01272 224.745L8.38552 225.524ZM12.8255 227.219L13.8053 227.419L13.8056 227.418L12.8255 227.219ZM12.2534 227.435L11.6263 228.214L11.6347 228.221L11.6434 228.227L12.2534 227.435ZM9.39749 225.135L8.69038 225.843L8.72843 225.881L8.77033 225.914L9.39749 225.135ZM9.39614 225.134L8.76895 225.913L8.85272 225.981L8.94891 226.029L9.39614 225.134ZM7.6968 223.766L6.96858 223.081L6.22823 223.867L7.06961 224.545L7.6968 223.766ZM12.5773 218.58L11.8491 217.895L11.8491 217.895L12.5773 218.58ZM12.6109 217.977L13.4107 217.377L13.4105 217.377L12.6109 217.977ZM12.0227 217.841L12.4777 218.732L12.4778 218.732L12.0227 217.841ZM3.99563 221.942L3.72056 222.904L4.09954 223.012L4.45057 222.833L3.99563 221.942ZM1.1481 221.128L0.791467 220.193L-2.01212 221.264L0.873027 222.089L1.1481 221.128ZM14.6876 215.959L15.0443 216.893L15.0446 216.893L14.6876 215.959ZM15.0272 215.933L14.2508 216.563L14.2537 216.567L15.0272 215.933ZM16.5271 214.706C16.1233 214.213 15.5344 213.969 14.9286 213.969V215.969C14.9657 215.969 14.9819 215.976 14.9835 215.977C14.9847 215.977 14.9839 215.977 14.9821 215.975C14.9803 215.974 14.9791 215.973 14.9788 215.972L16.5271 214.706ZM14.9286 213.969C14.6058 213.969 14.2911 214.037 13.9963 214.149L14.7103 216.017C14.8135 215.978 14.8859 215.969 14.9286 215.969V213.969ZM13.9967 214.149L0.452965 219.319L1.16623 221.188L14.7099 216.018L13.9967 214.149ZM0.453053 219.319C-0.0485363 219.51 -0.437166 219.791 -0.691071 220.16C-0.947073 220.533 -1.00717 220.91 -0.999334 221.188L0.999872 221.132C1.00061 221.158 0.998223 221.187 0.990194 221.218C0.981732 221.25 0.968989 221.276 0.957204 221.293C0.929831 221.333 0.948977 221.271 1.16614 221.188L0.453053 219.319ZM-0.999334 221.188C-0.991488 221.467 -0.910079 221.84 -0.633421 222.198C-0.35903 222.552 0.044834 222.81 0.556441 222.973L1.16285 221.067C0.9413 220.997 0.91859 220.935 0.948138 220.973C0.960861 220.99 0.975049 221.015 0.985328 221.047C0.995081 221.077 0.999131 221.106 0.999872 221.132L-0.999334 221.188ZM0.567426 222.976C0.569712 222.977 0.586378 222.982 0.605183 222.987L1.14047 221.06C1.14637 221.062 1.15067 221.063 1.15236 221.064C1.15372 221.064 1.15457 221.064 1.15186 221.064L0.567426 222.976ZM0.597699 222.985L3.40702 223.789L3.95728 221.866L1.14796 221.062L0.597699 222.985ZM2.73821 223.158L4.2575 227.502L6.14539 226.842L4.6261 222.498L2.73821 223.158ZM4.25751 227.502C4.57579 228.412 5.36638 229.133 6.41506 229.133V227.133C6.37945 227.133 6.34449 227.123 6.30336 227.09C6.2586 227.055 6.19363 226.98 6.14537 226.842L4.25751 227.502ZM6.41506 229.133C7.04953 229.133 7.61845 228.864 8.06342 228.455L6.70909 226.983C6.56617 227.115 6.46346 227.133 6.41506 227.133V229.133ZM8.06361 228.455L9.80128 226.855L8.44657 225.383L6.7089 226.983L8.06361 228.455ZM8.49676 226.898L11.0171 228.927L12.2715 227.369L9.75109 225.34L8.49676 226.898ZM10.9372 228.855C10.9666 228.885 10.9944 228.909 11.0184 228.928C11.0423 228.947 11.0635 228.963 11.0798 228.974C11.0961 228.985 11.1095 228.993 11.1175 228.998C11.1217 229.001 11.125 229.003 11.127 229.004C11.1281 229.005 11.1289 229.005 11.1294 229.006C11.1297 229.006 11.1299 229.006 11.13 229.006C11.1301 229.006 11.1302 229.006 11.1302 229.006C11.1302 229.006 11.1302 229.006 11.1302 229.006C11.1302 229.006 11.1303 229.006 11.1303 229.006C11.1305 229.006 11.129 229.005 11.1272 229.004C11.1252 229.003 11.1218 229.001 11.1178 228.999C11.1098 228.994 11.0964 228.985 11.0803 228.974C11.064 228.963 11.0428 228.948 11.019 228.929C10.9951 228.909 10.9674 228.885 10.938 228.856L12.3523 227.442C12.3229 227.413 12.2951 227.388 12.2711 227.369C12.2473 227.35 12.226 227.335 12.2097 227.324C12.1934 227.312 12.18 227.304 12.1719 227.299C12.1678 227.296 12.1645 227.294 12.1624 227.293C12.1614 227.292 12.1606 227.292 12.16 227.292C12.1598 227.292 12.1596 227.291 12.1594 227.291C12.1594 227.291 12.1593 227.291 12.1593 227.291C12.1593 227.291 12.1593 227.291 12.1592 227.291C12.1592 227.291 12.1592 227.291 12.1592 227.291C12.1589 227.291 12.1605 227.292 12.1623 227.293C12.1643 227.294 12.1676 227.296 12.1717 227.299C12.1796 227.304 12.193 227.312 12.2092 227.323C12.2255 227.334 12.2466 227.35 12.2704 227.369C12.2943 227.388 12.3221 227.412 12.3514 227.441L10.9372 228.855ZM11.0176 228.928L11.0415 228.947L12.2967 227.39L12.2728 227.37L11.0176 228.928ZM11.0552 228.958C11.0545 228.957 11.0542 228.957 11.0556 228.958C11.0564 228.959 11.059 228.961 11.0619 228.963L12.2897 227.384C12.2904 227.385 12.2907 227.385 12.2893 227.384C12.2885 227.383 12.2859 227.381 12.283 227.379L11.0552 228.958ZM11.0629 228.964C11.4846 229.291 12.0003 229.505 12.56 229.506L12.5609 227.506C12.5232 227.506 12.4273 227.491 12.2887 227.383L11.0629 228.964ZM12.5604 229.506H12.5606V227.506H12.5604V229.506ZM12.5606 229.506C13.725 229.506 14.5171 228.627 14.7244 227.604L12.7642 227.207C12.732 227.366 12.6718 227.444 12.6396 227.474C12.6134 227.498 12.5927 227.506 12.5606 227.506V229.506ZM14.7244 227.604L16.9435 216.646L14.9833 216.249L12.7642 227.207L14.7244 227.604ZM16.9435 216.646C17.0751 215.997 16.9904 215.273 16.527 214.706L14.9789 215.973C14.9652 215.956 15.0299 216.019 14.9833 216.249L16.9435 216.646ZM5.07691 223.566L10.497 220.797L9.58708 219.016L4.16704 221.785L5.07691 223.566ZM9.31379 219.221L5.93892 222.807L7.39536 224.178L10.7702 220.592L9.31379 219.221ZM5.93916 222.807C5.76607 222.99 5.64302 223.216 5.58243 223.462L7.52431 223.94C7.50229 224.03 7.45762 224.111 7.39512 224.178L5.93916 222.807ZM5.58252 223.461L4.93176 226.097L6.87347 226.577L7.52422 223.941L5.58252 223.461ZM6.84656 226.007L5.56592 222.345L3.67803 223.005L4.95867 226.667L6.84656 226.007ZM6.07468 226.293C6.07981 226.288 6.08308 226.286 6.08281 226.286L7.28419 227.885C7.32908 227.851 7.37751 227.812 7.42757 227.766L6.07468 226.293ZM7.65434 227.325L8.2581 224.88L6.31641 224.4L5.71265 226.846L7.65434 227.325ZM6.66006 225.419L7.75833 226.303L9.01272 224.745L7.91445 223.861L6.66006 225.419ZM7.70817 224.789L6.07377 226.294L7.42848 227.765L9.06288 226.26L7.70817 224.789ZM14.0645 216.063L11.8454 227.021L13.8056 227.418L16.0247 216.46L14.0645 216.063ZM11.8456 227.02C11.8457 227.019 11.8458 227.018 11.846 227.018C11.8462 227.017 11.8468 227.015 11.848 227.011C11.8493 227.007 11.8576 226.981 11.879 226.943C11.8983 226.909 11.9509 226.823 12.0574 226.74C12.1777 226.646 12.3525 226.568 12.5604 226.568V228.568C13.1917 228.568 13.516 228.112 13.6225 227.923C13.7402 227.713 13.7875 227.506 13.8053 227.419L11.8456 227.02ZM12.5604 226.568C12.692 226.568 12.7808 226.602 12.814 226.616C12.8517 226.633 12.8673 226.646 12.8635 226.643L11.6434 228.227C11.8287 228.37 12.1527 228.568 12.5604 228.568V226.568ZM12.8806 226.656L10.0246 224.357L8.77033 225.914L11.6263 228.214L12.8806 226.656ZM10.1046 224.428C10.0363 224.36 9.94966 224.293 9.84338 224.24L8.94891 226.029C8.89167 226 8.84392 225.969 8.8055 225.941C8.76681 225.913 8.72801 225.88 8.69038 225.843L10.1046 224.428ZM10.0233 224.356L8.32399 222.987L7.06961 224.545L8.76895 225.913L10.0233 224.356ZM8.42503 224.451L13.3055 219.265L11.8491 217.895L6.96858 223.081L8.42503 224.451ZM13.3055 219.266C13.7951 218.745 13.8394 217.949 13.4107 217.377L11.811 218.578C11.6561 218.371 11.672 218.083 11.8491 217.895L13.3055 219.266ZM13.4105 217.377C12.9816 216.806 12.2039 216.626 11.5676 216.951L12.4778 218.732C12.2475 218.85 11.9662 218.784 11.8113 218.578L13.4105 217.377ZM11.5678 216.951L3.54069 221.052L4.45057 222.833L12.4777 218.732L11.5678 216.951ZM4.2707 220.981L1.42317 220.166L0.873027 222.089L3.72056 222.904L4.2707 220.981ZM1.50473 222.062L15.0443 216.893L14.331 215.025L0.791467 220.193L1.50473 222.062ZM15.0446 216.893C15.056 216.889 15.0151 216.906 14.9286 216.906V214.906C14.7486 214.906 14.5481 214.942 14.3307 215.025L15.0446 216.893ZM14.9286 216.906C14.9133 216.906 14.8585 216.906 14.7841 216.891C14.7457 216.884 14.676 216.867 14.593 216.829C14.5134 216.793 14.3744 216.716 14.2508 216.563L15.8037 215.303C15.5611 215.004 15.2387 214.943 15.1791 214.931C15.0672 214.908 14.9726 214.906 14.9286 214.906V216.906ZM14.2537 216.567C14.1607 216.453 14.1185 216.348 14.1005 216.295C14.0791 216.233 14.0702 216.182 14.0664 216.149C14.0586 216.081 14.0674 216.049 14.0644 216.063L16.0248 216.46C16.0611 216.28 16.0736 216.099 16.0536 215.923C16.0377 215.783 15.9882 215.528 15.8008 215.299L14.2537 216.567Z" fill="#676767" mask="url(#path-7-inside-3_3338_15572)"/>
</g>
<path d="M15.4013 289.464C15.4013 286.188 12.1178 283.524 8.08153 283.524C4.0458 283.524 0.761902 286.188 0.761902 289.464C0.761902 292.4 3.36595 294.859 6.88349 295.324C7.12189 295.376 7.44631 295.481 7.52839 295.685C7.6022 295.87 7.57666 296.16 7.55197 296.347C7.55197 296.347 7.46609 296.864 7.44757 296.974C7.41572 297.159 7.30051 297.697 8.08153 297.368C8.86283 297.039 12.297 294.886 13.8327 293.118C14.8935 291.955 15.4013 290.775 15.4013 289.464Z" stroke="#676767" stroke-width="0.5"/>
<path d="M11.3333 354.25L9.99998 351.583H5.99998L4.66665 354.25M12 354.25H3.99998C2.53331 354.25 1.33331 355.45 1.33331 356.917V362.25C1.33331 363.717 2.53331 364.917 3.99998 364.917H12C13.4666 364.917 14.6666 363.717 14.6666 362.25V356.917C14.6666 355.45 13.4666 354.25 12 354.25ZM7.99998 362.25C6.53331 362.25 5.33331 361.05 5.33331 359.583C5.33331 358.117 6.53331 356.917 7.99998 356.917C9.46665 356.917 10.6666 358.117 10.6666 359.583C10.6666 361.05 9.46665 362.25 7.99998 362.25Z" stroke="#676767" stroke-linecap="round"/>
<path d="M8.33366 433.167H3.00033C2.26699 433.167 1.66699 432.567 1.66699 431.833V426.5C1.66699 422.833 4.66699 419.833 8.33366 419.833C12.0003 419.833 15.0003 422.833 15.0003 426.5C15.0003 430.233 12.067 433.167 8.33366 433.167Z" stroke="#676767" stroke-miterlimit="10" stroke-linecap="round" stroke-linejoin="round"/>
<path d="M5.16732 426.5C5.16732 426.592 5.0927 426.666 5.00065 426.666C4.9086 426.666 4.83398 426.592 4.83398 426.5C4.83398 426.408 4.9086 426.333 5.00065 426.333C5.0927 426.333 5.16732 426.408 5.16732 426.5Z" fill="#A66FE5" stroke="#676767"/>
<path d="M11.8333 426.5C11.8333 426.592 11.7587 426.666 11.6667 426.666C11.5746 426.666 11.5 426.592 11.5 426.5C11.5 426.408 11.5746 426.333 11.6667 426.333C11.7587 426.333 11.8333 426.408 11.8333 426.5Z" fill="#A66FE5" stroke="#676767"/>
<path d="M8.50033 426.5C8.50033 426.592 8.42571 426.666 8.33366 426.666C8.24161 426.666 8.16699 426.592 8.16699 426.5C8.16699 426.408 8.24161 426.333 8.33366 426.333C8.42571 426.333 8.50033 426.408 8.50033 426.5Z" fill="#A66FE5" stroke="#676767"/>
<path d="M9.17393 498.923L10.7945 497.302C11.2514 496.845 11.9701 496.782 12.5001 497.151L14.2615 498.38C14.9423 498.855 15.0285 499.83 14.4416 500.416L14.265 500.593C13.9494 500.909 13.4988 501.045 13.0696 500.922C11.6705 500.521 8.40738 499.361 5.7542 496.708C3.10102 494.055 1.94118 490.792 1.54017 489.393C1.41717 488.964 1.55382 488.513 1.86949 488.197L2.04608 488.021C2.63298 487.434 3.60771 487.52 4.08251 488.201L5.31103 489.962C5.68065 490.492 5.6171 491.211 5.16022 491.668L3.5396 493.289" stroke="#676767"/>
<path fill-rule="evenodd" clip-rule="evenodd" d="M7.89382 569.459C7.89382 569.459 12.7878 565.543 12.7878 560.894C12.7878 558.191 10.5967 556 7.89382 556C5.19093 556 2.99982 558.191 2.99982 560.894C2.99982 565.543 7.89382 569.459 7.89382 569.459Z" stroke="#676767"/>
<path fill-rule="evenodd" clip-rule="evenodd" d="M7.89383 563.341C9.24527 563.341 10.3408 562.246 10.3408 560.894C10.3408 559.543 9.24527 558.447 7.89383 558.447C6.54239 558.447 5.44683 559.543 5.44683 560.894C5.44683 562.246 6.54239 563.341 7.89383 563.341Z" stroke="#676767"/>
<defs>
<clipPath id="clip0_3338_15572">
<rect width="16" height="16" fill="white" transform="translate(0 9)"/>
</clipPath>
<clipPath id="clip1_3338_15572">
<rect width="16" height="16" fill="white" transform="translate(0 77.25)"/>
</clipPath>
<clipPath id="clip2_3338_15572">
<rect width="16" height="16" fill="white" transform="translate(0 145.5)"/>
</clipPath>
<clipPath id="clip3_3338_15572">
<rect width="16" height="16" fill="white" transform="translate(0 213.75)"/>
</clipPath>
</defs>
</svg>
