<svg width="80" height="40" viewBox="0 0 80 40" fill="none" xmlns="http://www.w3.org/2000/svg">
<path d="M19.636 20C19.636 8.9543 28.5903 0 39.636 0C50.6817 0 59.636 8.9543 59.636 20C59.636 31.0457 50.6817 40 39.636 40C28.5903 40 19.636 31.0457 19.636 20Z" fill="#F2B601"/>
<path d="M49.6362 19.8913C49.6362 14.4275 45.16 10 39.6362 10C34.1124 10 29.6362 14.4275 29.6362 19.8913C29.6362 25.0725 34.3981 29.3116 39.6362 29.3116V32.6087C45.6838 29.6884 49.6362 24.8841 49.6362 19.8913ZM40.5886 17.0652H44.8743V21.3043C44.8743 22.6232 44.0172 23.6594 42.9696 23.6594V21.3043H40.5886V17.0652ZM39.16 21.3043C39.16 22.6232 38.3029 23.6594 37.2553 23.6594V21.3043H34.8743V17.0652H39.16V21.3043Z" fill="#1C1C1C"/>
</svg>
