<svg width="48" height="32" viewBox="0 0 48 32" fill="none" xmlns="http://www.w3.org/2000/svg">
<g clip-path="url(#clip0_89_11545)">
<path d="M0 4C0 1.79086 1.79086 0 4 0H44C46.2091 0 48 1.79086 48 4V28C48 30.2091 46.2091 32 44 32H4C1.79086 32 0 30.2091 0 28V4Z" fill="#EFF2F6"/>
<path d="M27.8551 8.70899L19.9043 8.73633L20.1452 23.2922L28.096 23.2649L27.8551 8.70899Z" fill="#FF5F00"/>
<path d="M20.4276 16.0436C20.3784 13.083 21.7046 10.4525 23.7819 8.74617C22.2139 7.51576 20.2482 6.77588 18.1173 6.78318C13.0691 6.80047 9.05374 10.9592 9.13888 16.0823C9.22401 21.2053 13.3771 25.3361 18.4253 25.3188C20.5562 25.3115 22.4971 24.5582 24.024 23.3172C21.8907 21.6511 20.4768 19.0041 20.4276 16.0436Z" fill="#EB001B"/>
<path d="M38.8615 15.9189C38.9466 21.0419 34.9313 25.2007 29.8831 25.218C27.7522 25.2253 25.7864 24.4854 24.2184 23.255C26.3211 21.5486 27.622 18.9181 27.5728 15.9576C27.5236 12.997 26.1101 10.3758 23.9763 8.68394C25.5032 7.44294 27.4441 6.68967 29.575 6.68237C34.6232 6.66508 38.7768 10.8216 38.8615 15.9189Z" fill="#F79E1B"/>
</g>
<defs>
<clipPath id="clip0_89_11545">
<rect width="48" height="32" fill="white"/>
</clipPath>
</defs>
</svg>
