<svg width="17" height="472" viewBox="0 0 17 472" fill="none" xmlns="http://www.w3.org/2000/svg">
<g clip-path="url(#clip0_2507_10830)">
<path d="M9.71875 23.75V24.25H10.2188H13.5C14.4654 24.25 15.25 23.4654 15.25 22.5C15.25 22.431 15.306 22.375 15.375 22.375C15.444 22.375 15.5 22.431 15.5 22.5C15.5 23.6024 14.6024 24.5 13.5 24.5H2.5C1.39764 24.5 0.5 23.6024 0.5 22.5V11.5C0.5 10.3976 1.39764 9.5 2.5 9.5H13.5C14.6024 9.5 15.5 10.3976 15.5 11.5V19.375C15.5 19.444 15.444 19.5 15.375 19.5C15.306 19.5 15.25 19.444 15.25 19.375V11.5C15.25 10.5346 14.4654 9.75 13.5 9.75H2.5C1.53461 9.75 0.75 10.5346 0.75 11.5V22.5C0.75 23.4654 1.53461 24.25 2.5 24.25H8.96875H9.46875V23.75V18.3125V17.8125H8.96875H7.5625C7.49345 17.8125 7.4375 17.7565 7.4375 17.6875C7.4375 17.6185 7.49345 17.5625 7.5625 17.5625H8.96875H9.46875V17.0625V15.3438C9.46875 14.2414 10.3664 13.3438 11.4688 13.3438H11.7812C11.8503 13.3438 11.9062 13.3997 11.9062 13.4688C11.9062 13.5378 11.8503 13.5938 11.7812 13.5938H11.4688C10.5034 13.5938 9.71875 14.3784 9.71875 15.3438V17.0625V17.5625H10.2188H11.625C11.694 17.5625 11.75 17.6185 11.75 17.6875C11.75 17.7565 11.694 17.8125 11.625 17.8125H10.2188H9.71875V18.3125V23.75Z" fill="#676767" stroke="#676767"/>
</g>
<g clip-path="url(#clip1_2507_10830)">
<path fill-rule="evenodd" clip-rule="evenodd" d="M4.22093 58.417C2.44206 58.417 1 59.8591 1 61.6379V69.0798C1 70.8587 2.44206 72.3007 4.22093 72.3007H11.6628C13.4417 72.3007 14.8837 70.8587 14.8837 69.0798V61.6379C14.8837 59.8591 13.4417 58.417 11.6628 58.417H4.22093ZM0 61.6379C0 59.3068 1.88977 57.417 4.22093 57.417H11.6628C13.9939 57.417 15.8837 59.3068 15.8837 61.6379V69.0798C15.8837 71.4109 13.9939 73.3007 11.6628 73.3007H4.22093C1.88977 73.3007 0 71.4109 0 69.0798V61.6379ZM8.33735 62.8766C7.82204 62.8002 7.29575 62.8882 6.83334 63.1281C6.37093 63.3681 5.99596 63.7477 5.76174 64.213C5.52753 64.6784 5.446 65.2057 5.52877 65.72C5.61153 66.2344 5.85437 66.7095 6.22273 67.0779C6.5911 67.4463 7.06624 67.6891 7.58058 67.7718C8.09491 67.8546 8.62224 67.7731 9.08758 67.5389C9.55291 67.3047 9.93254 66.9297 10.1725 66.4673C10.4124 66.0049 10.5004 65.4786 10.424 64.9633C10.3461 64.4376 10.1011 63.951 9.72538 63.5752C9.34963 63.1995 8.863 62.9546 8.33735 62.8766ZM6.37277 62.2405C7.02188 61.9037 7.76066 61.7802 8.48404 61.8874C9.22191 61.9968 9.90503 62.3407 10.4325 62.8681C10.9599 63.3956 11.3038 64.0787 11.4132 64.8166C11.5205 65.54 11.3969 66.2787 11.0601 66.9278C10.7233 67.577 10.1904 68.1033 9.53717 68.4321C8.88396 68.7609 8.14371 68.8753 7.42171 68.7591C6.69971 68.643 6.03272 68.3021 5.51563 67.785C4.99853 67.2679 4.65765 66.6009 4.54147 65.8789C4.42529 65.1569 4.53973 64.4167 4.86851 63.7635C5.19729 63.1102 5.72366 62.5773 6.37277 62.2405ZM12.0349 60.7658C11.7587 60.7658 11.5349 60.9897 11.5349 61.2658C11.5349 61.542 11.7587 61.7658 12.0349 61.7658H12.0415C12.3177 61.7658 12.5415 61.542 12.5415 61.2658C12.5415 60.9897 12.3177 60.7658 12.0415 60.7658H12.0349Z" fill="#676767"/>
</g>
<path fill-rule="evenodd" clip-rule="evenodd" d="M4.89535 113.056C4.88735 113.059 4.87866 113.059 4.87047 113.057C4.86229 113.055 4.85501 113.05 4.84964 113.043C4.34437 112.372 4.21741 111.218 4.18652 110.774C4.18018 110.689 4.08454 110.641 4.00794 110.684C2.44769 111.563 1 113.644 1 115.653C1 119.105 3.38841 122 7.5 122C11.3522 122 14 119.016 14 115.654C14 111.254 10.8676 108.331 8.07763 107.01C8.06132 107.002 8.04323 106.999 8.02527 107C8.00731 107.002 7.99015 107.009 7.9756 107.019C7.96104 107.03 7.94963 107.045 7.94256 107.061C7.9355 107.078 7.93304 107.096 7.93545 107.114C8.29472 109.485 7.79834 112.064 4.89535 113.056V113.056Z" stroke="#676767"/>
<g clip-path="url(#clip2_2507_10830)">
<mask id="path-4-inside-1_2507_10830" fill="white">
<path d="M13.6504 157.35C12.1353 155.834 10.1285 155 8 155C3.59473 155 0 158.595 0 163C0 164.303 0.320068 165.59 0.927368 166.734L0.0137939 170.418C-0.0257568 170.578 0.0211181 170.746 0.137329 170.863C0.252808 170.978 0.421143 171.026 0.581543 170.986L4.26587 170.073C5.40979 170.68 6.69653 171 8 171C10.1285 171 12.1353 170.166 13.6504 168.65C15.1655 167.135 16 165.129 16 163C16 160.871 15.1655 158.865 13.6504 157.35ZM8 170.062C6.79395 170.062 5.60449 169.752 4.55994 169.165C4.45593 169.107 4.3335 169.09 4.21741 169.119L1.11096 169.889L1.88123 166.782C1.91003 166.667 1.89343 166.544 1.83496 166.44C1.2478 165.396 0.9375 164.206 0.9375 163C0.9375 159.106 4.10571 155.938 8 155.938C11.8943 155.938 15.0625 159.106 15.0625 163C15.0625 166.894 11.8943 170.062 8 170.062Z"/>
</mask>
<path d="M13.6504 157.35C12.1353 155.834 10.1285 155 8 155C3.59473 155 0 158.595 0 163C0 164.303 0.320068 165.59 0.927368 166.734L0.0137939 170.418C-0.0257568 170.578 0.0211181 170.746 0.137329 170.863C0.252808 170.978 0.421143 171.026 0.581543 170.986L4.26587 170.073C5.40979 170.68 6.69653 171 8 171C10.1285 171 12.1353 170.166 13.6504 168.65C15.1655 167.135 16 165.129 16 163C16 160.871 15.1655 158.865 13.6504 157.35ZM8 170.062C6.79395 170.062 5.60449 169.752 4.55994 169.165C4.45593 169.107 4.3335 169.09 4.21741 169.119L1.11096 169.889L1.88123 166.782C1.91003 166.667 1.89343 166.544 1.83496 166.44C1.2478 165.396 0.9375 164.206 0.9375 163C0.9375 159.106 4.10571 155.938 8 155.938C11.8943 155.938 15.0625 159.106 15.0625 163C15.0625 166.894 11.8943 170.062 8 170.062Z" fill="#676767"/>
<path d="M0.927368 166.734L1.89797 166.975L1.99009 166.603L1.81061 166.265L0.927368 166.734ZM0.0137939 170.418L0.984372 170.659L0.9844 170.659L0.0137939 170.418ZM0.137329 170.863L0.844809 170.156L0.844436 170.156L0.137329 170.863ZM0.581543 170.986L0.340839 170.016L0.340746 170.016L0.581543 170.986ZM4.26587 170.073L4.73478 169.189L4.39669 169.01L4.02517 169.102L4.26587 170.073ZM13.6504 168.65L14.3575 169.357L14.3575 169.357L13.6504 168.65ZM4.55994 169.165L4.06987 170.037L4.07001 170.037L4.55994 169.165ZM4.21741 169.119L3.97751 168.148L3.9767 168.148L4.21741 169.119ZM1.11096 169.889L0.140352 169.648L-0.259016 171.259L1.35167 170.86L1.11096 169.889ZM1.88123 166.782L0.910783 166.541L0.910616 166.542L1.88123 166.782ZM1.83496 166.44L2.70689 165.95L2.70666 165.95L1.83496 166.44ZM14.3575 156.643C12.6562 154.941 10.3957 154 8 154V156C9.86133 156 11.6143 156.728 12.9433 158.057L14.3575 156.643ZM8 154C3.0424 154 -1 158.043 -1 163H1C1 159.147 4.14705 156 8 156V154ZM-1 163C-1 164.466 -0.640171 165.914 0.044122 167.203L1.81061 166.265C1.28031 165.266 1 164.141 1 163H-1ZM-0.0432378 166.493L-0.956812 170.178L0.9844 170.659L1.89797 166.975L-0.0432378 166.493ZM-0.956784 170.178C-1.08081 170.678 -0.933781 171.206 -0.569778 171.57L0.844436 170.156C0.976017 170.287 1.02929 170.478 0.984372 170.659L-0.956784 170.178ZM-0.570151 171.569C-0.208109 171.932 0.319576 172.082 0.82234 171.957L0.340746 170.016C0.522709 169.97 0.713725 170.025 0.844809 170.156L-0.570151 171.569ZM0.822247 171.957L4.50657 171.043L4.02517 169.102L0.340839 170.016L0.822247 171.957ZM3.79696 170.956C5.08585 171.64 6.53367 172 8 172V170C6.85939 170 5.73373 169.72 4.73478 169.189L3.79696 170.956ZM8 172C10.3957 172 12.6562 171.059 14.3575 169.357L12.9433 167.943C11.6143 169.272 9.86133 170 8 170V172ZM14.3575 169.357C16.0587 167.656 17 165.396 17 163H15C15 164.861 14.2723 166.614 12.9433 167.943L14.3575 169.357ZM17 163C17 160.604 16.0588 158.344 14.3575 156.643L12.9433 158.057C14.2723 159.386 15 161.139 15 163H17ZM8 169.062C6.96447 169.062 5.94388 168.796 5.04986 168.293L4.07001 170.037C5.26511 170.708 6.62342 171.062 8 171.062V169.062ZM5.05 168.293C4.72377 168.11 4.34024 168.058 3.97751 168.148L4.4573 170.089C4.32675 170.122 4.18809 170.103 4.06987 170.037L5.05 168.293ZM3.9767 168.148L0.870257 168.918L1.35167 170.86L4.45811 170.089L3.9767 168.148ZM2.08157 170.13L2.85184 167.023L0.910616 166.542L0.140352 169.648L2.08157 170.13ZM2.85167 167.024C2.94211 166.66 2.88986 166.276 2.70689 165.95L0.963031 166.93C0.897002 166.812 0.877955 166.673 0.910783 166.541L2.85167 167.024ZM2.70666 165.95C2.2042 165.056 1.9375 164.036 1.9375 163H-0.0624999C-0.0624999 164.377 0.291401 165.735 0.963266 166.93L2.70666 165.95ZM1.9375 163C1.9375 159.658 4.658 156.938 8 156.938V154.938C3.55343 154.938 -0.0624999 158.553 -0.0624999 163H1.9375ZM8 156.938C11.342 156.938 14.0625 159.658 14.0625 163H16.0625C16.0625 158.553 12.4466 154.938 8 154.938V156.938ZM14.0625 163C14.0625 166.342 11.342 169.062 8 169.062V171.062C12.4466 171.062 16.0625 167.447 16.0625 163H14.0625Z" fill="#676767" mask="url(#path-4-inside-1_2507_10830)"/>
<mask id="path-6-inside-2_2507_10830" fill="white">
<path d="M12.2301 164.424C11.9195 164.113 11.5774 163.799 11.1823 163.609C10.5918 163.324 10.0285 163.406 9.59585 163.838C9.39895 164.035 9.12807 164.424 8.97219 164.614C8.57009 164.547 7.76674 163.87 7.44777 163.552C7.13003 163.233 6.45315 162.429 6.38588 162.028C6.5757 161.873 6.96523 161.601 7.16201 161.405C7.59462 160.972 7.67617 160.408 7.39162 159.818C7.20107 159.423 6.88735 159.081 6.5768 158.77C5.94423 158.125 4.96853 158.077 4.12636 158.919C3.49697 159.549 2.9363 160.715 3.83864 162.699C4.37258 163.873 5.23305 164.911 5.65725 165.34L5.66054 165.343C6.08901 165.768 7.12722 166.628 8.30105 167.162C9.62673 167.765 11.0476 167.908 12.0813 166.874C12.9362 166.019 12.8642 165.045 12.2301 164.424ZM11.4184 166.211C10.8079 166.822 9.88967 166.854 8.68911 166.308C7.63515 165.829 6.68081 165.034 6.3218 164.679C5.9667 164.32 5.17141 163.365 4.69204 162.311C4.14602 161.111 4.17873 160.193 4.78921 159.582C5.14553 159.226 5.55568 159.068 5.907 159.426L5.91372 159.433C6.74587 160.265 6.68679 160.554 6.49904 160.742C6.33242 160.908 5.83986 161.243 5.68068 161.402C5.30703 161.775 5.37661 162.354 5.88735 163.122C6.19216 163.58 6.59475 164.024 6.78469 164.215L6.78567 164.216C6.97622 164.406 7.42067 164.808 7.8788 165.113C8.64638 165.624 9.22487 165.693 9.59841 165.32C9.75771 165.16 10.0921 164.668 10.2587 164.501C10.3856 164.374 10.5108 164.326 10.775 164.453C11.0814 164.601 11.4094 164.929 11.5672 165.087L11.574 165.093C11.9356 165.448 11.7748 165.855 11.4184 166.211Z"/>
</mask>
<path d="M12.2301 164.424C11.9195 164.113 11.5774 163.799 11.1823 163.609C10.5918 163.324 10.0285 163.406 9.59585 163.838C9.39895 164.035 9.12807 164.424 8.97219 164.614C8.57009 164.547 7.76674 163.87 7.44777 163.552C7.13003 163.233 6.45315 162.429 6.38588 162.028C6.5757 161.873 6.96523 161.601 7.16201 161.405C7.59462 160.972 7.67617 160.408 7.39162 159.818C7.20107 159.423 6.88735 159.081 6.5768 158.77C5.94423 158.125 4.96853 158.077 4.12636 158.919C3.49697 159.549 2.9363 160.715 3.83864 162.699C4.37258 163.873 5.23305 164.911 5.65725 165.34L5.66054 165.343C6.08901 165.768 7.12722 166.628 8.30105 167.162C9.62673 167.765 11.0476 167.908 12.0813 166.874C12.9362 166.019 12.8642 165.045 12.2301 164.424ZM11.4184 166.211C10.8079 166.822 9.88967 166.854 8.68911 166.308C7.63515 165.829 6.68081 165.034 6.3218 164.679C5.9667 164.32 5.17141 163.365 4.69204 162.311C4.14602 161.111 4.17873 160.193 4.78921 159.582C5.14553 159.226 5.55568 159.068 5.907 159.426L5.91372 159.433C6.74587 160.265 6.68679 160.554 6.49904 160.742C6.33242 160.908 5.83986 161.243 5.68068 161.402C5.30703 161.775 5.37661 162.354 5.88735 163.122C6.19216 163.58 6.59475 164.024 6.78469 164.215L6.78567 164.216C6.97622 164.406 7.42067 164.808 7.8788 165.113C8.64638 165.624 9.22487 165.693 9.59841 165.32C9.75771 165.16 10.0921 164.668 10.2587 164.501C10.3856 164.374 10.5108 164.326 10.775 164.453C11.0814 164.601 11.4094 164.929 11.5672 165.087L11.574 165.093C11.9356 165.448 11.7748 165.855 11.4184 166.211Z" fill="#676767"/>
<path d="M11.1823 163.609L11.6166 162.708L11.6164 162.708L11.1823 163.609ZM8.97219 164.614L8.80721 165.601L9.37969 165.696L9.74679 165.247L8.97219 164.614ZM7.44777 163.552L6.73931 164.258L6.74189 164.26L7.44777 163.552ZM6.38588 162.028L5.75333 161.254L5.30366 161.621L5.39965 162.194L6.38588 162.028ZM7.16201 161.405L7.8689 162.112L7.86911 162.112L7.16201 161.405ZM7.39162 159.818L8.29244 159.384L8.29241 159.384L7.39162 159.818ZM6.5768 158.77L5.86234 159.47L5.8697 159.478L6.5768 158.77ZM4.12636 158.919L4.8334 159.626L4.83352 159.626L4.12636 158.919ZM3.83864 162.699L2.92835 163.113L2.92839 163.113L3.83864 162.699ZM5.65725 165.34L4.9466 166.043L4.95014 166.047L5.65725 165.34ZM5.66054 165.343L4.95343 166.05L4.95689 166.054L5.66054 165.343ZM8.30105 167.162L8.71503 166.252L8.71501 166.252L8.30105 167.162ZM12.0813 166.874L12.7884 167.581L12.7885 167.581L12.0813 166.874ZM8.68911 166.308L8.27509 167.219L8.27511 167.219L8.68911 166.308ZM6.3218 164.679L5.61067 165.382L5.61857 165.39L6.3218 164.679ZM4.69204 162.311L3.78176 162.725L3.78177 162.725L4.69204 162.311ZM5.907 159.426L5.19252 160.126L5.19355 160.127L5.907 159.426ZM5.91372 159.433L5.20024 160.134L5.20661 160.14L5.91372 159.433ZM5.68068 161.402L6.38768 162.109L6.38779 162.109L5.68068 161.402ZM5.88735 163.122L6.71991 162.568L6.71985 162.567L5.88735 163.122ZM6.78469 164.215L7.5321 163.55L7.513 163.529L7.4927 163.508L6.78469 164.215ZM6.78567 164.216L6.03826 164.88L6.05831 164.903L6.07969 164.924L6.78567 164.216ZM7.8788 165.113L8.43277 164.281L8.43274 164.281L7.8788 165.113ZM10.775 164.453L10.3407 165.354L10.3408 165.354L10.775 164.453ZM11.5672 165.087L10.8603 165.794L10.8665 165.8L11.5672 165.087ZM11.574 165.093L10.8733 165.807L10.8743 165.808L11.574 165.093ZM12.9374 163.717C12.6208 163.4 12.1767 162.978 11.6166 162.708L10.7479 164.51C10.9782 164.621 11.2181 164.826 11.5229 165.131L12.9374 163.717ZM11.6164 162.708C11.1746 162.495 10.6855 162.393 10.1866 162.465C9.68288 162.538 9.24149 162.779 8.88874 163.131L10.303 164.546C10.3828 164.466 10.4394 164.449 10.4731 164.444C10.5117 164.439 10.5995 164.438 10.7481 164.51L11.6164 162.708ZM8.88874 163.131C8.73839 163.282 8.58536 163.477 8.47568 163.619C8.34235 163.793 8.26389 163.901 8.19759 163.982L9.74679 165.247C9.83637 165.137 9.97129 164.955 10.0616 164.838C10.1755 164.69 10.2564 164.592 10.303 164.546L8.88874 163.131ZM9.13717 163.628C9.21466 163.641 9.21333 163.658 9.10408 163.596C9.01544 163.545 8.9034 163.47 8.7775 163.376C8.52419 163.187 8.27946 162.969 8.15366 162.844L6.74189 164.26C6.93506 164.453 7.25148 164.733 7.58012 164.978C7.74519 165.102 7.92931 165.228 8.11436 165.334C8.2788 165.427 8.52867 165.554 8.80721 165.601L9.13717 163.628ZM8.15624 162.846C8.03101 162.72 7.81326 162.476 7.62398 162.222C7.52991 162.096 7.45491 161.984 7.40443 161.896C7.34217 161.787 7.35911 161.785 7.37212 161.863L5.39965 162.194C5.44629 162.472 5.57306 162.722 5.66656 162.886C5.77184 163.071 5.89853 163.254 6.02181 163.419C6.26722 163.748 6.54679 164.064 6.73931 164.258L8.15624 162.846ZM7.01844 162.803C7.099 162.737 7.20691 162.658 7.38061 162.525C7.52341 162.415 7.71866 162.262 7.8689 162.112L6.45512 160.697C6.40857 160.744 6.31068 160.825 6.16206 160.939C6.04435 161.03 5.86259 161.165 5.75333 161.254L7.01844 162.803ZM7.86911 162.112C8.22189 161.759 8.46254 161.317 8.53544 160.814C8.60764 160.315 8.50541 159.826 8.29244 159.384L6.49081 160.252C6.56238 160.401 6.56166 160.489 6.55606 160.527C6.55118 160.561 6.53474 160.618 6.4549 160.697L7.86911 162.112ZM8.29241 159.384C8.02232 158.824 7.60017 158.38 7.28391 158.063L5.8697 159.478C6.17453 159.782 6.37982 160.022 6.49083 160.252L8.29241 159.384ZM7.29123 158.071C6.79848 157.568 6.13367 157.266 5.40066 157.287C4.67073 157.309 3.98457 157.647 3.41921 158.212L4.83352 159.626C5.11032 159.349 5.33309 159.29 5.4597 159.286C5.58323 159.283 5.72256 159.327 5.86238 159.47L7.29123 158.071ZM3.41933 158.212C2.98817 158.643 2.57002 159.272 2.42249 160.132C2.2754 160.99 2.41372 161.982 2.92835 163.113L4.74894 162.285C4.36122 161.433 4.3287 160.849 4.39371 160.47C4.45829 160.094 4.63516 159.825 4.8334 159.626L3.41933 158.212ZM2.92839 163.113C3.52466 164.424 4.46566 165.558 4.94661 166.043L6.36789 164.636C6.00045 164.265 5.2205 163.322 4.7489 162.285L2.92839 163.113ZM4.95014 166.047L4.95344 166.05L6.36765 164.636L6.36435 164.633L4.95014 166.047ZM4.95689 166.054C5.44276 166.535 6.57615 167.476 7.88708 168.072L8.71501 166.252C7.67828 165.78 6.73526 165 6.3642 164.633L4.95689 166.054ZM7.88706 168.072C9.34501 168.735 11.3057 169.064 12.7884 167.581L11.3743 166.167C10.7895 166.752 9.90845 166.794 8.71503 166.252L7.88706 168.072ZM12.7885 167.581C13.3621 167.008 13.6974 166.316 13.7138 165.584C13.7302 164.852 13.424 164.193 12.9298 163.709L11.5305 165.138C11.6703 165.275 11.7171 165.415 11.7143 165.539C11.7115 165.663 11.6554 165.886 11.3742 166.167L12.7885 167.581ZM10.7112 165.504C10.5428 165.673 10.1576 165.878 9.10311 165.398L8.27511 167.219C9.62177 167.831 11.073 167.971 12.1255 166.918L10.7112 165.504ZM9.10312 165.398C8.18758 164.982 7.32836 164.268 7.02503 163.968L5.61857 165.39C6.03325 165.8 7.08272 166.676 8.27509 167.219L9.10312 165.398ZM7.03288 163.976C6.73268 163.672 6.0187 162.813 5.60231 161.897L3.78177 162.725C4.32412 163.918 5.20071 164.967 5.61071 165.382L7.03288 163.976ZM5.60231 161.897C5.12274 160.843 5.32786 160.458 5.49631 160.289L4.0821 158.875C3.02961 159.927 3.16929 161.379 3.78176 162.725L5.60231 161.897ZM5.49631 160.289C5.54566 160.24 5.58073 160.214 5.59828 160.203C5.61649 160.191 5.60031 160.206 5.55111 160.216C5.49512 160.227 5.41441 160.229 5.32791 160.201C5.24364 160.174 5.19989 160.134 5.19252 160.126L6.62149 158.727C6.22379 158.321 5.69428 158.145 5.14886 158.257C4.68321 158.352 4.32323 158.634 4.0821 158.875L5.49631 160.289ZM5.19355 160.127L5.20027 160.134L6.62716 158.733L6.62045 158.726L5.19355 160.127ZM5.20661 160.14C5.3927 160.326 5.50861 160.462 5.5782 160.556C5.6508 160.655 5.65119 160.679 5.63909 160.642C5.62246 160.592 5.59572 160.464 5.64211 160.301C5.68604 160.147 5.7688 160.058 5.79194 160.035L7.20615 161.449C7.32316 161.332 7.48371 161.136 7.56551 160.849C7.64978 160.553 7.62101 160.266 7.53859 160.016C7.39418 159.578 7.05157 159.157 6.62082 158.726L5.20661 160.14ZM5.79194 160.035C5.79348 160.033 5.76986 160.055 5.70123 160.11C5.6394 160.159 5.56637 160.214 5.48258 160.278C5.40313 160.338 5.31244 160.407 5.23153 160.471C5.15813 160.529 5.05773 160.611 4.97358 160.695L6.38779 162.109C6.38323 162.114 6.40409 162.094 6.47302 162.039C6.53444 161.99 6.60715 161.935 6.69156 161.871C6.77164 161.81 6.86294 161.741 6.9453 161.676C7.02086 161.616 7.12129 161.534 7.20615 161.449L5.79194 160.035ZM4.97369 160.695C4.54623 161.122 4.39251 161.676 4.45951 162.233C4.52056 162.741 4.75839 163.23 5.05485 163.676L6.71985 162.567C6.50557 162.245 6.45324 162.061 6.44522 161.995C6.44236 161.971 6.44818 161.987 6.43585 162.025C6.42257 162.067 6.40037 162.096 6.38768 162.109L4.97369 160.695ZM5.05479 163.675C5.40704 164.205 5.85689 164.701 6.07667 164.921L7.4927 163.508C7.3326 163.348 6.97727 162.954 6.71991 162.568L5.05479 163.675ZM6.03728 164.879L6.03826 164.88L7.53307 163.551L7.5321 163.55L6.03728 164.879ZM6.07969 164.924C6.29987 165.143 6.79534 165.593 7.32487 165.946L8.43274 164.281C8.04601 164.023 7.65256 163.668 7.49164 163.508L6.07969 164.924ZM7.32484 165.946C7.77037 166.242 8.25923 166.48 8.76708 166.541C9.3245 166.608 9.87825 166.454 10.3055 166.027L8.8913 164.613C8.90398 164.6 8.9336 164.578 8.97505 164.565C9.01352 164.552 9.02943 164.558 9.00567 164.555C8.93899 164.547 8.75482 164.495 8.43277 164.281L7.32484 165.946ZM10.3055 166.027C10.3897 165.943 10.4712 165.842 10.5294 165.769C10.5934 165.688 10.6621 165.597 10.7224 165.518C10.786 165.434 10.8415 165.361 10.8906 165.299C10.9451 165.231 10.9673 165.207 10.9658 165.209L9.55158 163.794C9.46672 163.879 9.38465 163.98 9.32463 164.055C9.2592 164.137 9.18994 164.229 9.12918 164.309C9.06514 164.393 9.00998 164.466 8.96134 164.527C8.90678 164.596 8.88679 164.617 8.8913 164.613L10.3055 166.027ZM10.9658 165.209C10.9633 165.211 10.8396 165.337 10.614 165.371C10.4096 165.402 10.2913 165.33 10.3407 165.354L11.2094 163.553C10.9945 163.449 10.6815 163.338 10.3167 163.393C9.93077 163.451 9.68103 163.665 9.55158 163.794L10.9658 165.209ZM10.3408 165.354C10.3778 165.372 10.459 165.425 10.5756 165.525C10.6836 165.618 10.7808 165.715 10.8603 165.794L12.274 164.379C12.1489 164.254 11.6984 163.788 11.2093 163.553L10.3408 165.354ZM10.8665 165.8L10.8733 165.807L12.2747 164.38L12.2679 164.373L10.8665 165.8ZM10.8743 165.808C10.8684 165.802 10.828 165.759 10.8007 165.675C10.7726 165.587 10.7744 165.506 10.7863 165.448C10.7967 165.398 10.8114 165.382 10.7996 165.4C10.7882 165.418 10.7616 165.454 10.7112 165.504L12.1255 166.918C12.3641 166.68 12.6479 166.321 12.7446 165.855C12.8584 165.306 12.6794 164.776 12.2737 164.379L10.8743 165.808Z" fill="#676767" mask="url(#path-6-inside-2_2507_10830)"/>
</g>
<g clip-path="url(#clip3_2507_10830)">
<mask id="path-8-inside-3_2507_10830" fill="white">
<path d="M15.753 205.256C15.5575 205.017 15.2648 204.886 14.9286 204.886C14.7459 204.886 14.5523 204.924 14.3533 205L0.809595 210.17C0.0908454 210.445 -0.00595633 210.856 0.000269252 211.077C0.00649483 211.298 0.12649 211.704 0.859644 211.937C0.864039 211.938 0.868433 211.94 0.872828 211.941L3.68215 212.745L5.20144 217.089C5.40859 217.682 5.87356 218.049 6.41506 218.049C6.75649 218.049 7.09231 217.906 7.38626 217.636L9.12393 216.036L11.6443 218.065C11.6446 218.066 11.6449 218.066 11.6452 218.066L11.6691 218.085C11.6713 218.087 11.6736 218.089 11.6758 218.09C11.956 218.308 12.2617 218.422 12.5604 218.423H12.5606C13.1442 218.423 13.6089 217.991 13.7443 217.322L15.9634 206.365C16.0525 205.925 15.9778 205.531 15.753 205.256ZM4.62197 212.592L10.042 209.823L6.66714 213.409C6.61184 213.468 6.57266 213.54 6.55337 213.618L5.90261 216.254L4.62197 212.592ZM6.75112 216.946C6.72866 216.967 6.70608 216.985 6.6835 217.002L7.28726 214.557L8.38552 215.441L6.75112 216.946ZM15.0446 206.178L12.8255 217.136C12.8041 217.241 12.7359 217.485 12.5604 217.485C12.4738 217.485 12.3649 217.438 12.2534 217.352L9.39749 215.052C9.39712 215.052 9.39663 215.052 9.39614 215.051L7.6968 213.683L12.5773 208.497C12.7335 208.331 12.7477 208.077 12.6109 207.894C12.4739 207.712 12.2257 207.655 12.0227 207.758L3.99563 211.859L1.1481 211.045L14.6876 205.876C14.802 205.832 14.8819 205.823 14.9286 205.823C14.9573 205.823 15.0083 205.827 15.0272 205.85C15.0521 205.88 15.0839 205.984 15.0446 206.178Z"/>
</mask>
<path d="M15.753 205.256C15.5575 205.017 15.2648 204.886 14.9286 204.886C14.7459 204.886 14.5523 204.924 14.3533 205L0.809595 210.17C0.0908454 210.445 -0.00595633 210.856 0.000269252 211.077C0.00649483 211.298 0.12649 211.704 0.859644 211.937C0.864039 211.938 0.868433 211.94 0.872828 211.941L3.68215 212.745L5.20144 217.089C5.40859 217.682 5.87356 218.049 6.41506 218.049C6.75649 218.049 7.09231 217.906 7.38626 217.636L9.12393 216.036L11.6443 218.065C11.6446 218.066 11.6449 218.066 11.6452 218.066L11.6691 218.085C11.6713 218.087 11.6736 218.089 11.6758 218.09C11.956 218.308 12.2617 218.422 12.5604 218.423H12.5606C13.1442 218.423 13.6089 217.991 13.7443 217.322L15.9634 206.365C16.0525 205.925 15.9778 205.531 15.753 205.256ZM4.62197 212.592L10.042 209.823L6.66714 213.409C6.61184 213.468 6.57266 213.54 6.55337 213.618L5.90261 216.254L4.62197 212.592ZM6.75112 216.946C6.72866 216.967 6.70608 216.985 6.6835 217.002L7.28726 214.557L8.38552 215.441L6.75112 216.946ZM15.0446 206.178L12.8255 217.136C12.8041 217.241 12.7359 217.485 12.5604 217.485C12.4738 217.485 12.3649 217.438 12.2534 217.352L9.39749 215.052C9.39712 215.052 9.39663 215.052 9.39614 215.051L7.6968 213.683L12.5773 208.497C12.7335 208.331 12.7477 208.077 12.6109 207.894C12.4739 207.712 12.2257 207.655 12.0227 207.758L3.99563 211.859L1.1481 211.045L14.6876 205.876C14.802 205.832 14.8819 205.823 14.9286 205.823C14.9573 205.823 15.0083 205.827 15.0272 205.85C15.0521 205.88 15.0839 205.984 15.0446 206.178Z" fill="#676767"/>
<path d="M14.3533 205L14.7099 205.934L14.7103 205.934L14.3533 205ZM0.809595 210.17L1.16614 211.105L1.16623 211.105L0.809595 210.17ZM0.859644 211.937L0.556421 212.89L0.567426 212.893L0.859644 211.937ZM0.872828 211.941L1.14797 210.979L1.14047 210.977L0.872828 211.941ZM3.68215 212.745L4.6261 212.415L4.45515 211.926L3.95728 211.783L3.68215 212.745ZM5.20144 217.089L4.2575 217.419L4.25751 217.419L5.20144 217.089ZM7.38626 217.636L8.06342 218.372L8.06361 218.372L7.38626 217.636ZM9.12393 216.036L9.75109 215.257L9.08021 214.717L8.44657 215.3L9.12393 216.036ZM11.6443 218.065L12.3514 217.358L12.3134 217.32L12.2715 217.286L11.6443 218.065ZM11.6452 218.066L10.938 218.773L10.9759 218.811L11.0176 218.844L11.6452 218.066ZM11.6691 218.085L11.0415 218.864L11.0483 218.869L11.0552 218.875L11.6691 218.085ZM11.6758 218.09L11.0619 218.88L11.0629 218.881L11.6758 218.09ZM12.5604 218.423L12.56 219.423H12.5604V218.423ZM13.7443 217.322L14.7244 217.521L13.7443 217.322ZM15.9634 206.365L14.9833 206.166L14.9833 206.166L15.9634 206.365ZM4.62197 212.592L4.16704 211.702L3.38999 212.098L3.67803 212.922L4.62197 212.592ZM10.042 209.823L10.7702 210.508L9.58708 208.933L10.042 209.823ZM6.66714 213.409L7.39512 214.095L7.39536 214.095L6.66714 213.409ZM6.55337 213.618L7.52422 213.858L7.52431 213.857L6.55337 213.618ZM5.90261 216.254L4.95867 216.584L6.06801 219.756L6.87347 216.494L5.90261 216.254ZM6.75112 216.946L7.42757 217.683L7.42848 217.682L6.75112 216.946ZM6.6835 217.002L5.71265 216.762L5.03969 219.488L7.28419 217.802L6.6835 217.002ZM7.28726 214.557L7.91445 213.778L6.69249 212.794L6.31641 214.317L7.28726 214.557ZM8.38552 215.441L9.06288 216.177L9.91694 215.391L9.01272 214.662L8.38552 215.441ZM12.8255 217.136L13.8053 217.336L13.8056 217.335L12.8255 217.136ZM12.2534 217.352L11.6263 218.131L11.6347 218.138L11.6434 218.144L12.2534 217.352ZM9.39749 215.052L8.69038 215.759L8.72843 215.798L8.77033 215.831L9.39749 215.052ZM9.39614 215.051L8.76895 215.83L8.85272 215.898L8.94891 215.946L9.39614 215.051ZM7.6968 213.683L6.96858 212.998L6.22823 213.784L7.06961 214.462L7.6968 213.683ZM12.5773 208.497L11.8491 207.812L11.8491 207.812L12.5773 208.497ZM12.6109 207.894L13.4107 207.294L13.4105 207.294L12.6109 207.894ZM12.0227 207.758L12.4777 208.649L12.4778 208.649L12.0227 207.758ZM3.99563 211.859L3.72056 212.821L4.09954 212.929L4.45057 212.75L3.99563 211.859ZM1.1481 211.045L0.791467 210.11L-2.01212 211.181L0.873027 212.006L1.1481 211.045ZM14.6876 205.876L15.0443 206.81L15.0446 206.81L14.6876 205.876ZM15.0272 205.85L14.2508 206.48L14.2537 206.484L15.0272 205.85ZM16.5271 204.623C16.1233 204.129 15.5344 203.886 14.9286 203.886V205.886C14.9657 205.886 14.9819 205.893 14.9835 205.893C14.9847 205.894 14.9839 205.894 14.9821 205.892C14.9803 205.891 14.9791 205.89 14.9788 205.889L16.5271 204.623ZM14.9286 203.886C14.6058 203.886 14.2911 203.953 13.9963 204.066L14.7103 205.934C14.8135 205.895 14.8859 205.886 14.9286 205.886V203.886ZM13.9967 204.066L0.452965 209.236L1.16623 211.105L14.7099 205.934L13.9967 204.066ZM0.453053 209.236C-0.0485363 209.427 -0.437166 209.708 -0.691071 210.077C-0.947073 210.45 -1.00717 210.827 -0.999334 211.105L0.999872 211.049C1.00061 211.075 0.998223 211.104 0.990194 211.135C0.981732 211.167 0.968989 211.193 0.957204 211.21C0.929831 211.25 0.948977 211.187 1.16614 211.105L0.453053 209.236ZM-0.999334 211.105C-0.991488 211.384 -0.910079 211.757 -0.633421 212.114C-0.35903 212.469 0.044834 212.727 0.556441 212.89L1.16285 210.984C0.9413 210.913 0.91859 210.852 0.948138 210.89C0.960861 210.907 0.975049 210.932 0.985328 210.963C0.995081 210.994 0.999131 211.023 0.999872 211.049L-0.999334 211.105ZM0.567426 212.893C0.569712 212.894 0.586378 212.899 0.605183 212.904L1.14047 210.977C1.14637 210.979 1.15067 210.98 1.15236 210.981C1.15372 210.981 1.15457 210.981 1.15186 210.981L0.567426 212.893ZM0.597699 212.902L3.40702 213.706L3.95728 211.783L1.14796 210.979L0.597699 212.902ZM2.73821 213.075L4.2575 217.419L6.14539 216.759L4.6261 212.415L2.73821 213.075ZM4.25751 217.419C4.57579 218.329 5.36638 219.049 6.41506 219.049V217.049C6.37945 217.049 6.34449 217.04 6.30336 217.007C6.2586 216.972 6.19363 216.897 6.14537 216.759L4.25751 217.419ZM6.41506 219.049C7.04953 219.049 7.61845 218.781 8.06342 218.372L6.70909 216.9C6.56617 217.032 6.46346 217.049 6.41506 217.049V219.049ZM8.06361 218.372L9.80128 216.772L8.44657 215.3L6.7089 216.9L8.06361 218.372ZM8.49676 216.815L11.0171 218.844L12.2715 217.286L9.75109 215.257L8.49676 216.815ZM10.9372 218.772C10.9666 218.802 10.9944 218.826 11.0184 218.845C11.0423 218.864 11.0635 218.88 11.0798 218.891C11.0961 218.902 11.1095 218.91 11.1175 218.915C11.1217 218.918 11.125 218.92 11.127 218.921C11.1281 218.922 11.1289 218.922 11.1294 218.923C11.1297 218.923 11.1299 218.923 11.13 218.923C11.1301 218.923 11.1302 218.923 11.1302 218.923C11.1302 218.923 11.1302 218.923 11.1302 218.923C11.1302 218.923 11.1303 218.923 11.1303 218.923C11.1305 218.923 11.129 218.922 11.1272 218.921C11.1252 218.92 11.1218 218.918 11.1178 218.915C11.1098 218.911 11.0964 218.902 11.0803 218.891C11.064 218.88 11.0428 218.865 11.019 218.846C10.9951 218.826 10.9674 218.802 10.938 218.773L12.3523 217.359C12.3229 217.329 12.2951 217.305 12.2711 217.286C12.2473 217.267 12.226 217.252 12.2097 217.24C12.1934 217.229 12.18 217.221 12.1719 217.216C12.1678 217.213 12.1645 217.211 12.1624 217.21C12.1614 217.209 12.1606 217.209 12.16 217.209C12.1598 217.208 12.1596 217.208 12.1594 217.208C12.1594 217.208 12.1593 217.208 12.1593 217.208C12.1593 217.208 12.1593 217.208 12.1592 217.208C12.1592 217.208 12.1592 217.208 12.1592 217.208C12.1589 217.208 12.1605 217.209 12.1623 217.21C12.1643 217.211 12.1676 217.213 12.1717 217.216C12.1796 217.221 12.193 217.229 12.2092 217.24C12.2255 217.251 12.2466 217.266 12.2704 217.286C12.2943 217.305 12.3221 217.329 12.3514 217.358L10.9372 218.772ZM11.0176 218.844L11.0415 218.864L12.2967 217.307L12.2728 217.287L11.0176 218.844ZM11.0552 218.875C11.0545 218.874 11.0542 218.874 11.0556 218.875C11.0564 218.876 11.059 218.878 11.0619 218.88L12.2897 217.301C12.2904 217.302 12.2907 217.302 12.2893 217.301C12.2885 217.3 12.2859 217.298 12.283 217.296L11.0552 218.875ZM11.0629 218.881C11.4846 219.208 12.0003 219.422 12.56 219.423L12.5609 217.423C12.5232 217.423 12.4273 217.408 12.2887 217.3L11.0629 218.881ZM12.5604 219.423H12.5606V217.423H12.5604V219.423ZM12.5606 219.423C13.725 219.423 14.5171 218.544 14.7244 217.521L12.7642 217.124C12.732 217.283 12.6718 217.361 12.6396 217.391C12.6134 217.415 12.5927 217.423 12.5606 217.423V219.423ZM14.7244 217.521L16.9435 206.563L14.9833 206.166L12.7642 217.124L14.7244 217.521ZM16.9435 206.563C17.0751 205.914 16.9904 205.19 16.527 204.623L14.9789 205.889C14.9652 205.873 15.0299 205.936 14.9833 206.166L16.9435 206.563ZM5.07691 213.483L10.497 210.714L9.58708 208.933L4.16704 211.702L5.07691 213.483ZM9.31379 209.138L5.93892 212.724L7.39536 214.095L10.7702 210.508L9.31379 209.138ZM5.93916 212.724C5.76607 212.907 5.64302 213.133 5.58243 213.379L7.52431 213.857C7.50229 213.947 7.45762 214.028 7.39512 214.095L5.93916 212.724ZM5.58252 213.378L4.93176 216.014L6.87347 216.494L7.52422 213.858L5.58252 213.378ZM6.84656 215.924L5.56592 212.262L3.67803 212.922L4.95867 216.584L6.84656 215.924ZM6.07468 216.21C6.07981 216.205 6.08308 216.203 6.08281 216.203L7.28419 217.802C7.32908 217.768 7.37751 217.729 7.42757 217.683L6.07468 216.21ZM7.65434 217.242L8.2581 214.797L6.31641 214.317L5.71265 216.762L7.65434 217.242ZM6.66006 215.336L7.75833 216.22L9.01272 214.662L7.91445 213.778L6.66006 215.336ZM7.70817 214.706L6.07377 216.211L7.42848 217.682L9.06288 216.177L7.70817 214.706ZM14.0645 205.98L11.8454 216.938L13.8056 217.335L16.0247 206.377L14.0645 205.98ZM11.8456 216.936C11.8457 216.936 11.8458 216.935 11.846 216.935C11.8462 216.934 11.8468 216.932 11.848 216.928C11.8493 216.924 11.8576 216.898 11.879 216.86C11.8983 216.826 11.9509 216.74 12.0574 216.657C12.1777 216.563 12.3525 216.485 12.5604 216.485V218.485C13.1917 218.485 13.516 218.029 13.6225 217.84C13.7402 217.63 13.7875 217.423 13.8053 217.336L11.8456 216.936ZM12.5604 216.485C12.692 216.485 12.7808 216.519 12.814 216.533C12.8517 216.55 12.8673 216.562 12.8635 216.56L11.6434 218.144C11.8287 218.287 12.1527 218.485 12.5604 218.485V216.485ZM12.8806 216.573L10.0246 214.273L8.77033 215.831L11.6263 218.131L12.8806 216.573ZM10.1046 214.345C10.0363 214.277 9.94966 214.21 9.84338 214.157L8.94891 215.946C8.89167 215.917 8.84392 215.886 8.8055 215.858C8.76681 215.83 8.72801 215.797 8.69038 215.759L10.1046 214.345ZM10.0233 214.273L8.32399 212.904L7.06961 214.462L8.76895 215.83L10.0233 214.273ZM8.42503 214.368L13.3055 209.182L11.8491 207.812L6.96858 212.998L8.42503 214.368ZM13.3055 209.182C13.7951 208.662 13.8394 207.865 13.4107 207.294L11.811 208.495C11.6561 208.288 11.672 208 11.8491 207.812L13.3055 209.182ZM13.4105 207.294C12.9816 206.723 12.2039 206.543 11.5676 206.868L12.4778 208.649C12.2475 208.767 11.9662 208.701 11.8113 208.495L13.4105 207.294ZM11.5678 206.868L3.54069 210.969L4.45057 212.75L12.4777 208.649L11.5678 206.868ZM4.2707 210.898L1.42317 210.083L0.873027 212.006L3.72056 212.821L4.2707 210.898ZM1.50473 211.979L15.0443 206.81L14.331 204.942L0.791467 210.11L1.50473 211.979ZM15.0446 206.81C15.056 206.806 15.0151 206.823 14.9286 206.823V204.823C14.7486 204.823 14.5481 204.859 14.3307 204.942L15.0446 206.81ZM14.9286 206.823C14.9133 206.823 14.8585 206.823 14.7841 206.808C14.7457 206.8 14.676 206.784 14.593 206.746C14.5134 206.71 14.3744 206.632 14.2508 206.48L15.8037 205.22C15.5611 204.921 15.2387 204.86 15.1791 204.848C15.0672 204.825 14.9726 204.823 14.9286 204.823V206.823ZM14.2537 206.484C14.1607 206.37 14.1185 206.265 14.1005 206.212C14.0791 206.15 14.0702 206.099 14.0664 206.066C14.0586 205.997 14.0674 205.966 14.0644 205.98L16.0248 206.377C16.0611 206.197 16.0736 206.016 16.0536 205.84C16.0377 205.7 15.9882 205.445 15.8008 205.216L14.2537 206.484Z" fill="#676767" mask="url(#path-8-inside-3_2507_10830)"/>
</g>
<path d="M15.4011 259.797C15.4011 256.522 12.1176 253.857 8.08135 253.857C4.04562 253.857 0.761719 256.522 0.761719 259.797C0.761719 262.733 3.36577 265.192 6.8833 265.657C7.12171 265.709 7.44612 265.815 7.52821 266.018C7.60202 266.203 7.57648 266.493 7.55178 266.68C7.55178 266.68 7.46591 267.197 7.44739 267.307C7.41553 267.492 7.30033 268.031 8.08135 267.701C8.86265 267.372 12.2968 265.219 13.8325 263.452C14.8933 262.288 15.4011 261.108 15.4011 259.797Z" stroke="#676767" stroke-width="0.5"/>
<path d="M11.332 305L9.9987 302.333H5.9987L4.66536 305M11.9987 305H3.9987C2.53203 305 1.33203 306.2 1.33203 307.666V313C1.33203 314.466 2.53203 315.666 3.9987 315.666H11.9987C13.4654 315.666 14.6654 314.466 14.6654 313V307.666C14.6654 306.2 13.4654 305 11.9987 305ZM7.9987 313C6.53203 313 5.33203 311.8 5.33203 310.333C5.33203 308.866 6.53203 307.666 7.9987 307.666C9.46536 307.666 10.6654 308.866 10.6654 310.333C10.6654 311.8 9.46536 313 7.9987 313Z" stroke="#676767" stroke-linecap="round"/>
<path d="M8.33463 364.333H3.0013C2.26797 364.333 1.66797 363.733 1.66797 363V357.667C1.66797 354 4.66797 351 8.33463 351C12.0013 351 15.0013 354 15.0013 357.667C15.0013 361.4 12.068 364.333 8.33463 364.333Z" stroke="#676767" stroke-miterlimit="10" stroke-linecap="round" stroke-linejoin="round"/>
<path d="M5.16927 357.667C5.16927 357.759 5.09465 357.833 5.0026 357.833C4.91056 357.833 4.83594 357.759 4.83594 357.667C4.83594 357.575 4.91055 357.5 5.0026 357.5C5.09465 357.5 5.16927 357.575 5.16927 357.667Z" fill="#A66FE5" stroke="#676767"/>
<path d="M11.8333 357.667C11.8333 357.759 11.7587 357.833 11.6667 357.833C11.5746 357.833 11.5 357.759 11.5 357.667C11.5 357.575 11.5746 357.5 11.6667 357.5C11.7587 357.5 11.8333 357.575 11.8333 357.667Z" fill="#A66FE5" stroke="#676767"/>
<path d="M8.5013 357.667C8.5013 357.759 8.42668 357.833 8.33464 357.833C8.24259 357.833 8.16797 357.759 8.16797 357.667C8.16797 357.575 8.24259 357.5 8.33464 357.5C8.42669 357.5 8.5013 357.575 8.5013 357.667Z" fill="#A66FE5" stroke="#676767"/>
<path d="M9.17509 410.506L10.7957 408.885C11.2526 408.429 11.9713 408.365 12.5013 408.735L14.2627 409.963C14.9435 410.438 15.0297 411.413 14.4428 412L14.2662 412.176C13.9505 412.492 13.4999 412.629 13.0708 412.506C11.6717 412.105 8.40854 410.945 5.75536 408.291C3.10218 405.638 1.94234 402.375 1.54133 400.976C1.41833 400.547 1.55498 400.096 1.87065 399.781L2.04724 399.604C2.63414 399.017 3.60887 399.103 4.08367 399.784L5.31219 401.546C5.68181 402.076 5.61826 402.794 5.16138 403.251L3.54076 404.872" stroke="#676767"/>
<path fill-rule="evenodd" clip-rule="evenodd" d="M7.894 461.458C7.894 461.458 12.788 457.543 12.788 452.894C12.788 450.191 10.5969 448 7.894 448C5.19112 448 3 450.191 3 452.894C3 457.543 7.894 461.458 7.894 461.458Z" stroke="#676767"/>
<path fill-rule="evenodd" clip-rule="evenodd" d="M7.89401 455.341C9.24545 455.341 10.341 454.246 10.341 452.894C10.341 451.543 9.24545 450.447 7.89401 450.447C6.54257 450.447 5.44701 451.543 5.44701 452.894C5.44701 454.246 6.54257 455.341 7.89401 455.341Z" stroke="#676767"/>
<defs>
<clipPath id="clip0_2507_10830">
<rect width="16" height="16" fill="white" transform="translate(0 9)"/>
</clipPath>
<clipPath id="clip1_2507_10830">
<rect width="16" height="16" fill="white" transform="translate(0 57.667)"/>
</clipPath>
<clipPath id="clip2_2507_10830">
<rect width="16" height="16" fill="white" transform="translate(0 155)"/>
</clipPath>
<clipPath id="clip3_2507_10830">
<rect width="16" height="16" fill="white" transform="translate(0 203.667)"/>
</clipPath>
</defs>
</svg>
